<mxGraphModel dx="0" dy="0" grid="1" gridSize="10" guides="1" tooltips="1" connect="1" arrows="1" fold="1" page="0" pageScale="1" background="none" math="0" shadow="0">
  <root>
    <mxCell id="0" />
    <mxCell id="1" parent="0" />
    <mxCell id="node23" parent="1" vertex="1" value="&lt;p style=&quot;margin:0px;margin-top:4px;text-align:center;&quot;&gt;&lt;b&gt;Bag&lt;/b&gt;&lt;/p&gt;&lt;hr size=&quot;1&quot;/&gt;&lt;p style=&quot;margin:0 0 0 4px;line-height:1.6;&quot;&gt;- NumBooks: int&lt;br/&gt;- NumTrophies: int&lt;br/&gt;- NumPlants: int&lt;br/&gt;- NumCats: int&lt;br/&gt;- NumFrames: int&lt;br/&gt;- Tiles: ArrayList&amp;lt;ItemTile&amp;gt;&lt;br/&gt;- NumGames: int&lt;/p&gt;&lt;hr size=&quot;1&quot;/&gt;&lt;p style=&quot;margin:0 0 0 4px;line-height:1.6;&quot;&gt;+ extract(): ItemTile&lt;br/&gt;+ NoMoreTiles(): boolean&lt;/p&gt;" style="verticalAlign=top;align=left;overflow=fill;fontSize=14;fontFamily=Helvetica;html=1;rounded=0;shadow=0;comic=0;labelBackgroundColor=none;strokeWidth=1;">
      <mxGeometry x="2454" y="1780" width="183" height="231" as="geometry" />
    </mxCell>
    <mxCell id="node61" parent="1" vertex="1" value="&lt;p style=&quot;margin:0px;margin-top:4px;text-align:center;&quot;&gt;&lt;b&gt;BagTest&lt;/b&gt;&lt;/p&gt;&lt;hr size=&quot;1&quot;/&gt;&lt;p style=&quot;margin:0 0 0 4px;line-height:1.6;&quot;&gt;+ testExtract3(): void&lt;br/&gt;+ testNoMoreTiles2(): void&lt;br/&gt;+ testExtract1(): void&lt;br/&gt;+ testNoMoreTiles1(): void&lt;br/&gt;+ testExtract2(): void&lt;/p&gt;" style="verticalAlign=top;align=left;overflow=fill;fontSize=14;fontFamily=Helvetica;html=1;rounded=0;shadow=0;comic=0;labelBackgroundColor=none;strokeWidth=1;">
      <mxGeometry x="9100" y="2116" width="178" height="142" as="geometry" />
    </mxCell>
    <mxCell id="node58" parent="1" vertex="1" value="&lt;p style=&quot;margin:0px;margin-top:4px;text-align:center;&quot;&gt;&lt;b&gt;BoardToken&lt;/b&gt;&lt;/p&gt;&lt;hr size=&quot;1&quot;/&gt;&lt;p style=&quot;margin:0 0 0 4px;line-height:1.6;&quot;&gt;- column: int&lt;br/&gt;- Tile: ItemTile&lt;br/&gt;- category: boardTokenCategory&lt;br/&gt;- associatedBoard: BoardToken[][]&lt;br/&gt;- row: int&lt;/p&gt;&lt;hr size=&quot;1&quot;/&gt;&lt;p style=&quot;margin:0 0 0 4px;line-height:1.6;&quot;&gt;+ getTile(): ItemTile&lt;br/&gt;+ setBoard(BoardToken[][]): void&lt;br/&gt;+ getCategory(): boardTokenCategory&lt;br/&gt;+ getRow(): int&lt;br/&gt;+ freeTile(): void&lt;br/&gt;+ setCategory(boardTokenCategory): void&lt;br/&gt;+ getCol(): int&lt;br/&gt;+ setCol(int): void&lt;br/&gt;+ setTile(ItemTile): void&lt;br/&gt;+ setRow(int): void&lt;br/&gt;+ getBoard(): BoardToken[][]&lt;/p&gt;" style="verticalAlign=top;align=left;overflow=fill;fontSize=14;fontFamily=Helvetica;html=1;rounded=0;shadow=0;comic=0;labelBackgroundColor=none;strokeWidth=1;">
      <mxGeometry x="5345" y="223" width="259" height="385" as="geometry" />
    </mxCell>
    <mxCell id="node42" parent="1" vertex="1" value="&lt;p style=&quot;margin:0px;margin-top:4px;text-align:center;&quot;&gt;&lt;b&gt;BookShelf&lt;/b&gt;&lt;/p&gt;&lt;hr size=&quot;1&quot;/&gt;&lt;p style=&quot;margin:0 0 0 4px;line-height:1.6;&quot;&gt;- tileRow: int&lt;br/&gt;- counter: int&lt;br/&gt;- category: ItemTileCategory&lt;br/&gt;- tileColumn: int&lt;br/&gt;- MAX_Row: int&lt;br/&gt;- points: int&lt;br/&gt;- commonGoalCard1Completed: boolean&lt;br/&gt;- MAX_Column: int&lt;br/&gt;- usedTiles: ArrayList&amp;lt;ItemTile&amp;gt;&lt;br/&gt;- maxPickableTiles: int[]&lt;br/&gt;- Shelf: ItemTile[][]&lt;br/&gt;- commonGoalCard2Completed: boolean&lt;/p&gt;&lt;hr size=&quot;1&quot;/&gt;&lt;p style=&quot;margin:0 0 0 4px;line-height:1.6;&quot;&gt;+ getMaxPickableTiles(): int[]&lt;br/&gt;+ setCommonGoalCard2Completed(boolean): void&lt;br/&gt;+ SetLocation(ItemTile): void&lt;br/&gt;+ LowerTile(int, int): ItemTile&lt;br/&gt;+ getMAX_Row(): int&lt;br/&gt;+ setTile(int, ItemTile): void&lt;br/&gt;+ isCommonGoalCard2Completed(): boolean&lt;br/&gt;+ getPoints(): int&lt;br/&gt;+ isCommonGoalCard1Completed(): boolean&lt;br/&gt;+ CheckCategory(ItemTile): boolean&lt;br/&gt;+ RightTile(int, int): ItemTile&lt;br/&gt;- SetPoints(): void&lt;br/&gt;+ getTileRow(): int&lt;br/&gt;+ getTileColumn(): int&lt;br/&gt;+ SetFirstTile(): void&lt;br/&gt;+ setCapability(int, int): void&lt;br/&gt;+ LeftTile(int, int): ItemTile&lt;br/&gt;+ getUsedTiles(): ArrayList&amp;lt;ItemTile&amp;gt;&lt;br/&gt;+ getTile(int, int): ItemTile&lt;br/&gt;+ UpperTile(int, int): ItemTile&lt;br/&gt;+ getMAX_Column(): int&lt;br/&gt;+ AdjacentScore(): void&lt;br/&gt;+ setTile(int, int, ItemTile): void&lt;br/&gt;+ AlreadyUsed(ItemTile): boolean&lt;br/&gt;+ getShelf(): ItemTile[][]&lt;br/&gt;+ setCommonGoalCard1Completed(boolean): void&lt;br/&gt;+ getCategory(): ItemTileCategory&lt;br/&gt;+ NumTiles(): int&lt;/p&gt;" style="verticalAlign=top;align=left;overflow=fill;fontSize=14;fontFamily=Helvetica;html=1;rounded=0;shadow=0;comic=0;labelBackgroundColor=none;strokeWidth=1;">
      <mxGeometry x="7516" y="2376" width="304" height="913" as="geometry" />
    </mxCell>
    <mxCell id="node125" parent="1" vertex="1" value="&lt;p style=&quot;margin:0px;margin-top:4px;text-align:center;&quot;&gt;&lt;b&gt;BookShelfTest&lt;/b&gt;&lt;/p&gt;&lt;hr size=&quot;1&quot;/&gt;&lt;p style=&quot;margin:0 0 0 4px;line-height:1.6;&quot;&gt;+ testAdjacentScore_SECOND(): void&lt;br/&gt;+ testAdjacentScore_FIFTH(): void&lt;br/&gt;+ testAdjacentScore_FOURTH(): void&lt;br/&gt;+ testAdjacentScore_THIRD(): void&lt;br/&gt;+ testAdjacentScore_FIRST(): void&lt;/p&gt;" style="verticalAlign=top;align=left;overflow=fill;fontSize=14;fontFamily=Helvetica;html=1;rounded=0;shadow=0;comic=0;labelBackgroundColor=none;strokeWidth=1;">
      <mxGeometry x="3851" y="1348" width="231" height="142" as="geometry" />
    </mxCell>
    <mxCell id="node10" parent="1" vertex="1" value="&lt;p style=&quot;margin:0px;margin-top:4px;text-align:center;&quot;&gt;&lt;b&gt;BookshelfMessage&lt;/b&gt;&lt;/p&gt;&lt;hr size=&quot;1&quot;/&gt;&lt;p style=&quot;margin:0 0 0 4px;line-height:1.6;&quot;&gt;- playerBookshelf: BookShelf&lt;/p&gt;&lt;hr size=&quot;1&quot;/&gt;&lt;p style=&quot;margin:0 0 0 4px;line-height:1.6;&quot;&gt;+ getPlayerBookshelf(): BookShelf&lt;/p&gt;" style="verticalAlign=top;align=left;overflow=fill;fontSize=14;fontFamily=Helvetica;html=1;rounded=0;shadow=0;comic=0;labelBackgroundColor=none;strokeWidth=1;">
      <mxGeometry x="4189" y="1024" width="218" height="83" as="geometry" />
    </mxCell>
    <mxCell id="node114" parent="1" vertex="1" value="&lt;p style=&quot;margin:0px;margin-top:4px;text-align:center;&quot;&gt;&lt;b&gt;CGCKey&lt;/b&gt;&lt;/p&gt;&lt;hr size=&quot;1&quot;/&gt;&lt;p style=&quot;margin:0 0 0 4px;line-height:1.6;&quot;&gt;- id: Integer&lt;br/&gt;- commonGoalCard: CommonGoalCard&lt;/p&gt;&lt;hr size=&quot;1&quot;/&gt;&lt;p style=&quot;margin:0 0 0 4px;line-height:1.6;&quot;&gt;+ setCommonGoalCard(CommonGoalCard): void&lt;br/&gt;+ getId(): Integer&lt;br/&gt;+ setId(Integer): void&lt;br/&gt;+ getCommonGoalCard(): CommonGoalCard&lt;/p&gt;" style="verticalAlign=top;align=left;overflow=fill;fontSize=14;fontFamily=Helvetica;html=1;rounded=0;shadow=0;comic=0;labelBackgroundColor=none;strokeWidth=1;">
      <mxGeometry x="-113" y="1768" width="296" height="165" as="geometry" />
    </mxCell>
    <mxCell id="node111" parent="1" vertex="1" value="&lt;p style=&quot;margin:0px;margin-top:4px;text-align:center;&quot;&gt;&lt;b&gt;CLI&lt;/b&gt;&lt;/p&gt;&lt;hr size=&quot;1&quot;/&gt;&lt;p style=&quot;margin:0 0 0 4px;line-height:1.6;&quot;&gt;+ run(): void&lt;br/&gt;+ showMessage(String): void&lt;/p&gt;" style="verticalAlign=top;align=left;overflow=fill;fontSize=14;fontFamily=Helvetica;html=1;rounded=0;shadow=0;comic=0;labelBackgroundColor=none;strokeWidth=1;">
      <mxGeometry x="1804" y="951" width="189" height="82" as="geometry" />
    </mxCell>
    <mxCell id="node122" parent="1" vertex="1" value="&lt;p style=&quot;margin:0px;margin-top:4px;text-align:center;&quot;&gt;&lt;b&gt;CLICommandList&lt;/b&gt;&lt;/p&gt;&lt;hr size=&quot;1&quot;/&gt;&lt;p style=&quot;margin:0 0 0 4px;line-height:1.6;&quot;&gt;+ getCommands(): ArrayList&amp;lt;String&amp;gt;&lt;/p&gt;" style="verticalAlign=top;align=left;overflow=fill;fontSize=14;fontFamily=Helvetica;html=1;rounded=0;shadow=0;comic=0;labelBackgroundColor=none;strokeWidth=1;">
      <mxGeometry x="1827" y="1174" width="235" height="58" as="geometry" />
    </mxCell>
    <mxCell id="node89" parent="1" vertex="1" value="&lt;p style=&quot;margin:0px;margin-top:4px;text-align:center;&quot;&gt;&lt;b&gt;CLIEvent&lt;/b&gt;&lt;/p&gt;&lt;hr size=&quot;1&quot;/&gt;&lt;p style=&quot;margin:0 0 0 4px;line-height:1.6;&quot;&gt;- inGameHandler: Boolean&lt;br/&gt;- inStartCLI: Boolean&lt;br/&gt;- inLobbyHandler: Boolean&lt;br/&gt;- gameHandler: GameHandler&lt;br/&gt;- startCLI: StartCLI&lt;br/&gt;- lobbyHandler: LobbyHandler&lt;/p&gt;&lt;hr size=&quot;1&quot;/&gt;&lt;p style=&quot;margin:0 0 0 4px;line-height:1.6;&quot;&gt;- forwardMessage(ServerMessage): void&lt;br/&gt;+ setLobbyHandler(LobbyHandler): void&lt;br/&gt;+ setGameHandler(GameHandler): void&lt;br/&gt;+ setInGameHandler(Boolean): void&lt;br/&gt;+ setInLobbyHandler(Boolean): void&lt;br/&gt;+ propertyChange(PropertyChangeEvent): void&lt;br/&gt;+ setInStartCLI(Boolean): void&lt;/p&gt;" style="verticalAlign=top;align=left;overflow=fill;fontSize=14;fontFamily=Helvetica;html=1;rounded=0;shadow=0;comic=0;labelBackgroundColor=none;strokeWidth=1;">
      <mxGeometry x="8389" y="1573" width="283" height="319" as="geometry" />
    </mxCell>
    <mxCell id="node71" parent="1" vertex="1" value="&lt;p style=&quot;margin:0px;margin-top:4px;text-align:center;&quot;&gt;&lt;b&gt;CLImain&lt;/b&gt;&lt;/p&gt;&lt;hr size=&quot;1&quot;/&gt;&lt;p style=&quot;margin:0 0 0 4px;line-height:1.6;&quot;&gt;+ main(String[]): void&lt;/p&gt;" style="verticalAlign=top;align=left;overflow=fill;fontSize=14;fontFamily=Helvetica;html=1;rounded=0;shadow=0;comic=0;labelBackgroundColor=none;strokeWidth=1;">
      <mxGeometry x="8892" y="1999" width="151" height="58" as="geometry" />
    </mxCell>
    <mxCell id="node124" parent="1" vertex="1" value="&lt;p style=&quot;margin:0px;margin-top:4px;text-align:center;&quot;&gt;&lt;i&gt;&amp;lt;&amp;lt;interface&amp;gt;&amp;gt;&lt;/i&gt;&lt;br/&gt;&lt;b&gt;CheckCommonGoalCard&lt;/b&gt;&lt;/p&gt;&lt;hr size=&quot;1&quot;/&gt;&lt;p style=&quot;margin:0 0 0 4px;line-height:1.6;&quot;&gt;+ checkGoal(BookShelf): void&lt;/p&gt;" style="verticalAlign=top;align=left;overflow=fill;fontSize=14;fontFamily=Helvetica;html=1;rounded=0;shadow=0;comic=0;labelBackgroundColor=none;strokeWidth=1;">
      <mxGeometry x="4626" y="1346" width="208" height="68" as="geometry" />
    </mxCell>
    <mxCell id="node112" parent="1" vertex="1" value="&lt;p style=&quot;margin:0px;margin-top:4px;text-align:center;&quot;&gt;&lt;b&gt;ClientConnectionRMI&lt;/b&gt;&lt;/p&gt;&lt;hr size=&quot;1&quot;/&gt;&lt;p style=&quot;margin:0 0 0 4px;line-height:1.6;&quot;&gt;- clientIsActive: boolean&lt;br/&gt;- playerName: String&lt;br/&gt;~ listener: PropertyChangeListener&lt;br/&gt;- queue: ArrayList&amp;lt;ServerMessage&amp;gt;&lt;br/&gt;- stub: RemoteInterface&lt;br/&gt;- ping: Thread&lt;/p&gt;&lt;hr size=&quot;1&quot;/&gt;&lt;p style=&quot;margin:0 0 0 4px;line-height:1.6;&quot;&gt;+ run(): void&lt;br/&gt;+ getPing(): boolean&lt;br/&gt;+ setListener(PropertyChangeListener): void&lt;br/&gt;- passToListener(): void&lt;br/&gt;+ sendMessage(ClientMessage): void&lt;br/&gt;+ getPlayerName(): String&lt;br/&gt;+ receiveMessage(String): void&lt;br/&gt;+ sendPing(): void&lt;br/&gt;+ closeConnection(): void&lt;br/&gt;+ getListener(): PropertyChangeListener&lt;/p&gt;" style="verticalAlign=top;align=left;overflow=fill;fontSize=14;fontFamily=Helvetica;html=1;rounded=0;shadow=0;comic=0;labelBackgroundColor=none;strokeWidth=1;">
      <mxGeometry x="7364" y="252" width="266" height="385" as="geometry" />
    </mxCell>
    <mxCell id="node36" parent="1" vertex="1" value="&lt;p style=&quot;margin:0px;margin-top:4px;text-align:center;&quot;&gt;&lt;b&gt;ClientConnectionTCP&lt;/b&gt;&lt;/p&gt;&lt;hr size=&quot;1&quot;/&gt;&lt;p style=&quot;margin:0 0 0 4px;line-height:1.6;&quot;&gt;~ listener: PropertyChangeListener&lt;br/&gt;- socket: Socket&lt;br/&gt;- playerName: String&lt;br/&gt;- clientIsActive: boolean&lt;br/&gt;- input: Scanner&lt;br/&gt;- output: PrintWriter&lt;br/&gt;- gson: Gson&lt;/p&gt;&lt;hr size=&quot;1&quot;/&gt;&lt;p style=&quot;margin:0 0 0 4px;line-height:1.6;&quot;&gt;+ getPlayerName(): String&lt;br/&gt;+ receiveMessage(String): void&lt;br/&gt;+ sendMessage(ClientMessage): void&lt;br/&gt;+ closeConnection(): void&lt;br/&gt;- sendPing(): void&lt;br/&gt;+ run(): void&lt;br/&gt;+ getListener(): PropertyChangeListener&lt;br/&gt;+ setListener(PropertyChangeListener): void&lt;/p&gt;" style="verticalAlign=top;align=left;overflow=fill;fontSize=14;fontFamily=Helvetica;html=1;rounded=0;shadow=0;comic=0;labelBackgroundColor=none;strokeWidth=1;">
      <mxGeometry x="6744" y="370" width="266" height="363" as="geometry" />
    </mxCell>
    <mxCell id="node14" parent="1" vertex="1" value="&lt;p style=&quot;margin:0px;margin-top:4px;text-align:center;&quot;&gt;&lt;b&gt;ClientErrorMessage&lt;/b&gt;&lt;/p&gt;&lt;hr size=&quot;1&quot;/&gt;" style="verticalAlign=top;align=left;overflow=fill;fontSize=14;fontFamily=Helvetica;html=1;rounded=0;shadow=0;comic=0;labelBackgroundColor=none;strokeWidth=1;">
      <mxGeometry x="8963" y="1105" width="172" height="31" as="geometry" />
    </mxCell>
    <mxCell id="node72" parent="1" vertex="1" value="&lt;p style=&quot;margin:0px;margin-top:4px;text-align:center;&quot;&gt;&lt;b&gt;ClientMain&lt;/b&gt;&lt;/p&gt;&lt;hr size=&quot;1&quot;/&gt;&lt;p style=&quot;margin:0 0 0 4px;line-height:1.6;&quot;&gt;- view: View&lt;/p&gt;&lt;hr size=&quot;1&quot;/&gt;&lt;p style=&quot;margin:0 0 0 4px;line-height:1.6;&quot;&gt;+ main(String[]): void&lt;br/&gt;- argsParser(String[]): void&lt;br/&gt;+ showMessage(String): void&lt;/p&gt;" style="verticalAlign=top;align=left;overflow=fill;fontSize=14;fontFamily=Helvetica;html=1;rounded=0;shadow=0;comic=0;labelBackgroundColor=none;strokeWidth=1;">
      <mxGeometry x="905" y="1249" width="189" height="131" as="geometry" />
    </mxCell>
    <mxCell id="node67" parent="1" vertex="1" value="&lt;p style=&quot;margin:0px;margin-top:4px;text-align:center;&quot;&gt;&lt;b&gt;ClientMessage&lt;/b&gt;&lt;/p&gt;&lt;hr size=&quot;1&quot;/&gt;&lt;p style=&quot;margin:0 0 0 4px;line-height:1.6;&quot;&gt;+ move: Move&lt;/p&gt;&lt;hr size=&quot;1&quot;/&gt;&lt;p style=&quot;margin:0 0 0 4px;line-height:1.6;&quot;&gt;+ getMessageMove(): Move&lt;br/&gt;+ setMove(Move): void&lt;/p&gt;" style="verticalAlign=top;align=left;overflow=fill;fontSize=14;fontFamily=Helvetica;html=1;rounded=0;shadow=0;comic=0;labelBackgroundColor=none;strokeWidth=1;">
      <mxGeometry x="7724" y="590" width="186" height="107" as="geometry" />
    </mxCell>
    <mxCell id="node110" parent="1" vertex="1" value="&lt;p style=&quot;margin:0px;margin-top:4px;text-align:center;&quot;&gt;&lt;b&gt;CloseMessage&lt;/b&gt;&lt;/p&gt;&lt;hr size=&quot;1&quot;/&gt;" style="verticalAlign=top;align=left;overflow=fill;fontSize=14;fontFamily=Helvetica;html=1;rounded=0;shadow=0;comic=0;labelBackgroundColor=none;strokeWidth=1;">
      <mxGeometry x="8026" y="1130" width="141" height="31" as="geometry" />
    </mxCell>
    <mxCell id="node132" parent="1" vertex="1" value="&lt;p style=&quot;margin:0px;margin-top:4px;text-align:center;&quot;&gt;&lt;b&gt;ColumnMessage&lt;/b&gt;&lt;/p&gt;&lt;hr size=&quot;1&quot;/&gt;" style="verticalAlign=top;align=left;overflow=fill;fontSize=14;fontFamily=Helvetica;html=1;rounded=0;shadow=0;comic=0;labelBackgroundColor=none;strokeWidth=1;">
      <mxGeometry x="8080" y="1401" width="156" height="31" as="geometry" />
    </mxCell>
    <mxCell id="node129" parent="1" vertex="1" value="&lt;p style=&quot;margin:0px;margin-top:4px;text-align:center;&quot;&gt;&lt;b&gt;CommonCompletedMessage&lt;/b&gt;&lt;/p&gt;&lt;hr size=&quot;1&quot;/&gt;" style="verticalAlign=top;align=left;overflow=fill;fontSize=14;fontFamily=Helvetica;html=1;rounded=0;shadow=0;comic=0;labelBackgroundColor=none;strokeWidth=1;">
      <mxGeometry x="3242" y="1076" width="237" height="31" as="geometry" />
    </mxCell>
    <mxCell id="node126" parent="1" vertex="1" value="&lt;p style=&quot;margin:0px;margin-top:4px;text-align:center;&quot;&gt;&lt;b&gt;CommonGoalCard&lt;/b&gt;&lt;/p&gt;&lt;hr size=&quot;1&quot;/&gt;&lt;p style=&quot;margin:0 0 0 4px;line-height:1.6;&quot;&gt;# CYAN: String&lt;br/&gt;- numPlayersCGC: int&lt;br/&gt;# PINK: String&lt;br/&gt;# WHITE: String&lt;br/&gt;# points: int&lt;br/&gt;# GREEN: String&lt;br/&gt;- numCompleted: int&lt;br/&gt;# BLUE: String&lt;br/&gt;# RESET: String&lt;br/&gt;# YELLOW: String&lt;br/&gt;# WOOD: String&lt;/p&gt;&lt;hr size=&quot;1&quot;/&gt;&lt;p style=&quot;margin:0 0 0 4px;line-height:1.6;&quot;&gt;+ increaseNumCompleted(): void&lt;br/&gt;+ checkGoal(BookShelf): void&lt;br/&gt;+ print(): void&lt;br/&gt;+ getNumCompleted(): int&lt;br/&gt;+ getScore(): int&lt;br/&gt;+ getPoints(): int&lt;br/&gt;+ initNumCompleted(): void&lt;br/&gt;+ setPoints(int): void&lt;/p&gt;" style="verticalAlign=top;align=left;overflow=fill;fontSize=14;fontFamily=Helvetica;html=1;rounded=0;shadow=0;comic=0;labelBackgroundColor=none;strokeWidth=1;">
      <mxGeometry x="3578" y="924" width="212" height="451" as="geometry" />
    </mxCell>
    <mxCell id="node47" parent="1" vertex="1" value="&lt;p style=&quot;margin:0px;margin-top:4px;text-align:center;&quot;&gt;&lt;b&gt;CommonGoalCard1&lt;/b&gt;&lt;/p&gt;&lt;hr size=&quot;1&quot;/&gt;&lt;p style=&quot;margin:0 0 0 4px;line-height:1.6;&quot;&gt;- Goal: int&lt;br/&gt;- validGroups: List&amp;lt;ItemTile&amp;gt;&lt;/p&gt;&lt;hr size=&quot;1&quot;/&gt;&lt;p style=&quot;margin:0 0 0 4px;line-height:1.6;&quot;&gt;+ checkGoal(BookShelf): void&lt;br/&gt;+ print(): void&lt;/p&gt;" style="verticalAlign=top;align=left;overflow=fill;fontSize=14;fontFamily=Helvetica;html=1;rounded=0;shadow=0;comic=0;labelBackgroundColor=none;strokeWidth=1;">
      <mxGeometry x="2418" y="1113" width="195" height="131" as="geometry" />
    </mxCell>
    <mxCell id="node64" parent="1" vertex="1" value="&lt;p style=&quot;margin:0px;margin-top:4px;text-align:center;&quot;&gt;&lt;b&gt;CommonGoalCard10&lt;/b&gt;&lt;/p&gt;&lt;hr size=&quot;1&quot;/&gt;&lt;p style=&quot;margin:0 0 0 4px;line-height:1.6;&quot;&gt;- numRowsToAchieve: int&lt;br/&gt;- cat: HashSet&amp;lt;ItemTileCategory&amp;gt;&lt;/p&gt;&lt;hr size=&quot;1&quot;/&gt;&lt;p style=&quot;margin:0 0 0 4px;line-height:1.6;&quot;&gt;+ SameCategory(BookShelf, int, HashSet&amp;lt;ItemTileCategory&amp;gt;): boolean&lt;br/&gt;+ getCat(): HashSet&amp;lt;ItemTileCategory&amp;gt;&lt;br/&gt;+ print(): void&lt;br/&gt;+ checkGoal(BookShelf): void&lt;/p&gt;" style="verticalAlign=top;align=left;overflow=fill;fontSize=14;fontFamily=Helvetica;html=1;rounded=0;shadow=0;comic=0;labelBackgroundColor=none;strokeWidth=1;">
      <mxGeometry x="4778" y="517" width="413" height="165" as="geometry" />
    </mxCell>
    <mxCell id="node9" parent="1" vertex="1" value="&lt;p style=&quot;margin:0px;margin-top:4px;text-align:center;&quot;&gt;&lt;b&gt;CommonGoalCard10Test&lt;/b&gt;&lt;/p&gt;&lt;hr size=&quot;1&quot;/&gt;&lt;p style=&quot;margin:0 0 0 4px;line-height:1.6;&quot;&gt;+ testSameCategoryCGC10_SECOND(): void&lt;br/&gt;+ testCheckGoalCardCGC10_FIRST(): void&lt;br/&gt;+ testSameCategoryCGC10_FIRST(): void&lt;br/&gt;+ testCheckGoalCardCGC10_SECOND(): void&lt;br/&gt;+ testCheckGoalCardCGC10_THIRD(): void&lt;/p&gt;" style="verticalAlign=top;align=left;overflow=fill;fontSize=14;fontFamily=Helvetica;html=1;rounded=0;shadow=0;comic=0;labelBackgroundColor=none;strokeWidth=1;">
      <mxGeometry x="809" y="1500" width="270" height="142" as="geometry" />
    </mxCell>
    <mxCell id="node20" parent="1" vertex="1" value="&lt;p style=&quot;margin:0px;margin-top:4px;text-align:center;&quot;&gt;&lt;b&gt;CommonGoalCard11&lt;/b&gt;&lt;/p&gt;&lt;hr size=&quot;1&quot;/&gt;&lt;p style=&quot;margin:0 0 0 4px;line-height:1.6;&quot;&gt;- IsEqualCategory(ItemTile, ItemTile): boolean&lt;br/&gt;- NoItemsNull(BookShelf, int, int): boolean&lt;br/&gt;+ checkGoal(BookShelf): void&lt;br/&gt;- X(BookShelf, int, int): boolean&lt;br/&gt;+ print(): void&lt;/p&gt;" style="verticalAlign=top;align=left;overflow=fill;fontSize=14;fontFamily=Helvetica;html=1;rounded=0;shadow=0;comic=0;labelBackgroundColor=none;strokeWidth=1;">
      <mxGeometry x="4907" y="1226" width="281" height="142" as="geometry" />
    </mxCell>
    <mxCell id="node83" parent="1" vertex="1" value="&lt;p style=&quot;margin:0px;margin-top:4px;text-align:center;&quot;&gt;&lt;b&gt;CommonGoalCard11Test&lt;/b&gt;&lt;/p&gt;&lt;hr size=&quot;1&quot;/&gt;&lt;p style=&quot;margin:0 0 0 4px;line-height:1.6;&quot;&gt;+ testCheckGoalCardCGC11_FIRST(): void&lt;br/&gt;+ testCheckGoalCardCGC11_THIRD(): void&lt;br/&gt;+ testCheckGoalCardCGC11_SIXTH(): void&lt;br/&gt;+ testCheckGoalCardCGC11_SECOND(): void&lt;br/&gt;+ testCheckGoalCardCGC11_FOURTH(): void&lt;br/&gt;+ testCheckGoalCardCGC11_FIFTH(): void&lt;/p&gt;" style="verticalAlign=top;align=left;overflow=fill;fontSize=14;fontFamily=Helvetica;html=1;rounded=0;shadow=0;comic=0;labelBackgroundColor=none;strokeWidth=1;">
      <mxGeometry x="1480" y="1283" width="270" height="164" as="geometry" />
    </mxCell>
    <mxCell id="node34" parent="1" vertex="1" value="&lt;p style=&quot;margin:0px;margin-top:4px;text-align:center;&quot;&gt;&lt;b&gt;CommonGoalCard12&lt;/b&gt;&lt;/p&gt;&lt;hr size=&quot;1&quot;/&gt;&lt;p style=&quot;margin:0 0 0 4px;line-height:1.6;&quot;&gt;- countColumnLtoR(BookShelf, int): int&lt;br/&gt;+ print(): void&lt;br/&gt;+ checkGoal(BookShelf): void&lt;br/&gt;- checkRtoL(BookShelf): boolean&lt;br/&gt;- checkLtoR(BookShelf): boolean&lt;br/&gt;- countColumnRtoL(BookShelf, int): int&lt;/p&gt;" style="verticalAlign=top;align=left;overflow=fill;fontSize=14;fontFamily=Helvetica;html=1;rounded=0;shadow=0;comic=0;labelBackgroundColor=none;strokeWidth=1;">
      <mxGeometry x="2903" y="1053" width="244" height="164" as="geometry" />
    </mxCell>
    <mxCell id="node84" parent="1" vertex="1" value="&lt;p style=&quot;margin:0px;margin-top:4px;text-align:center;&quot;&gt;&lt;b&gt;CommonGoalCard12Test&lt;/b&gt;&lt;/p&gt;&lt;hr size=&quot;1&quot;/&gt;&lt;p style=&quot;margin:0 0 0 4px;line-height:1.6;&quot;&gt;+ testFullShelf(): void&lt;br/&gt;+ testCheckGoalCardCGC12(): void&lt;br/&gt;+ testCheckGoalCardCGC12_THIRD(): void&lt;br/&gt;+ testcheckLtoR(): void&lt;br/&gt;+ testcheckRtoL(): void&lt;br/&gt;+ testCheckGoalCardCGC12_SECOND(): void&lt;/p&gt;" style="verticalAlign=top;align=left;overflow=fill;fontSize=14;fontFamily=Helvetica;html=1;rounded=0;shadow=0;comic=0;labelBackgroundColor=none;strokeWidth=1;">
      <mxGeometry x="2054" y="851" width="270" height="164" as="geometry" />
    </mxCell>
    <mxCell id="node24" parent="1" vertex="1" value="&lt;p style=&quot;margin:0px;margin-top:4px;text-align:center;&quot;&gt;&lt;b&gt;CommonGoalCard1Test&lt;/b&gt;&lt;/p&gt;&lt;hr size=&quot;1&quot;/&gt;&lt;p style=&quot;margin:0 0 0 4px;line-height:1.6;&quot;&gt;+ testCheckGoalCardCGC1_SECOND(): void&lt;br/&gt;+ testCheckGoalCardCGC1_FIRST(): void&lt;br/&gt;+ testCheckGoalCardCGC1_THIRD(): void&lt;br/&gt;+ testCheckGoalCardCGC1_FIFTH(): void&lt;br/&gt;+ testCheckGoalCardCGC1_FOURTH(): void&lt;/p&gt;" style="verticalAlign=top;align=left;overflow=fill;fontSize=14;fontFamily=Helvetica;html=1;rounded=0;shadow=0;comic=0;labelBackgroundColor=none;strokeWidth=1;">
      <mxGeometry x="3077" y="1617" width="264" height="142" as="geometry" />
    </mxCell>
    <mxCell id="node60" parent="1" vertex="1" value="&lt;p style=&quot;margin:0px;margin-top:4px;text-align:center;&quot;&gt;&lt;b&gt;CommonGoalCard2&lt;/b&gt;&lt;/p&gt;&lt;hr size=&quot;1&quot;/&gt;&lt;p style=&quot;margin:0 0 0 4px;line-height:1.6;&quot;&gt;+ print(): void&lt;br/&gt;- NoItemsNull(BookShelf): boolean&lt;br/&gt;+ checkGoal(BookShelf): void&lt;/p&gt;" style="verticalAlign=top;align=left;overflow=fill;fontSize=14;fontFamily=Helvetica;html=1;rounded=0;shadow=0;comic=0;labelBackgroundColor=none;strokeWidth=1;">
      <mxGeometry x="5682" y="1018" width="223" height="106" as="geometry" />
    </mxCell>
    <mxCell id="node50" parent="1" vertex="1" value="&lt;p style=&quot;margin:0px;margin-top:4px;text-align:center;&quot;&gt;&lt;b&gt;CommonGoalCard2Test&lt;/b&gt;&lt;/p&gt;&lt;hr size=&quot;1&quot;/&gt;&lt;p style=&quot;margin:0 0 0 4px;line-height:1.6;&quot;&gt;+ testCheckGoalCardCGC2_THIRD(): void&lt;br/&gt;+ testCheckGoalCardCGC2_SECOND(): void&lt;br/&gt;+ testCheckGoalCardCGC2_FIRST(): void&lt;/p&gt;" style="verticalAlign=top;align=left;overflow=fill;fontSize=14;fontFamily=Helvetica;html=1;rounded=0;shadow=0;comic=0;labelBackgroundColor=none;strokeWidth=1;">
      <mxGeometry x="3865" y="1127" width="264" height="106" as="geometry" />
    </mxCell>
    <mxCell id="node26" parent="1" vertex="1" value="&lt;p style=&quot;margin:0px;margin-top:4px;text-align:center;&quot;&gt;&lt;b&gt;CommonGoalCard3&lt;/b&gt;&lt;/p&gt;&lt;hr size=&quot;1&quot;/&gt;&lt;p style=&quot;margin:0 0 0 4px;line-height:1.6;&quot;&gt;- validGroups: List&amp;lt;ItemTile&amp;gt;&lt;br/&gt;- Goal: int&lt;/p&gt;&lt;hr size=&quot;1&quot;/&gt;&lt;p style=&quot;margin:0 0 0 4px;line-height:1.6;&quot;&gt;+ checkGoal(BookShelf): void&lt;br/&gt;+ print(): void&lt;/p&gt;" style="verticalAlign=top;align=left;overflow=fill;fontSize=14;fontFamily=Helvetica;html=1;rounded=0;shadow=0;comic=0;labelBackgroundColor=none;strokeWidth=1;">
      <mxGeometry x="3749" y="1607" width="195" height="131" as="geometry" />
    </mxCell>
    <mxCell id="node128" parent="1" vertex="1" value="&lt;p style=&quot;margin:0px;margin-top:4px;text-align:center;&quot;&gt;&lt;b&gt;CommonGoalCard3Test&lt;/b&gt;&lt;/p&gt;&lt;hr size=&quot;1&quot;/&gt;&lt;p style=&quot;margin:0 0 0 4px;line-height:1.6;&quot;&gt;+ testCheckGoalCardCGC3_FIRST(): void&lt;br/&gt;+ testCheckGoalCardCGC3_THIRD(): void&lt;br/&gt;+ testCheckGoalCardCGC3_FOURTH(): void&lt;br/&gt;+ testCheckGoalCardCGC3_SEVENTH(): void&lt;br/&gt;+ testCheckGoalCardCGC3_EIGHTH(): void&lt;br/&gt;+ testCheckGoalCardCGC3_SECOND(): void&lt;br/&gt;+ testCheckGoalCardCGC3_FIFTH(): void&lt;br/&gt;+ testCheckGoalCardCGC3_SIXTH(): void&lt;/p&gt;" style="verticalAlign=top;align=left;overflow=fill;fontSize=14;fontFamily=Helvetica;html=1;rounded=0;shadow=0;comic=0;labelBackgroundColor=none;strokeWidth=1;">
      <mxGeometry x="6042" y="1023" width="268" height="208" as="geometry" />
    </mxCell>
    <mxCell id="node3" parent="1" vertex="1" value="&lt;p style=&quot;margin:0px;margin-top:4px;text-align:center;&quot;&gt;&lt;b&gt;CommonGoalCard4&lt;/b&gt;&lt;/p&gt;&lt;hr size=&quot;1&quot;/&gt;&lt;p style=&quot;margin:0 0 0 4px;line-height:1.6;&quot;&gt;- counterCats: int&lt;br/&gt;- counterGames: int&lt;br/&gt;- counterTrophies: int&lt;br/&gt;- counterFrames: int&lt;br/&gt;- counterPlants: int&lt;br/&gt;- validGroups: List&amp;lt;ItemTile&amp;gt;&lt;br/&gt;- counterBooks: int&lt;/p&gt;&lt;hr size=&quot;1&quot;/&gt;&lt;p style=&quot;margin:0 0 0 4px;line-height:1.6;&quot;&gt;+ getCounterGames(): int&lt;br/&gt;+ getCounterCats(): int&lt;br/&gt;- ThirdRow_FourthRow1(BookShelf): void&lt;br/&gt;- FourthRow_FifthRow3(BookShelf): void&lt;br/&gt;- FourthRow_FifthRow1(BookShelf): void&lt;br/&gt;- SecondRow_ThirdRow3(BookShelf): void&lt;br/&gt;- UpperRight(BookShelf): void&lt;br/&gt;- SecondRow_ThirdRow1(BookShelf): void&lt;br/&gt;- FirstRow_SecondRow1(BookShelf): void&lt;br/&gt;- FourthRow_FifthRow4(BookShelf): void&lt;br/&gt;- TwoSquares(): boolean&lt;br/&gt;- NoItemsNull(BookShelf, int, int): boolean&lt;br/&gt;- MidLeft(BookShelf): void&lt;br/&gt;- SecondRow_ThirdRow2(BookShelf): void&lt;br/&gt;- FifthRow_SixthRow2(BookShelf): void&lt;br/&gt;+ print(): void&lt;br/&gt;- MidRight(BookShelf): void&lt;br/&gt;+ getCounterTrophies(): int&lt;br/&gt;+ getCounterPlants(): int&lt;br/&gt;- FourthRow_FifthRow2(BookShelf): void&lt;br/&gt;- SecondRow_ThirdRow4(BookShelf): void&lt;br/&gt;- ThirdRow_FourthRow2(BookShelf): void&lt;br/&gt;- UpperLeft(BookShelf): void&lt;br/&gt;- FifthRow_SixthRow1(BookShelf): void&lt;br/&gt;+ getCounterFrames(): int&lt;br/&gt;+ checkGoal(BookShelf): void&lt;br/&gt;- FirstRow_SecondRow2(BookShelf): void&lt;br/&gt;- LowerLeft(BookShelf): void&lt;br/&gt;- notContain(BookShelf, int, int, int, int): boolean&lt;br/&gt;+ getCounterBooks(): int&lt;br/&gt;- LowerRight(BookShelf): void&lt;/p&gt;" style="verticalAlign=top;align=left;overflow=fill;fontSize=14;fontFamily=Helvetica;html=1;rounded=0;shadow=0;comic=0;labelBackgroundColor=none;strokeWidth=1;">
      <mxGeometry x="2384" y="40" width="295" height="869" as="geometry" />
    </mxCell>
    <mxCell id="node93" parent="1" vertex="1" value="&lt;p style=&quot;margin:0px;margin-top:4px;text-align:center;&quot;&gt;&lt;b&gt;CommonGoalCard4Test&lt;/b&gt;&lt;/p&gt;&lt;hr size=&quot;1&quot;/&gt;&lt;p style=&quot;margin:0 0 0 4px;line-height:1.6;&quot;&gt;+ testCheckGoalCardCGC4_THIRD(): void&lt;br/&gt;+ testCheckGoalCardCGC4_FIRST(): void&lt;br/&gt;+ testCheckGoalCardCGC4_ELEVENTH(): void&lt;br/&gt;+ testCheckGoalCardCGC4_FIFTH(): void&lt;br/&gt;+ testCheckGoalCardCGC4_FOURTH(): void&lt;br/&gt;+ testCheckGoalCardCGC4_SIXTH(): void&lt;br/&gt;+ testCheckGoalCardCGC4_SEVENTH(): void&lt;br/&gt;+ testCheckGoalCardCGC4_EIGHTH(): void&lt;br/&gt;+ testCheckGoalCardCGC4_NINTH(): void&lt;br/&gt;+ testCheckGoalCardCGC4_SECOND(): void&lt;br/&gt;+ testCheckGoalCardCGC4_TENTH(): void&lt;/p&gt;" style="verticalAlign=top;align=left;overflow=fill;fontSize=14;fontFamily=Helvetica;html=1;rounded=0;shadow=0;comic=0;labelBackgroundColor=none;strokeWidth=1;">
      <mxGeometry x="4908" y="1429" width="274" height="274" as="geometry" />
    </mxCell>
    <mxCell id="node94" parent="1" vertex="1" value="&lt;p style=&quot;margin:0px;margin-top:4px;text-align:center;&quot;&gt;&lt;b&gt;CommonGoalCard5&lt;/b&gt;&lt;/p&gt;&lt;hr size=&quot;1&quot;/&gt;&lt;p style=&quot;margin:0 0 0 4px;line-height:1.6;&quot;&gt;- numDifferentCategoriesAllowed: int&lt;br/&gt;- cat: HashSet&amp;lt;ItemTileCategory&amp;gt;&lt;br/&gt;- numColumnsToAchieve: int&lt;/p&gt;&lt;hr size=&quot;1&quot;/&gt;&lt;p style=&quot;margin:0 0 0 4px;line-height:1.6;&quot;&gt;+ getCat(): HashSet&amp;lt;ItemTileCategory&amp;gt;&lt;br/&gt;+ checkGoal(BookShelf): void&lt;br/&gt;+ CategoriesAllowed(BookShelf, int, HashSet&amp;lt;ItemTileCategory&amp;gt;): int&lt;br/&gt;+ print(): void&lt;/p&gt;" style="verticalAlign=top;align=left;overflow=fill;fontSize=14;fontFamily=Helvetica;html=1;rounded=0;shadow=0;comic=0;labelBackgroundColor=none;strokeWidth=1;">
      <mxGeometry x="4745" y="822" width="409" height="187" as="geometry" />
    </mxCell>
    <mxCell id="node103" parent="1" vertex="1" value="&lt;p style=&quot;margin:0px;margin-top:4px;text-align:center;&quot;&gt;&lt;b&gt;CommonGoalCard5Test&lt;/b&gt;&lt;/p&gt;&lt;hr size=&quot;1&quot;/&gt;&lt;p style=&quot;margin:0 0 0 4px;line-height:1.6;&quot;&gt;+ testCategoriesAllowedCGC5_FIRST(): void&lt;br/&gt;+ testCategoriesAllowedCGC5_FOURTH(): void&lt;br/&gt;+ testCheckGoalCardCGC5_THIRD(): void&lt;br/&gt;+ testCategoriesAllowedCGC5_SECOND(): void&lt;br/&gt;+ testCategoriesAllowedCGC5_THIRD(): void&lt;br/&gt;+ testCheckGoalCardCGC5_SECOND(): void&lt;br/&gt;+ testCheckGoalCardCGC5_FIRST(): void&lt;/p&gt;" style="verticalAlign=top;align=left;overflow=fill;fontSize=14;fontFamily=Helvetica;html=1;rounded=0;shadow=0;comic=0;labelBackgroundColor=none;strokeWidth=1;">
      <mxGeometry x="5268" y="1193" width="284" height="186" as="geometry" />
    </mxCell>
    <mxCell id="node43" parent="1" vertex="1" value="&lt;p style=&quot;margin:0px;margin-top:4px;text-align:center;&quot;&gt;&lt;b&gt;CommonGoalCard6&lt;/b&gt;&lt;/p&gt;&lt;hr size=&quot;1&quot;/&gt;&lt;p style=&quot;margin:0 0 0 4px;line-height:1.6;&quot;&gt;+ checkGoal(BookShelf): void&lt;br/&gt;+ print(): void&lt;/p&gt;" style="verticalAlign=top;align=left;overflow=fill;fontSize=14;fontFamily=Helvetica;html=1;rounded=0;shadow=0;comic=0;labelBackgroundColor=none;strokeWidth=1;">
      <mxGeometry x="4750" y="1090" width="192" height="82" as="geometry" />
    </mxCell>
    <mxCell id="node35" parent="1" vertex="1" value="&lt;p style=&quot;margin:0px;margin-top:4px;text-align:center;&quot;&gt;&lt;b&gt;CommonGoalCard6Test&lt;/b&gt;&lt;/p&gt;&lt;hr size=&quot;1&quot;/&gt;&lt;p style=&quot;margin:0 0 0 4px;line-height:1.6;&quot;&gt;+ testCheckGoalCardCGC6_FIFTH(): void&lt;br/&gt;+ testCheckGoalCardCGC6_FIRST(): void&lt;br/&gt;+ testCheckGoalCardCGC6_SECOND(): void&lt;br/&gt;+ testCheckGoalCardCGC6_THIRD(): void&lt;br/&gt;+ testCheckGoalCardCGC6_FOURTH(): void&lt;/p&gt;" style="verticalAlign=top;align=left;overflow=fill;fontSize=14;fontFamily=Helvetica;html=1;rounded=0;shadow=0;comic=0;labelBackgroundColor=none;strokeWidth=1;">
      <mxGeometry x="2626" y="1532" width="264" height="142" as="geometry" />
    </mxCell>
    <mxCell id="node99" parent="1" vertex="1" value="&lt;p style=&quot;margin:0px;margin-top:4px;text-align:center;&quot;&gt;&lt;b&gt;CommonGoalCard7&lt;/b&gt;&lt;/p&gt;&lt;hr size=&quot;1&quot;/&gt;&lt;p style=&quot;margin:0 0 0 4px;line-height:1.6;&quot;&gt;+ checkGoal(BookShelf): void&lt;br/&gt;- checkRtoL(BookShelf): boolean&lt;br/&gt;- checkLtoR(BookShelf): boolean&lt;br/&gt;+ print(): void&lt;/p&gt;" style="verticalAlign=top;align=left;overflow=fill;fontSize=14;fontFamily=Helvetica;html=1;rounded=0;shadow=0;comic=0;labelBackgroundColor=none;strokeWidth=1;">
      <mxGeometry x="4389" y="1162" width="210" height="130" as="geometry" />
    </mxCell>
    <mxCell id="node85" parent="1" vertex="1" value="&lt;p style=&quot;margin:0px;margin-top:4px;text-align:center;&quot;&gt;&lt;b&gt;CommonGoalCard7Test&lt;/b&gt;&lt;/p&gt;&lt;hr size=&quot;1&quot;/&gt;&lt;p style=&quot;margin:0 0 0 4px;line-height:1.6;&quot;&gt;+ testCheckGoalCardCGC7_FOURTH(): void&lt;br/&gt;+ testCheckGoalCardCGC7_NINTH(): void&lt;br/&gt;+ testCheckGoalCardCGC7_SECOND(): void&lt;br/&gt;+ testCheckGoalCardCGC7_SIXTH(): void&lt;br/&gt;+ testCheckGoalCardCGC7_EIGHT(): void&lt;br/&gt;+ testCheckGoalCardCGC7_FIRST(): void&lt;br/&gt;+ testCheckGoalCardCGC7_THIRD(): void&lt;br/&gt;+ testCheckGoalCardCGC7_FIFTH(): void&lt;br/&gt;+ testCheckGoalCardCGC7_SEVENTH(): void&lt;/p&gt;" style="verticalAlign=top;align=left;overflow=fill;fontSize=14;fontFamily=Helvetica;html=1;rounded=0;shadow=0;comic=0;labelBackgroundColor=none;strokeWidth=1;">
      <mxGeometry x="4478" y="1530" width="268" height="230" as="geometry" />
    </mxCell>
    <mxCell id="node17" parent="1" vertex="1" value="&lt;p style=&quot;margin:0px;margin-top:4px;text-align:center;&quot;&gt;&lt;b&gt;CommonGoalCard8&lt;/b&gt;&lt;/p&gt;&lt;hr size=&quot;1&quot;/&gt;&lt;p style=&quot;margin:0 0 0 4px;line-height:1.6;&quot;&gt;- numDifferentCategoriesAllowed: int&lt;br/&gt;- numRowsToAchieve: int&lt;br/&gt;- cat: HashSet&amp;lt;ItemTileCategory&amp;gt;&lt;/p&gt;&lt;hr size=&quot;1&quot;/&gt;&lt;p style=&quot;margin:0 0 0 4px;line-height:1.6;&quot;&gt;+ getCat(): HashSet&amp;lt;ItemTileCategory&amp;gt;&lt;br/&gt;+ print(): void&lt;br/&gt;+ CategoriesAllowed(BookShelf, int, HashSet&amp;lt;ItemTileCategory&amp;gt;): int&lt;br/&gt;+ checkGoal(BookShelf): void&lt;/p&gt;" style="verticalAlign=top;align=left;overflow=fill;fontSize=14;fontFamily=Helvetica;html=1;rounded=0;shadow=0;comic=0;labelBackgroundColor=none;strokeWidth=1;">
      <mxGeometry x="3795" y="677" width="409" height="187" as="geometry" />
    </mxCell>
    <mxCell id="node118" parent="1" vertex="1" value="&lt;p style=&quot;margin:0px;margin-top:4px;text-align:center;&quot;&gt;&lt;b&gt;CommonGoalCard8Test&lt;/b&gt;&lt;/p&gt;&lt;hr size=&quot;1&quot;/&gt;&lt;p style=&quot;margin:0 0 0 4px;line-height:1.6;&quot;&gt;+ testCategoriesAllowedCGC8_FOURTH(): void&lt;br/&gt;+ testCategoriesAllowedCGC8_FIRST(): void&lt;br/&gt;+ testCheckGoalCardCGC8_FIRST(): void&lt;br/&gt;+ testCheckGoalCardCGC8_THIRD(): void&lt;br/&gt;+ testCheckGoalCardCGC8_SECOND(): void&lt;br/&gt;+ testCategoriesAllowedCGC8_THIRD(): void&lt;br/&gt;+ testCategoriesAllowedCGC8_SECOND(): void&lt;/p&gt;" style="verticalAlign=top;align=left;overflow=fill;fontSize=14;fontFamily=Helvetica;html=1;rounded=0;shadow=0;comic=0;labelBackgroundColor=none;strokeWidth=1;">
      <mxGeometry x="5462" y="669" width="284" height="186" as="geometry" />
    </mxCell>
    <mxCell id="node22" parent="1" vertex="1" value="&lt;p style=&quot;margin:0px;margin-top:4px;text-align:center;&quot;&gt;&lt;b&gt;CommonGoalCard9&lt;/b&gt;&lt;/p&gt;&lt;hr size=&quot;1&quot;/&gt;&lt;p style=&quot;margin:0 0 0 4px;line-height:1.6;&quot;&gt;- numColumnsToAchieve: int&lt;br/&gt;- cat: HashSet&amp;lt;ItemTileCategory&amp;gt;&lt;/p&gt;&lt;hr size=&quot;1&quot;/&gt;&lt;p style=&quot;margin:0 0 0 4px;line-height:1.6;&quot;&gt;+ checkGoal(BookShelf): void&lt;br/&gt;+ print(): void&lt;br/&gt;+ getCat(): HashSet&amp;lt;ItemTileCategory&amp;gt;&lt;br/&gt;+ SameCategory(BookShelf, int, HashSet&amp;lt;ItemTileCategory&amp;gt;): boolean&lt;/p&gt;" style="verticalAlign=top;align=left;overflow=fill;fontSize=14;fontFamily=Helvetica;html=1;rounded=0;shadow=0;comic=0;labelBackgroundColor=none;strokeWidth=1;">
      <mxGeometry x="2950" y="1374" width="413" height="165" as="geometry" />
    </mxCell>
    <mxCell id="node109" parent="1" vertex="1" value="&lt;p style=&quot;margin:0px;margin-top:4px;text-align:center;&quot;&gt;&lt;b&gt;CommonGoalCard9Test&lt;/b&gt;&lt;/p&gt;&lt;hr size=&quot;1&quot;/&gt;&lt;p style=&quot;margin:0 0 0 4px;line-height:1.6;&quot;&gt;+ testCheckGoalCardCGC9_SECOND(): void&lt;br/&gt;+ testCheckGoalCardCGC9_THIRD(): void&lt;br/&gt;+ testSameCategoryCGC9_FIRST(): void&lt;br/&gt;+ testSameCategoryCGC9_SECOND(): void&lt;br/&gt;+ testCheckGoalCardCGC9_FIRST(): void&lt;/p&gt;" style="verticalAlign=top;align=left;overflow=fill;fontSize=14;fontFamily=Helvetica;html=1;rounded=0;shadow=0;comic=0;labelBackgroundColor=none;strokeWidth=1;">
      <mxGeometry x="5355" y="916" width="264" height="142" as="geometry" />
    </mxCell>
    <mxCell id="node46" parent="1" vertex="1" value="&lt;p style=&quot;margin:0px;margin-top:4px;text-align:center;&quot;&gt;&lt;b&gt;CommonGoalCardPrintTest&lt;/b&gt;&lt;/p&gt;&lt;hr size=&quot;1&quot;/&gt;&lt;p style=&quot;margin:0 0 0 4px;line-height:1.6;&quot;&gt;~ print(): void&lt;/p&gt;" style="verticalAlign=top;align=left;overflow=fill;fontSize=14;fontFamily=Helvetica;html=1;rounded=0;shadow=0;comic=0;labelBackgroundColor=none;strokeWidth=1;">
      <mxGeometry x="8945" y="1353" width="225" height="58" as="geometry" />
    </mxCell>
    <mxCell id="node38" parent="1" vertex="1" value="&lt;p style=&quot;margin:0px;margin-top:4px;text-align:center;&quot;&gt;&lt;b&gt;CommonGoalCardTest&lt;/b&gt;&lt;/p&gt;&lt;hr size=&quot;1&quot;/&gt;&lt;p style=&quot;margin:0 0 0 4px;line-height:1.6;&quot;&gt;+ testGetPoints1(): void&lt;br/&gt;+ testGetPoints7(): void&lt;br/&gt;+ testGetPoints9(): void&lt;br/&gt;+ testIncreaseNumCompleted2(): void&lt;br/&gt;+ testGetPoints8(): void&lt;br/&gt;+ testIncreaseNumCompleted4(): void&lt;br/&gt;+ testGetPoints3(): void&lt;br/&gt;+ testGetPoints6(): void&lt;br/&gt;+ testIncreaseNumCompleted3(): void&lt;br/&gt;+ testIncreaseNumCompleted1(): void&lt;br/&gt;+ testIncreaseNumCompleted5(): void&lt;br/&gt;+ testGetPoints2(): void&lt;br/&gt;+ testGetPoints4(): void&lt;br/&gt;+ testGetPoints5(): void&lt;/p&gt;" style="verticalAlign=top;align=left;overflow=fill;fontSize=14;fontFamily=Helvetica;html=1;rounded=0;shadow=0;comic=0;labelBackgroundColor=none;strokeWidth=1;">
      <mxGeometry x="6821" y="1323" width="238" height="340" as="geometry" />
    </mxCell>
    <mxCell id="node49" parent="1" vertex="1" value="&lt;p style=&quot;margin:0px;margin-top:4px;text-align:center;&quot;&gt;&lt;b&gt;ConnectionClient&lt;/b&gt;&lt;/p&gt;&lt;hr size=&quot;1&quot;/&gt;&lt;p style=&quot;margin:0 0 0 4px;line-height:1.6;&quot;&gt;# address: String&lt;/p&gt;&lt;hr size=&quot;1&quot;/&gt;&lt;p style=&quot;margin:0 0 0 4px;line-height:1.6;&quot;&gt;+ setListener(PropertyChangeListener): void&lt;br/&gt;+ getPlayerName(): String&lt;br/&gt;+ getListener(): PropertyChangeListener&lt;br/&gt;+ closeConnection(): void&lt;br/&gt;+ sendMessage(ClientMessage): void&lt;br/&gt;+ receiveMessage(String): void&lt;/p&gt;" style="verticalAlign=top;align=left;overflow=fill;fontSize=14;fontFamily=Helvetica;html=1;rounded=0;shadow=0;comic=0;labelBackgroundColor=none;strokeWidth=1;">
      <mxGeometry x="7613" y="-14" width="266" height="187" as="geometry" />
    </mxCell>
    <mxCell id="node101" parent="1" vertex="1" value="&lt;p style=&quot;margin:0px;margin-top:4px;text-align:center;&quot;&gt;&lt;b&gt;ControllerCoordinator&lt;/b&gt;&lt;/p&gt;&lt;hr size=&quot;1&quot;/&gt;&lt;p style=&quot;margin:0 0 0 4px;line-height:1.6;&quot;&gt;- gameController: GameController&lt;br/&gt;- connectedPlayers: ArrayList&amp;lt;Player&amp;gt;&lt;br/&gt;- startedGame: Boolean&lt;/p&gt;&lt;hr size=&quot;1&quot;/&gt;&lt;p style=&quot;margin:0 0 0 4px;line-height:1.6;&quot;&gt;+ joinPlayer(String, VirtualView): void&lt;br/&gt;+ getStartedGame(): Boolean&lt;br/&gt;+ getGameController(): GameController&lt;br/&gt;+ startGame(): void&lt;br/&gt;+ setStartedGame(Boolean): void&lt;br/&gt;+ endgame(): void&lt;br/&gt;+ setGame(GameSavings): void&lt;br/&gt;+ getConnectedPlayers(): ArrayList&amp;lt;Player&amp;gt;&lt;br/&gt;+ getDisconnectedPlayers(): ArrayList&amp;lt;Player&amp;gt;&lt;br/&gt;+ getConnectedPlayer(String): Player&lt;br/&gt;+ setMessage(ClientMessage): Message&lt;/p&gt;" style="verticalAlign=top;align=left;overflow=fill;fontSize=14;fontFamily=Helvetica;html=1;rounded=0;shadow=0;comic=0;labelBackgroundColor=none;strokeWidth=1;">
      <mxGeometry x="7849" y="1965" width="284" height="341" as="geometry" />
    </mxCell>
    <mxCell id="node13" parent="1" vertex="1" value="&lt;p style=&quot;margin:0px;margin-top:4px;text-align:center;&quot;&gt;&lt;b&gt;ControllerCoordinatorTest&lt;/b&gt;&lt;/p&gt;&lt;hr size=&quot;1&quot;/&gt;&lt;p style=&quot;margin:0 0 0 4px;line-height:1.6;&quot;&gt;+ testJoinPlayers_SEVENTH(): void&lt;br/&gt;+ testJoinPlayers_FIRST(): void&lt;br/&gt;+ testStartGame_FIRST(): void&lt;br/&gt;+ testSetMessage_THIRD(): void&lt;br/&gt;+ testJoinPlayers_SECOND(): void&lt;br/&gt;+ testSetMessage_NINTH(): void&lt;br/&gt;+ testStartGame_SECOND(): void&lt;br/&gt;+ testSetMessage_SECOND(): void&lt;br/&gt;+ testJoinPlayers_THIRD(): void&lt;br/&gt;+ testStartGame_THIRD(): void&lt;br/&gt;+ testSetMessage_FOURTH(): void&lt;br/&gt;+ testSetMessage_TENTH(): void&lt;br/&gt;+ testJoinPlayers_SIXTH(): void&lt;br/&gt;+ testSetMessage_ELEVENTH(): void&lt;br/&gt;+ testSetMessage_TWELFTH(): void&lt;br/&gt;+ testSetMessage_FIFTH(): void&lt;br/&gt;+ testSetMessage_SIXTH(): void&lt;br/&gt;+ testSetMessage_EIGHTH(): void&lt;br/&gt;+ testJoinPlayers_FIFTH(): void&lt;br/&gt;+ testJoinPlayers_FOURTH(): void&lt;br/&gt;+ testSetMessage_FIRST(): void&lt;br/&gt;+ testSetMessage_SEVENTH(): void&lt;/p&gt;" style="verticalAlign=top;align=left;overflow=fill;fontSize=14;fontFamily=Helvetica;html=1;rounded=0;shadow=0;comic=0;labelBackgroundColor=none;strokeWidth=1;">
      <mxGeometry x="243" y="1239" width="227" height="516" as="geometry" />
    </mxCell>
    <mxCell id="node133" parent="1" vertex="1" value="&lt;p style=&quot;margin:0px;margin-top:4px;text-align:center;&quot;&gt;&lt;b&gt;CoordinatesMessage&lt;/b&gt;&lt;/p&gt;&lt;hr size=&quot;1&quot;/&gt;&lt;p style=&quot;margin:0 0 0 4px;line-height:1.6;&quot;&gt;+ getSpecificCoordinate(int): Integer&lt;/p&gt;" style="verticalAlign=top;align=left;overflow=fill;fontSize=14;fontFamily=Helvetica;html=1;rounded=0;shadow=0;comic=0;labelBackgroundColor=none;strokeWidth=1;">
      <mxGeometry x="8653" y="1459" width="232" height="58" as="geometry" />
    </mxCell>
    <mxCell id="node25" parent="1" vertex="1" value="&lt;p style=&quot;margin:0px;margin-top:4px;text-align:center;&quot;&gt;&lt;b&gt;CrashedLobbyMessage&lt;/b&gt;&lt;/p&gt;&lt;hr size=&quot;1&quot;/&gt;" style="verticalAlign=top;align=left;overflow=fill;fontSize=14;fontFamily=Helvetica;html=1;rounded=0;shadow=0;comic=0;labelBackgroundColor=none;strokeWidth=1;">
      <mxGeometry x="1795" y="686" width="198" height="31" as="geometry" />
    </mxCell>
    <mxCell id="node33" parent="1" vertex="1" value="&lt;p style=&quot;margin:0px;margin-top:4px;text-align:center;&quot;&gt;&lt;b&gt;CrashedServerMessage&lt;/b&gt;&lt;/p&gt;&lt;hr size=&quot;1&quot;/&gt;" style="verticalAlign=top;align=left;overflow=fill;fontSize=14;fontFamily=Helvetica;html=1;rounded=0;shadow=0;comic=0;labelBackgroundColor=none;strokeWidth=1;">
      <mxGeometry x="3074" y="1281" width="197" height="31" as="geometry" />
    </mxCell>
    <mxCell id="node106" parent="1" vertex="1" value="&lt;p style=&quot;margin:0px;margin-top:4px;text-align:center;&quot;&gt;&lt;b&gt;CurrPlayingMessage&lt;/b&gt;&lt;/p&gt;&lt;hr size=&quot;1&quot;/&gt;&lt;p style=&quot;margin:0 0 0 4px;line-height:1.6;&quot;&gt;- currPlaying: Integer&lt;/p&gt;&lt;hr size=&quot;1&quot;/&gt;&lt;p style=&quot;margin:0 0 0 4px;line-height:1.6;&quot;&gt;+ getCurrPlaying(): Integer&lt;/p&gt;" style="verticalAlign=top;align=left;overflow=fill;fontSize=14;fontFamily=Helvetica;html=1;rounded=0;shadow=0;comic=0;labelBackgroundColor=none;strokeWidth=1;">
      <mxGeometry x="5805" y="306" width="180" height="83" as="geometry" />
    </mxCell>
    <mxCell id="node68" parent="1" vertex="1" value="&lt;p style=&quot;margin:0px;margin-top:4px;text-align:center;&quot;&gt;&lt;b&gt;DisconnectionHandler&lt;/b&gt;&lt;/p&gt;&lt;hr size=&quot;1&quot;/&gt;&lt;p style=&quot;margin:0 0 0 4px;line-height:1.6;&quot;&gt;- lobby: Lobby&lt;/p&gt;&lt;hr size=&quot;1&quot;/&gt;&lt;p style=&quot;margin:0 0 0 4px;line-height:1.6;&quot;&gt;+ clientReconnection(String): void&lt;br/&gt;# deleteLobby(): void&lt;br/&gt;+ disconnectionHandling(String): void&lt;br/&gt;+ showMessage(String): void&lt;br/&gt;+ checkReconnection(String): boolean&lt;/p&gt;" style="verticalAlign=top;align=left;overflow=fill;fontSize=14;fontFamily=Helvetica;html=1;rounded=0;shadow=0;comic=0;labelBackgroundColor=none;strokeWidth=1;">
      <mxGeometry x="1157" y="1248" width="238" height="165" as="geometry" />
    </mxCell>
    <mxCell id="node55" parent="1" vertex="1" value="&lt;p style=&quot;margin:0px;margin-top:4px;text-align:center;&quot;&gt;&lt;b&gt;EndGameMessage&lt;/b&gt;&lt;/p&gt;&lt;hr size=&quot;1&quot;/&gt;&lt;p style=&quot;margin:0 0 0 4px;line-height:1.6;&quot;&gt;- players: ArrayList&amp;lt;Player&amp;gt;&lt;/p&gt;&lt;hr size=&quot;1&quot;/&gt;&lt;p style=&quot;margin:0 0 0 4px;line-height:1.6;&quot;&gt;+ getPlayers(): ArrayList&amp;lt;Player&amp;gt;&lt;/p&gt;" style="verticalAlign=top;align=left;overflow=fill;fontSize=14;fontFamily=Helvetica;html=1;rounded=0;shadow=0;comic=0;labelBackgroundColor=none;strokeWidth=1;">
      <mxGeometry x="4473" y="982" width="212" height="83" as="geometry" />
    </mxCell>
    <mxCell id="node108" parent="1" vertex="1" value="&lt;p style=&quot;margin:0px;margin-top:4px;text-align:center;&quot;&gt;&lt;b&gt;EndGameToken&lt;/b&gt;&lt;/p&gt;&lt;hr size=&quot;1&quot;/&gt;" style="verticalAlign=top;align=left;overflow=fill;fontSize=14;fontFamily=Helvetica;html=1;rounded=0;shadow=0;comic=0;labelBackgroundColor=none;strokeWidth=1;">
      <mxGeometry x="8769" y="1623" width="150" height="31" as="geometry" />
    </mxCell>
    <mxCell id="node31" parent="1" vertex="1" value="&lt;p style=&quot;margin:0px;margin-top:4px;text-align:center;&quot;&gt;&lt;b&gt;ErrorMessage&lt;/b&gt;&lt;/p&gt;&lt;hr size=&quot;1&quot;/&gt;" style="verticalAlign=top;align=left;overflow=fill;fontSize=14;fontFamily=Helvetica;html=1;rounded=0;shadow=0;comic=0;labelBackgroundColor=none;strokeWidth=1;">
      <mxGeometry x="3448" y="835" width="137" height="31" as="geometry" />
    </mxCell>
    <mxCell id="node6" parent="1" vertex="1" value="&lt;p style=&quot;margin:0px;margin-top:4px;text-align:center;&quot;&gt;&lt;b&gt;GUIEvent&lt;/b&gt;&lt;/p&gt;&lt;hr size=&quot;1&quot;/&gt;&lt;p style=&quot;margin:0 0 0 4px;line-height:1.6;&quot;&gt;- stage: Stage&lt;br/&gt;- gamecontrollerGUI: GameControllerGUI&lt;br/&gt;- lobbyChoiceController: LobbyChoiceController&lt;br/&gt;- serverMessage: ServerMessage&lt;br/&gt;- inLobbyChoice: Boolean&lt;br/&gt;- usedNicknameController: UsedNicknameController&lt;br/&gt;- inStartGUI: Boolean&lt;br/&gt;- inGameControllerGUI: Boolean&lt;br/&gt;- menuController: MenuController&lt;br/&gt;- url: URL&lt;br/&gt;- inUsedNickname: Boolean&lt;br/&gt;- winnerController: WinnerController&lt;/p&gt;&lt;hr size=&quot;1&quot;/&gt;&lt;p style=&quot;margin:0 0 0 4px;line-height:1.6;&quot;&gt;+ setInGameControllerGUI(Boolean): void&lt;br/&gt;+ propertyChange(PropertyChangeEvent): void&lt;br/&gt;+ setLobbyChoiceController(LobbyChoiceController): void&lt;br/&gt;+ setUsedNicknameController(UsedNicknameController): void&lt;br/&gt;+ setInUsedNickname(Boolean): void&lt;br/&gt;+ setGamecontrollerGUI(GameControllerGUI): void&lt;br/&gt;- forwardMessage(ServerMessage): void&lt;br/&gt;+ setInStartGUI(Boolean): void&lt;br/&gt;+ setInLobbyChoice(Boolean): void&lt;/p&gt;" style="verticalAlign=top;align=left;overflow=fill;fontSize=14;fontFamily=Helvetica;html=1;rounded=0;shadow=0;comic=0;labelBackgroundColor=none;strokeWidth=1;">
      <mxGeometry x="7424" y="1738" width="363" height="495" as="geometry" />
    </mxCell>
    <mxCell id="node32" parent="1" vertex="1" value="&lt;p style=&quot;margin:0px;margin-top:4px;text-align:center;&quot;&gt;&lt;b&gt;GUILauncher&lt;/b&gt;&lt;/p&gt;&lt;hr size=&quot;1&quot;/&gt;&lt;p style=&quot;margin:0 0 0 4px;line-height:1.6;&quot;&gt;+ main(String[]): void&lt;/p&gt;" style="verticalAlign=top;align=left;overflow=fill;fontSize=14;fontFamily=Helvetica;html=1;rounded=0;shadow=0;comic=0;labelBackgroundColor=none;strokeWidth=1;">
      <mxGeometry x="5118" y="1070" width="151" height="58" as="geometry" />
    </mxCell>
    <mxCell id="node59" parent="1" vertex="1" value="&lt;p style=&quot;margin:0px;margin-top:4px;text-align:center;&quot;&gt;&lt;b&gt;GUIMain&lt;/b&gt;&lt;/p&gt;&lt;hr size=&quot;1&quot;/&gt;&lt;p style=&quot;margin:0 0 0 4px;line-height:1.6;&quot;&gt;~ scenePane: AnchorPane&lt;/p&gt;&lt;hr size=&quot;1&quot;/&gt;&lt;p style=&quot;margin:0 0 0 4px;line-height:1.6;&quot;&gt;+ run(): void&lt;br/&gt;+ start(Stage): void&lt;br/&gt;+ main(String[]): void&lt;/p&gt;" style="verticalAlign=top;align=left;overflow=fill;fontSize=14;fontFamily=Helvetica;html=1;rounded=0;shadow=0;comic=0;labelBackgroundColor=none;strokeWidth=1;">
      <mxGeometry x="2060" y="663" width="172" height="131" as="geometry" />
    </mxCell>
    <mxCell id="node7" parent="1" vertex="1" value="&lt;p style=&quot;margin:0px;margin-top:4px;text-align:center;&quot;&gt;&lt;b&gt;Game&lt;/b&gt;&lt;/p&gt;&lt;hr size=&quot;1&quot;/&gt;&lt;p style=&quot;margin:0 0 0 4px;line-height:1.6;&quot;&gt;- listeners: ArrayList&amp;lt;VirtualView&amp;gt;&lt;br/&gt;- livingRoom: LivingRoom&lt;br/&gt;- startedGame: boolean&lt;br/&gt;- gameChecker: GameChecker&lt;br/&gt;- finishedGame: boolean&lt;br/&gt;- Players: ArrayList&amp;lt;Player&amp;gt;&lt;br/&gt;- currPlaying: Integer&lt;br/&gt;- gameNumPlayers: Integer&lt;br/&gt;- disconnectedPlayers: ArrayList&amp;lt;Player&amp;gt;&lt;/p&gt;&lt;hr size=&quot;1&quot;/&gt;&lt;p style=&quot;margin:0 0 0 4px;line-height:1.6;&quot;&gt;+ playMove(ArrayList&amp;lt;Integer&amp;gt;, Integer, ArrayList&amp;lt;Integer&amp;gt;): GameSavings&lt;br/&gt;+ isStartedGame(): boolean&lt;br/&gt;+ getWhoIsPlaying(): Integer&lt;br/&gt;+ getPlayers(): ArrayList&amp;lt;Player&amp;gt;&lt;br/&gt;- sortTiles(ArrayList&amp;lt;Integer&amp;gt;): ArrayList&amp;lt;Integer&amp;gt;&lt;br/&gt;- sortRow(ArrayList&amp;lt;Integer&amp;gt;, ArrayList&amp;lt;Integer&amp;gt;): void&lt;br/&gt;- checkNumber(int): boolean&lt;br/&gt;- whoWins(): Player&lt;br/&gt;- checkCGC(): void&lt;br/&gt;+ getGameChecker(): GameChecker&lt;br/&gt;+ setFinishedGame(boolean): void&lt;br/&gt;- setLivingRoomListener(): void&lt;br/&gt;+ setPlayers(ArrayList&amp;lt;Player&amp;gt;): void&lt;br/&gt;- setGameSavings(): GameSavings&lt;br/&gt;+ endGame(): ArrayList&amp;lt;Player&amp;gt;&lt;br/&gt;+ getDisconnectedPlayers(): ArrayList&amp;lt;Player&amp;gt;&lt;br/&gt;+ getLivingRoom(): LivingRoom&lt;br/&gt;+ setLivingRoom(LivingRoom): void&lt;br/&gt;+ getListeners(): ArrayList&amp;lt;VirtualView&amp;gt;&lt;br/&gt;+ checkLegalColumn(int, int): boolean&lt;br/&gt;- isLastTurn(): void&lt;br/&gt;+ setStartedGame(boolean): void&lt;br/&gt;+ startGame(): void&lt;br/&gt;- mixPlayersOrder(List&amp;lt;Player&amp;gt;): ArrayList&amp;lt;Player&amp;gt;&lt;br/&gt;- sortMyTiles(ArrayList&amp;lt;ItemTile&amp;gt;, ArrayList&amp;lt;Integer&amp;gt;): ArrayList&amp;lt;ItemTile&amp;gt;&lt;br/&gt;+ getCurrPlaying(): String&lt;br/&gt;- placeTiles(ArrayList&amp;lt;Integer&amp;gt;, Integer, ArrayList&amp;lt;Integer&amp;gt;): void&lt;br/&gt;+ checkLegalMove(ArrayList&amp;lt;Integer&amp;gt;, int): boolean&lt;br/&gt;+ terminateGame(): void&lt;br/&gt;- checkAlreadyCompleted(): int&lt;br/&gt;- increaseCurrPlaying(): void&lt;br/&gt;- sortColumn(ArrayList&amp;lt;Integer&amp;gt;, ArrayList&amp;lt;Integer&amp;gt;): void&lt;br/&gt;- checkManually(): Player&lt;br/&gt;+ setCurrPlaying(Integer): void&lt;/p&gt;" style="verticalAlign=top;align=left;overflow=fill;fontSize=14;fontFamily=Helvetica;html=1;rounded=0;shadow=0;comic=0;labelBackgroundColor=none;strokeWidth=1;">
      <mxGeometry x="2458" y="2425" width="443" height="979" as="geometry" />
    </mxCell>
    <mxCell id="node1" parent="1" vertex="1" value="&lt;p style=&quot;margin:0px;margin-top:4px;text-align:center;&quot;&gt;&lt;b&gt;GameChecker&lt;/b&gt;&lt;/p&gt;&lt;hr size=&quot;1&quot;/&gt;&lt;p style=&quot;margin:0 0 0 4px;line-height:1.6;&quot;&gt;- maxPickableTiles: int&lt;br/&gt;- legalSelection: boolean&lt;br/&gt;- numPlayers: int&lt;br/&gt;- boardWidth: int&lt;br/&gt;- shelfCols: int&lt;br/&gt;- isYourTurn: boolean&lt;br/&gt;- shelfRows: int&lt;br/&gt;- restorable: boolean&lt;br/&gt;- lastRound: boolean&lt;br/&gt;- L: Launcher&lt;/p&gt;&lt;hr size=&quot;1&quot;/&gt;&lt;p style=&quot;margin:0 0 0 4px;line-height:1.6;&quot;&gt;+ checkColumn(BookShelf, int, int): boolean&lt;br/&gt;- checkFreeSides(BoardToken): boolean&lt;br/&gt;+ GetIsYourTurn(): boolean&lt;br/&gt;- shelfBoxIsEmpty(ItemTile): boolean&lt;br/&gt;+ isLegalAction(BoardToken, BoardToken): boolean&lt;br/&gt;- sameColumn(BoardToken, BoardToken, BoardToken): boolean&lt;br/&gt;- verticallyAdjacent(BoardToken, BoardToken): boolean&lt;br/&gt;- isExternal(BoardToken, BoardToken, BoardToken): boolean&lt;br/&gt;- fifthRowIsFull(BookShelf): boolean&lt;br/&gt;- boardIsEmpty(BoardToken[][]): boolean&lt;br/&gt;- boardTileRight(BoardToken): boolean&lt;br/&gt;+ isBookShelfFull(BookShelf): void&lt;br/&gt;- isExternal(BoardToken): boolean&lt;br/&gt;- boardTileLower(BoardToken): boolean&lt;br/&gt;+ checkColumnCapability(BookShelf): void&lt;br/&gt;- boardTileNoBorderline(BoardToken): boolean&lt;br/&gt;+ getRestorable(): boolean&lt;br/&gt;- boardBoxIsValid(BoardToken): boolean&lt;br/&gt;+ getMaxPickableTiles(): int&lt;br/&gt;- fourthRowIsFull(BookShelf): boolean&lt;br/&gt;- sameRow(BoardToken, BoardToken, BoardToken): boolean&lt;br/&gt;- boardTileLeft(BoardToken): boolean&lt;br/&gt;- boardBoxIsEmpty(BoardToken): boolean&lt;br/&gt;+ isLegalAction(BoardToken): boolean&lt;br/&gt;+ isRestorable(BoardToken[][]): boolean&lt;br/&gt;+ isLegalAction(BoardToken, BoardToken, BoardToken): boolean&lt;br/&gt;- isExternal(BoardToken, BoardToken): boolean&lt;br/&gt;- sixthRowIsFull(BookShelf): boolean&lt;br/&gt;+ getLastRound(): boolean&lt;br/&gt;- horizontallyAdjacent(BoardToken, BoardToken): boolean&lt;br/&gt;+ getMaxPickableTiles(BookShelf): int&lt;br/&gt;- hasNotAdjacentTiles(BoardToken): boolean&lt;br/&gt;- sameColumn(BoardToken, BoardToken): boolean&lt;br/&gt;- horizontallyAdjacent(BoardToken, BoardToken, BoardToken): boolean&lt;br/&gt;+ getLegalSelection(): boolean&lt;br/&gt;- sameRow(BoardToken, BoardToken): boolean&lt;br/&gt;- boardTileUpper(BoardToken): boolean&lt;br/&gt;- verticallyAdjacent(BoardToken, BoardToken, BoardToken): boolean&lt;/p&gt;" style="verticalAlign=top;align=left;overflow=fill;fontSize=14;fontFamily=Helvetica;html=1;rounded=0;shadow=0;comic=0;labelBackgroundColor=none;strokeWidth=1;">
      <mxGeometry x="4611" y="2061" width="417" height="1089" as="geometry" />
    </mxCell>
    <mxCell id="node65" parent="1" vertex="1" value="&lt;p style=&quot;margin:0px;margin-top:4px;text-align:center;&quot;&gt;&lt;b&gt;GameCheckerTest&lt;/b&gt;&lt;/p&gt;&lt;hr size=&quot;1&quot;/&gt;&lt;p style=&quot;margin:0 0 0 4px;line-height:1.6;&quot;&gt;+ testTestIsLegalAction(): void&lt;br/&gt;+ testCheckColumnCapability(): void&lt;br/&gt;+ testIsLegalAction(): void&lt;br/&gt;+ testTestIsLegalAction1(): void&lt;br/&gt;+ testIsRestorable(): void&lt;/p&gt;" style="verticalAlign=top;align=left;overflow=fill;fontSize=14;fontFamily=Helvetica;html=1;rounded=0;shadow=0;comic=0;labelBackgroundColor=none;strokeWidth=1;">
      <mxGeometry x="538" y="1709" width="229" height="142" as="geometry" />
    </mxCell>
    <mxCell id="node88" parent="1" vertex="1" value="&lt;p style=&quot;margin:0px;margin-top:4px;text-align:center;&quot;&gt;&lt;b&gt;GameController&lt;/b&gt;&lt;/p&gt;&lt;hr size=&quot;1&quot;/&gt;&lt;p style=&quot;margin:0 0 0 4px;line-height:1.6;&quot;&gt;- order: ArrayList&amp;lt;Integer&amp;gt;&lt;br/&gt;- gson: Gson&lt;br/&gt;- coordinates: ArrayList&amp;lt;Integer&amp;gt;&lt;br/&gt;- launcher: Launcher&lt;br/&gt;- game: Game&lt;br/&gt;- column: Integer&lt;br/&gt;- players: ArrayList&amp;lt;Player&amp;gt;&lt;br/&gt;- startedGame: boolean&lt;/p&gt;&lt;hr size=&quot;1&quot;/&gt;&lt;p style=&quot;margin:0 0 0 4px;line-height:1.6;&quot;&gt;+ readMessage(ClientMessage): Message&lt;br/&gt;+ getDisconnectedPlayers(): ArrayList&amp;lt;Player&amp;gt;&lt;br/&gt;+ getGame(): Game&lt;br/&gt;+ getOrder(): ArrayList&amp;lt;Integer&amp;gt;&lt;br/&gt;+ getColumn(): Integer&lt;br/&gt;+ terminateGame(): void&lt;br/&gt;+ getCoordinates(): ArrayList&amp;lt;Integer&amp;gt;&lt;br/&gt;+ getPlayers(): ArrayList&amp;lt;Player&amp;gt;&lt;br/&gt;- sendErrorMessage(): Message&lt;br/&gt;+ playMove(): GameSavings&lt;br/&gt;+ setColumn(Integer): void&lt;br/&gt;+ setGame(GameSavings): void&lt;br/&gt;+ startGame(): void&lt;br/&gt;- checkNumbers(): boolean&lt;br/&gt;+ isStartedGame(): boolean&lt;br/&gt;+ getLauncher(): Launcher&lt;br/&gt;- checkOrder(): boolean&lt;br/&gt;- sendErrorMessage(String): Message&lt;br/&gt;+ endGame(): ArrayList&amp;lt;Player&amp;gt;&lt;/p&gt;" style="verticalAlign=top;align=left;overflow=fill;fontSize=14;fontFamily=Helvetica;html=1;rounded=0;shadow=0;comic=0;labelBackgroundColor=none;strokeWidth=1;">
      <mxGeometry x="3421" y="1903" width="284" height="627" as="geometry" />
    </mxCell>
    <mxCell id="node135" parent="1" vertex="1" value="&lt;p style=&quot;margin:0px;margin-top:4px;text-align:center;&quot;&gt;&lt;b&gt;GameControllerGUI&lt;/b&gt;&lt;/p&gt;&lt;hr size=&quot;1&quot;/&gt;&lt;p style=&quot;margin:0 0 0 4px;line-height:1.6;&quot;&gt;~ myGridPane_container: GridPane&lt;br/&gt;~ myGridPane_lr: GridPane&lt;br/&gt;- bookshelf: BookShelf&lt;br/&gt;- player: Player&lt;br/&gt;+ LivingRoomSize: int&lt;br/&gt;- currentPlayer: String&lt;br/&gt;- shelfRows: int&lt;br/&gt;- receiver: GUIEvent&lt;br/&gt;~ bsImage: GridPane&lt;br/&gt;- stage: Stage&lt;br/&gt;- currPlaying: int&lt;br/&gt;~ myGridPane_columns: GridPane&lt;br/&gt;- root: Parent&lt;br/&gt;- endgame: boolean&lt;br/&gt;- seed: Integer&lt;br/&gt;~ myGridPane_bs: GridPane&lt;br/&gt;- commonGoalCard1: CommonGoalCard&lt;br/&gt;- tiles: List&amp;lt;ItemTile&amp;gt;&lt;br/&gt;- players: List&amp;lt;Player&amp;gt;&lt;br/&gt;- livingRoom: LivingRoom&lt;br/&gt;- scene: Scene&lt;br/&gt;- currentIstance: GameControllerGUI&lt;br/&gt;- commonGoalCard2: CommonGoalCard&lt;br/&gt;- response: ServerMessage&lt;br/&gt;- shelfCols: int&lt;br/&gt;- winner: String&lt;br/&gt;- currPlayer: int&lt;br/&gt;- image: Image&lt;br/&gt;- connectionClient: ConnectionClient&lt;/p&gt;&lt;hr size=&quot;1&quot;/&gt;&lt;p style=&quot;margin:0 0 0 4px;line-height:1.6;&quot;&gt;+ returnToMenu(ActionEvent): void&lt;br/&gt;+ setCurrentPlayer(String): void&lt;br/&gt;+ pickTiles(): void&lt;br/&gt;+ setResponse(ServerMessage): void&lt;br/&gt;+ getPlayersList(): List&amp;lt;Player&amp;gt;&lt;br/&gt;+ goToGoals(ActionEvent): void&lt;br/&gt;- createCommonGoalCard2(Integer): void&lt;br/&gt;+ getPlayers(): List&amp;lt;Player&amp;gt;&lt;br/&gt;- createCommonGoalCard1(Integer): void&lt;br/&gt;+ selectColumn(): void&lt;br/&gt;+ setReceiver(GUIEvent): void&lt;br/&gt;+ chooseCategoryImage(ItemTile): Image&lt;br/&gt;+ setSeed(Integer): void&lt;br/&gt;+ setLivingRoom(LivingRoom): void&lt;br/&gt;- getCurrentIstance(): GameControllerGUI&lt;br/&gt;+ setConnectionClient(ConnectionClient): void&lt;br/&gt;+ getPlayer(): Player&lt;br/&gt;+ setStage(Stage): void&lt;br/&gt;+ startGame(): void&lt;br/&gt;+ getConnectionClient(): ConnectionClient&lt;br/&gt;+ putTiles(): void&lt;br/&gt;+ refreshScene(GridPane): void&lt;br/&gt;+ setCurrPlaying(int): void&lt;br/&gt;+ setWinner(String): void&lt;br/&gt;+ setPlayers(List&amp;lt;Player&amp;gt;): void&lt;br/&gt;+ getSeed(): Integer&lt;br/&gt;+ setPlayer(Player): void&lt;br/&gt;+ displayLivingroom(): void&lt;br/&gt;+ getLivingRoom(): LivingRoom&lt;/p&gt;" style="verticalAlign=top;align=left;overflow=fill;fontSize=14;fontFamily=Helvetica;html=1;rounded=0;shadow=0;comic=0;labelBackgroundColor=none;strokeWidth=1;">
      <mxGeometry x="9326" y="747" width="280" height="1309" as="geometry" />
    </mxCell>
    <mxCell id="node78" parent="1" vertex="1" value="&lt;p style=&quot;margin:0px;margin-top:4px;text-align:center;&quot;&gt;&lt;b&gt;GameControllerTest&lt;/b&gt;&lt;/p&gt;&lt;hr size=&quot;1&quot;/&gt;&lt;p style=&quot;margin:0 0 0 4px;line-height:1.6;&quot;&gt;+ testReadMessage_THIRD(): void&lt;br/&gt;+ testStartGameGC_FIRST(): void&lt;br/&gt;+ testPlayMoveGC_SECOND(): void&lt;br/&gt;+ testReadMessage_SECOND(): void&lt;br/&gt;+ testReadMessage_SIXTH(): void&lt;br/&gt;+ testReadMessage_ELEVENTH(): void&lt;br/&gt;+ testReadMessage_FOURTH(): void&lt;br/&gt;+ testReadMessage_TENTH(): void&lt;br/&gt;+ testReadMessage_EIGHTH(): void&lt;br/&gt;+ testReadMessage_FIRST(): void&lt;br/&gt;+ testReadMessage_NINTH(): void&lt;br/&gt;+ testStartGameGC_THIRD(): void&lt;br/&gt;+ testReadMessage_TWELFTH(): void&lt;br/&gt;+ testEndgameGC_FIRST(): void&lt;br/&gt;+ testEndgameGC_SECOND(): void&lt;br/&gt;+ testReadMessage_SEVENTH(): void&lt;br/&gt;+ testStartGameGC_SECOND(): void&lt;br/&gt;+ testReadMessage_FIFTH(): void&lt;/p&gt;" style="verticalAlign=top;align=left;overflow=fill;fontSize=14;fontFamily=Helvetica;html=1;rounded=0;shadow=0;comic=0;labelBackgroundColor=none;strokeWidth=1;">
      <mxGeometry x="9007" y="1503" width="238" height="428" as="geometry" />
    </mxCell>
    <mxCell id="node56" parent="1" vertex="1" value="&lt;p style=&quot;margin:0px;margin-top:4px;text-align:center;&quot;&gt;&lt;b&gt;GameHandler&lt;/b&gt;&lt;/p&gt;&lt;hr size=&quot;1&quot;/&gt;&lt;p style=&quot;margin:0 0 0 4px;line-height:1.6;&quot;&gt;- currentPlayer: String&lt;br/&gt;- players: ArrayList&amp;lt;Player&amp;gt;&lt;br/&gt;- endgame: boolean&lt;br/&gt;- seed: Integer&lt;br/&gt;- livingRoom: LivingRoom&lt;br/&gt;- tiles: ArrayList&amp;lt;ItemTile&amp;gt;&lt;br/&gt;- RESET: String&lt;br/&gt;- BLUE: String&lt;br/&gt;- connectionClient: ConnectionClient&lt;br/&gt;- shelfCols: int&lt;br/&gt;- commonGoalCard1: CommonGoalCard&lt;br/&gt;- YELLOW: String&lt;br/&gt;- response: ServerMessage&lt;br/&gt;- WHITE: String&lt;br/&gt;- CHAIR: String&lt;br/&gt;- CYAN: String&lt;br/&gt;- PINK: String&lt;br/&gt;- GREEN: String&lt;br/&gt;- winner: String&lt;br/&gt;- commonGoalCard2: CommonGoalCard&lt;br/&gt;+ LivingRoomSize: int&lt;br/&gt;- CLS: String&lt;br/&gt;- shelfRows: int&lt;br/&gt;- currPlaying: int&lt;br/&gt;- WOOD: String&lt;br/&gt;- personalGoalCard: BookShelf&lt;br/&gt;- player: Player&lt;/p&gt;&lt;hr size=&quot;1&quot;/&gt;&lt;p style=&quot;margin:0 0 0 4px;line-height:1.6;&quot;&gt;+ setLivingRoom(LivingRoom): void&lt;br/&gt;- showEnd(): void&lt;br/&gt;- showBookshelf(): void&lt;br/&gt;- createCommonGoalCard1(Integer): void&lt;br/&gt;- showBookshelfColumn(): void&lt;br/&gt;- printBoard(): void&lt;br/&gt;- createCommonGoalCard2(Integer): void&lt;br/&gt;+ setCurrPlaying(int): void&lt;br/&gt;+ getPlayer(): Player&lt;br/&gt;- printPersonalGoalCard(): void&lt;br/&gt;+ getCommonGoalCard1(): CommonGoalCard&lt;br/&gt;- waiting(): void&lt;br/&gt;+ getCommonGoalCard2(): CommonGoalCard&lt;br/&gt;+ buildPersonalGoalCard(): void&lt;br/&gt;- printSelection(): void&lt;br/&gt;+ setPlayers(ArrayList&amp;lt;Player&amp;gt;): void&lt;br/&gt;+ getConnectionClient(): ConnectionClient&lt;br/&gt;- printBookshelf(): void&lt;br/&gt;+ setBoard(BoardToken[][]): void&lt;br/&gt;+ setCurrentPlayer(String): void&lt;br/&gt;- showGoals(String): void&lt;br/&gt;+ start(): void&lt;br/&gt;+ setSeed(Integer): void&lt;br/&gt;+ setWinner(String): void&lt;br/&gt;+ setEndgame(boolean): void&lt;br/&gt;- showBoard(): void&lt;br/&gt;+ setPlayer(Player): void&lt;br/&gt;+ setResponse(ServerMessage): void&lt;br/&gt;- showBookshelfOrder(): void&lt;/p&gt;" style="verticalAlign=top;align=left;overflow=fill;fontSize=14;fontFamily=Helvetica;html=1;rounded=0;shadow=0;comic=0;labelBackgroundColor=none;strokeWidth=1;">
      <mxGeometry x="5243" y="1539" width="283" height="1265" as="geometry" />
    </mxCell>
    <mxCell id="node11" parent="1" vertex="1" value="&lt;p style=&quot;margin:0px;margin-top:4px;text-align:center;&quot;&gt;&lt;b&gt;GameIsStartingMessage&lt;/b&gt;&lt;/p&gt;&lt;hr size=&quot;1&quot;/&gt;&lt;p style=&quot;margin:0 0 0 4px;line-height:1.6;&quot;&gt;- livingRoom: LivingRoom&lt;br/&gt;- isPlaying: Integer&lt;br/&gt;- players: ArrayList&amp;lt;Player&amp;gt;&lt;br/&gt;- currPlaying: String&lt;br/&gt;- commonGoalCard1: CommonGoalCard&lt;br/&gt;- commonGoalCard2: CommonGoalCard&lt;/p&gt;&lt;hr size=&quot;1&quot;/&gt;&lt;p style=&quot;margin:0 0 0 4px;line-height:1.6;&quot;&gt;+ setLivingRoom(LivingRoom): void&lt;br/&gt;+ getPlayers(): ArrayList&amp;lt;Player&amp;gt;&lt;br/&gt;+ getLivingRoom(): LivingRoom&lt;br/&gt;+ setPlayers(ArrayList&amp;lt;Player&amp;gt;): void&lt;br/&gt;+ getCommonGoalCard1(): CommonGoalCard&lt;br/&gt;+ setCurrPlaying(String): void&lt;br/&gt;+ getCommonGoalCard2(): CommonGoalCard&lt;br/&gt;+ getIsPlaying(): Integer&lt;br/&gt;+ setCommonGoalCard2(CommonGoalCard): void&lt;br/&gt;+ getCurrPlaying(): String&lt;br/&gt;+ setCommonGoalCard1(CommonGoalCard): void&lt;/p&gt;" style="verticalAlign=top;align=left;overflow=fill;fontSize=14;fontFamily=Helvetica;html=1;rounded=0;shadow=0;comic=0;labelBackgroundColor=none;strokeWidth=1;">
      <mxGeometry x="2739" y="585" width="302" height="407" as="geometry" />
    </mxCell>
    <mxCell id="node5" parent="1" vertex="1" value="&lt;p style=&quot;margin:0px;margin-top:4px;text-align:center;&quot;&gt;&lt;b&gt;GameSavings&lt;/b&gt;&lt;/p&gt;&lt;hr size=&quot;1&quot;/&gt;&lt;p style=&quot;margin:0 0 0 4px;line-height:1.6;&quot;&gt;- numPlayers: Integer&lt;br/&gt;- players: ArrayList&amp;lt;Player&amp;gt;&lt;br/&gt;- commonGoalCard1: Integer&lt;br/&gt;- finishedGame: boolean&lt;br/&gt;- commonGoalCard2: Integer&lt;br/&gt;- currPlaying: Integer&lt;br/&gt;- livingRoom: LivingRoom&lt;br/&gt;- startedGame: boolean&lt;/p&gt;&lt;hr size=&quot;1&quot;/&gt;&lt;p style=&quot;margin:0 0 0 4px;line-height:1.6;&quot;&gt;+ setLivingRoom(LivingRoom): void&lt;br/&gt;+ setStartedGame(boolean): void&lt;br/&gt;+ setFinishedGame(boolean): void&lt;br/&gt;+ getCommonGoalCard2(): Integer&lt;br/&gt;+ setNumPlayers(Integer): void&lt;br/&gt;+ getLivingRoom(): LivingRoom&lt;br/&gt;+ isStartedGame(): boolean&lt;br/&gt;+ isFinishedGame(): boolean&lt;br/&gt;+ getCurrPlaying(): int&lt;br/&gt;+ setCommonGoalCard2(Integer): void&lt;br/&gt;+ getNumPlayers(): Integer&lt;br/&gt;+ setCommonGoalCard1(Integer): void&lt;br/&gt;+ getPlayers(): ArrayList&amp;lt;Player&amp;gt;&lt;br/&gt;+ getCommonGoalCard1(): Integer&lt;br/&gt;+ setCurrPlaying(int): void&lt;/p&gt;" style="verticalAlign=top;align=left;overflow=fill;fontSize=14;fontFamily=Helvetica;html=1;rounded=0;shadow=0;comic=0;labelBackgroundColor=none;strokeWidth=1;">
      <mxGeometry x="5612" y="1205" width="242" height="539" as="geometry" />
    </mxCell>
    <mxCell id="node115" parent="1" vertex="1" value="&lt;p style=&quot;margin:0px;margin-top:4px;text-align:center;&quot;&gt;&lt;b&gt;GameTest&lt;/b&gt;&lt;/p&gt;&lt;hr size=&quot;1&quot;/&gt;&lt;p style=&quot;margin:0 0 0 4px;line-height:1.6;&quot;&gt;+ testEndgame_FIRST(): void&lt;br/&gt;+ testPlayMove_SIXTH(): void&lt;br/&gt;+ testCheckColumn_SECOND(): void&lt;br/&gt;+ testPlayMove_SEVENTH(): void&lt;br/&gt;+ testCheckLegalMove_SECOND(): void&lt;br/&gt;+ testCheckLegalMove_SIXTH(): void&lt;br/&gt;+ testCheckLegalMove_FOURTH(): void&lt;br/&gt;+ testPlayMove_THIRD(): void&lt;br/&gt;+ testPlayMove_SECOND(): void&lt;br/&gt;+ testCheckLegalMove_THIRD(): void&lt;br/&gt;+ testPlayMove_FOURTH(): void&lt;br/&gt;+ testCheckLegalMove_FIFTH(): void&lt;br/&gt;+ testCheckLegalMove_SEVENTH(): void&lt;br/&gt;+ testCheckColumn_FIRST(): void&lt;br/&gt;+ testCheckLegalMove_FIRST(): void&lt;br/&gt;+ testStartGameG_THIRD(): void&lt;br/&gt;+ testEndgame_SECOND(): void&lt;br/&gt;+ testStartGameG_SECOND(): void&lt;br/&gt;+ testStartGameG_FIRST(): void&lt;br/&gt;+ testPlayMove_FIFTH(): void&lt;/p&gt;" style="verticalAlign=top;align=left;overflow=fill;fontSize=14;fontFamily=Helvetica;html=1;rounded=0;shadow=0;comic=0;labelBackgroundColor=none;strokeWidth=1;">
      <mxGeometry x="6685" y="2497" width="248" height="472" as="geometry" />
    </mxCell>
    <mxCell id="node52" parent="1" vertex="1" value="&lt;p style=&quot;margin:0px;margin-top:4px;text-align:center;&quot;&gt;&lt;b&gt;GoalsController&lt;/b&gt;&lt;/p&gt;&lt;hr size=&quot;1&quot;/&gt;&lt;p style=&quot;margin:0 0 0 4px;line-height:1.6;&quot;&gt;- gameControllerGUI: GameControllerGUI&lt;br/&gt;~ pointsCGC1: ImageView&lt;br/&gt;~ personalGoalCard: ImageView&lt;br/&gt;~ commonGoalCard2: ImageView&lt;br/&gt;- image: Image&lt;br/&gt;~ commonGoalCard1: ImageView&lt;br/&gt;~ pointsCGC2: ImageView&lt;/p&gt;&lt;hr size=&quot;1&quot;/&gt;&lt;p style=&quot;margin:0 0 0 4px;line-height:1.6;&quot;&gt;+ getGameControllerGUI(): GameControllerGUI&lt;br/&gt;+ displayPoints(): void&lt;br/&gt;+ displayPersonalGoal(): void&lt;br/&gt;+ displayImage(ImageView, Image): void&lt;br/&gt;+ goToLivingroom(ActionEvent): void&lt;br/&gt;+ setGameControllerGUI(GameControllerGUI): void&lt;br/&gt;+ displayCommonGoal(): void&lt;/p&gt;" style="verticalAlign=top;align=left;overflow=fill;fontSize=14;fontFamily=Helvetica;html=1;rounded=0;shadow=0;comic=0;labelBackgroundColor=none;strokeWidth=1;">
      <mxGeometry x="4008" y="1769" width="306" height="341" as="geometry" />
    </mxCell>
    <mxCell id="node102" parent="1" vertex="1" value="&lt;p style=&quot;margin:0px;margin-top:4px;text-align:center;&quot;&gt;&lt;b&gt;ItemTile&lt;/b&gt;&lt;/p&gt;&lt;hr size=&quot;1&quot;/&gt;&lt;p style=&quot;margin:0 0 0 4px;line-height:1.6;&quot;&gt;- category: ItemTileCategory&lt;/p&gt;&lt;hr size=&quot;1&quot;/&gt;&lt;p style=&quot;margin:0 0 0 4px;line-height:1.6;&quot;&gt;+ getCategory(): ItemTileCategory&lt;/p&gt;" style="verticalAlign=top;align=left;overflow=fill;fontSize=14;fontFamily=Helvetica;html=1;rounded=0;shadow=0;comic=0;labelBackgroundColor=none;strokeWidth=1;">
      <mxGeometry x="-119" y="1074" width="220" height="83" as="geometry" />
    </mxCell>
    <mxCell id="node127" parent="1" vertex="1" value="&lt;p style=&quot;margin:0px;margin-top:4px;text-align:center;&quot;&gt;&lt;i&gt;&amp;lt;&amp;lt;enumeration&amp;gt;&amp;gt;&lt;/i&gt;&lt;br/&gt;&lt;b&gt;ItemTileCategory&lt;/b&gt;&lt;/p&gt;&lt;hr size=&quot;1&quot;/&gt;&lt;p style=&quot;margin:0 0 0 4px;line-height:1.6;&quot;&gt;+ TROPHIES: &lt;br/&gt;+ GAMES: &lt;br/&gt;+ FRAMES: &lt;br/&gt;+ PLANTS: &lt;br/&gt;+ CATS: &lt;br/&gt;+ BOOKS: &lt;/p&gt;&lt;hr size=&quot;1&quot;/&gt;&lt;p style=&quot;margin:0 0 0 4px;line-height:1.6;&quot;&gt;+ values(): ItemTileCategory[]&lt;br/&gt;+ valueOf(String): ItemTileCategory&lt;/p&gt;" style="verticalAlign=top;align=left;overflow=fill;fontSize=14;fontFamily=Helvetica;html=1;rounded=0;shadow=0;comic=0;labelBackgroundColor=none;strokeWidth=1;">
      <mxGeometry x="2169" y="2275" width="223" height="209" as="geometry" />
    </mxCell>
    <mxCell id="node80" parent="1" vertex="1" value="&lt;p style=&quot;margin:0px;margin-top:4px;text-align:center;&quot;&gt;&lt;b&gt;LastTurnMessage&lt;/b&gt;&lt;/p&gt;&lt;hr size=&quot;1&quot;/&gt;" style="verticalAlign=top;align=left;overflow=fill;fontSize=14;fontFamily=Helvetica;html=1;rounded=0;shadow=0;comic=0;labelBackgroundColor=none;strokeWidth=1;">
      <mxGeometry x="5708" y="511" width="159" height="31" as="geometry" />
    </mxCell>
    <mxCell id="node53" parent="1" vertex="1" value="&lt;p style=&quot;margin:0px;margin-top:4px;text-align:center;&quot;&gt;&lt;b&gt;Launcher&lt;/b&gt;&lt;/p&gt;&lt;hr size=&quot;1&quot;/&gt;&lt;p style=&quot;margin:0 0 0 4px;line-height:1.6;&quot;&gt;- host: Player&lt;br/&gt;- numPlayers: int&lt;br/&gt;- players: ArrayList&amp;lt;Player&amp;gt;&lt;/p&gt;&lt;hr size=&quot;1&quot;/&gt;&lt;p style=&quot;margin:0 0 0 4px;line-height:1.6;&quot;&gt;+ addPlayer(Player): void&lt;br/&gt;+ getNumPlayers(): int&lt;br/&gt;+ addPlayers(ArrayList&amp;lt;Player&amp;gt;): void&lt;br/&gt;+ setNumPlayers(int): void&lt;br/&gt;+ getPlayers(): ArrayList&amp;lt;Player&amp;gt;&lt;/p&gt;" style="verticalAlign=top;align=left;overflow=fill;fontSize=14;fontFamily=Helvetica;html=1;rounded=0;shadow=0;comic=0;labelBackgroundColor=none;strokeWidth=1;">
      <mxGeometry x="8092" y="1694" width="237" height="209" as="geometry" />
    </mxCell>
    <mxCell id="node121" parent="1" vertex="1" value="&lt;p style=&quot;margin:0px;margin-top:4px;text-align:center;&quot;&gt;&lt;b&gt;LivingRoom&lt;/b&gt;&lt;/p&gt;&lt;hr size=&quot;1&quot;/&gt;&lt;p style=&quot;margin:0 0 0 4px;line-height:1.6;&quot;&gt;- commonGoalCard1: CommonGoalCard&lt;br/&gt;+ MAX_Row: int&lt;br/&gt;- L: Launcher&lt;br/&gt;- commonGoalCard2: CommonGoalCard&lt;br/&gt;- idCGC1: Integer&lt;br/&gt;- Board: BoardToken[][]&lt;br/&gt;- pointsCGD2: int&lt;br/&gt;- commonGoalCards: ArrayList&amp;lt;CGCKey&amp;gt;&lt;br/&gt;- pointsCGD1: int&lt;br/&gt;~ listeners: ArrayList&amp;lt;PropertyChangeListener&amp;gt;&lt;br/&gt;- idCGC2: Integer&lt;br/&gt;+ MAX_Column: int&lt;br/&gt;- bag: Bag&lt;br/&gt;- gameChecker: GameChecker&lt;/p&gt;&lt;hr size=&quot;1&quot;/&gt;&lt;p style=&quot;margin:0 0 0 4px;line-height:1.6;&quot;&gt;+ setCommonGoalCard2(CommonGoalCard): void&lt;br/&gt;+ setCommonGoalCard1(CommonGoalCard): void&lt;br/&gt;- SetFour(): void&lt;br/&gt;+ setGameChecker(GameChecker): void&lt;br/&gt;- SetThree(): void&lt;br/&gt;+ getPointsCGD1(): int&lt;br/&gt;+ getBag(): Bag&lt;br/&gt;+ setListeners(ArrayList&amp;lt;VirtualView&amp;gt;): void&lt;br/&gt;- setUTopLeft(): void&lt;br/&gt;- SetUnavailable(): void&lt;br/&gt;- SetCol(): void&lt;br/&gt;+ setBoard(BoardToken[][]): void&lt;br/&gt;- SetRow(): void&lt;br/&gt;+ getIdCGC2(): Integer&lt;br/&gt;+ getBoardTile(int, int): BoardToken&lt;br/&gt;+ getGameChecker(): GameChecker&lt;br/&gt;- setUDownLeft(): void&lt;br/&gt;+ getPointsCGD2(): int&lt;br/&gt;+ getListener(): ArrayList&amp;lt;PropertyChangeListener&amp;gt;&lt;br/&gt;+ getIdCGC1(): Integer&lt;br/&gt;- setUTopRight(): void&lt;br/&gt;+ setIdCGC1(Integer): void&lt;br/&gt;- SetCommonGoalCard(): void&lt;br/&gt;+ getTiles(ArrayList&amp;lt;Integer&amp;gt;): ArrayList&amp;lt;ItemTile&amp;gt;&lt;br/&gt;+ SetBoard(): void&lt;br/&gt;+ putTile(int, int): BoardToken[][]&lt;br/&gt;+ restore(): void&lt;br/&gt;+ setIdCGC2(Integer): void&lt;br/&gt;+ buildTiles(): void&lt;br/&gt;+ checkCG(BookShelf): int&lt;br/&gt;+ start(int): void&lt;br/&gt;- setUDownRight(): void&lt;br/&gt;+ setLauncher(Launcher): void&lt;br/&gt;+ getCommonGoalCard2(): CommonGoalCard&lt;br/&gt;+ getCommonGoalCard1(): CommonGoalCard&lt;br/&gt;+ getBoard(): BoardToken[][]&lt;/p&gt;" style="verticalAlign=top;align=left;overflow=fill;fontSize=14;fontFamily=Helvetica;html=1;rounded=0;shadow=0;comic=0;labelBackgroundColor=none;strokeWidth=1;">
      <mxGeometry x="5926" y="1294" width="312" height="1133" as="geometry" />
    </mxCell>
    <mxCell id="node44" parent="1" vertex="1" value="&lt;p style=&quot;margin:0px;margin-top:4px;text-align:center;&quot;&gt;&lt;b&gt;LivingRoomMessage&lt;/b&gt;&lt;/p&gt;&lt;hr size=&quot;1&quot;/&gt;&lt;p style=&quot;margin:0 0 0 4px;line-height:1.6;&quot;&gt;- Board: BoardToken[][]&lt;/p&gt;&lt;hr size=&quot;1&quot;/&gt;&lt;p style=&quot;margin:0 0 0 4px;line-height:1.6;&quot;&gt;+ getBoard(): BoardToken[][]&lt;br/&gt;- getBoardTile(int, int): BoardToken&lt;/p&gt;" style="verticalAlign=top;align=left;overflow=fill;fontSize=14;fontFamily=Helvetica;html=1;rounded=0;shadow=0;comic=0;labelBackgroundColor=none;strokeWidth=1;">
      <mxGeometry x="919" y="1071" width="228" height="107" as="geometry" />
    </mxCell>
    <mxCell id="node21" parent="1" vertex="1" value="&lt;p style=&quot;margin:0px;margin-top:4px;text-align:center;&quot;&gt;&lt;b&gt;LivingRoomTest&lt;/b&gt;&lt;/p&gt;&lt;hr size=&quot;1&quot;/&gt;&lt;p style=&quot;margin:0 0 0 4px;line-height:1.6;&quot;&gt;+ testCorrectLivingRoom1(): void&lt;br/&gt;+ testPutTile1(): void&lt;br/&gt;+ testNullTileAfterExtraction_FIRST(): void&lt;br/&gt;+ testPutTile7(): void&lt;br/&gt;+ testPutTile11(): void&lt;br/&gt;+ testPutTile5(): void&lt;br/&gt;+ testPutTile6(): void&lt;br/&gt;+ testPutTile9(): void&lt;br/&gt;+ testPutTile10(): void&lt;br/&gt;+ testPutTile12(): void&lt;br/&gt;+ testNullTileAfterExtraction_THIRD(): void&lt;br/&gt;+ testNullTileAfterExtraction_SECOND(): void&lt;br/&gt;+ testCorrectLivingRoom3(): void&lt;br/&gt;+ testPutTile8(): void&lt;br/&gt;+ testNullTileAfterExtraction_FOURTH(): void&lt;br/&gt;+ testCorrectLivingRoom2(): void&lt;br/&gt;+ testCorrectLivingRoom4(): void&lt;br/&gt;+ testPutTile4(): void&lt;br/&gt;+ testPutTile2(): void&lt;br/&gt;+ testPutTile3(): void&lt;/p&gt;" style="verticalAlign=top;align=left;overflow=fill;fontSize=14;fontFamily=Helvetica;html=1;rounded=0;shadow=0;comic=0;labelBackgroundColor=none;strokeWidth=1;">
      <mxGeometry x="2903" y="1828" width="274" height="472" as="geometry" />
    </mxCell>
    <mxCell id="node16" parent="1" vertex="1" value="&lt;p style=&quot;margin:0px;margin-top:4px;text-align:center;&quot;&gt;&lt;b&gt;Lobby&lt;/b&gt;&lt;/p&gt;&lt;hr size=&quot;1&quot;/&gt;&lt;p style=&quot;margin:0 0 0 4px;line-height:1.6;&quot;&gt;- fullLobby: Boolean&lt;br/&gt;- joinedUsers: ArrayList&amp;lt;String&amp;gt;&lt;br/&gt;- idLobby: Integer&lt;br/&gt;- NumPlayersLobby: Integer&lt;br/&gt;- myObj: File&lt;br/&gt;- startedGame: Boolean&lt;br/&gt;- controllerCoordinator: ControllerCoordinator&lt;br/&gt;- saveFilePath: String&lt;br/&gt;- connections: ArrayList&amp;lt;ServerConnection&amp;gt;&lt;/p&gt;&lt;hr size=&quot;1&quot;/&gt;&lt;p style=&quot;margin:0 0 0 4px;line-height:1.6;&quot;&gt;+ getFullLobby(): Boolean&lt;br/&gt;+ getConnections(): ArrayList&amp;lt;ServerConnection&amp;gt;&lt;br/&gt;+ getJoinedUsers(): ArrayList&amp;lt;String&amp;gt;&lt;br/&gt;- saveGame(ValidMoveMessage): void&lt;br/&gt;+ getStartedGame(): Boolean&lt;br/&gt;+ restartGame(): void&lt;br/&gt;+ addUser(ServerConnection, String, VirtualView): void&lt;br/&gt;- setSavesOfTheLobby(): void&lt;br/&gt;+ getNumPlayersLobby(): Integer&lt;br/&gt;+ endGame(): void&lt;br/&gt;+ startGameLobby(): void&lt;br/&gt;+ sendMessageToAllTheLobby(ServerMessage): void&lt;br/&gt;+ getIdLobby(): Integer&lt;br/&gt;+ reloadGame(GameSavings): void&lt;br/&gt;- deleteFile(): void&lt;br/&gt;+ removePlayer(ServerConnection, String): void&lt;br/&gt;# deleteLobby(): void&lt;br/&gt;+ getPlayer(String): Player&lt;br/&gt;+ getDisconnectedPlayers(): ArrayList&amp;lt;Player&amp;gt;&lt;br/&gt;+ setFullLobby(Boolean): void&lt;br/&gt;+ reconnectPlayer(ServerConnection, String): void&lt;br/&gt;+ logoutFromLobby(String): void&lt;br/&gt;+ receiveMessage(ClientMessage): Message&lt;/p&gt;" style="verticalAlign=top;align=left;overflow=fill;fontSize=14;fontFamily=Helvetica;html=1;rounded=0;shadow=0;comic=0;labelBackgroundColor=none;strokeWidth=1;">
      <mxGeometry x="1700" y="1922" width="325" height="737" as="geometry" />
    </mxCell>
    <mxCell id="node66" parent="1" vertex="1" value="&lt;p style=&quot;margin:0px;margin-top:4px;text-align:center;&quot;&gt;&lt;b&gt;LobbyChoiceController&lt;/b&gt;&lt;/p&gt;&lt;hr size=&quot;1&quot;/&gt;&lt;p style=&quot;margin:0 0 0 4px;line-height:1.6;&quot;&gt;- number: String[]&lt;br/&gt;- root: Parent&lt;br/&gt;- scene: Scene&lt;br/&gt;- PlayersCounter: Integer&lt;br/&gt;- gameControllerGUI: GameControllerGUI&lt;br/&gt;~ command: String&lt;br/&gt;- nameDisplay: Label&lt;br/&gt;- connectionClient: ConnectionClient&lt;br/&gt;~ lobby_size: String&lt;br/&gt;- receiver: GUIEvent&lt;br/&gt;- playerNumber: ChoiceBox&amp;lt;String&amp;gt;&lt;br/&gt;- stage: Stage&lt;br/&gt;- nickname: String&lt;br/&gt;- response: ServerMessage&lt;/p&gt;&lt;hr size=&quot;1&quot;/&gt;&lt;p style=&quot;margin:0 0 0 4px;line-height:1.6;&quot;&gt;+ createLobby(ActionEvent): void&lt;br/&gt;+ setReceiver(GUIEvent): void&lt;br/&gt;+ setConnection(ConnectionClient): void&lt;br/&gt;+ getPlayersCounter(): Integer&lt;br/&gt;- checklobbies(): boolean&lt;br/&gt;+ joinLobby(ActionEvent): void&lt;br/&gt;+ setPlayersCounter(int): void&lt;br/&gt;+ setResponse(ServerMessage): void&lt;br/&gt;+ returnToMenu(ActionEvent): void&lt;br/&gt;+ displayNickname(String): void&lt;br/&gt;+ initialize(URL, ResourceBundle): void&lt;/p&gt;" style="verticalAlign=top;align=left;overflow=fill;fontSize=14;fontFamily=Helvetica;html=1;rounded=0;shadow=0;comic=0;labelBackgroundColor=none;strokeWidth=1;">
      <mxGeometry x="6498" y="793" width="259" height="583" as="geometry" />
    </mxCell>
    <mxCell id="node39" parent="1" vertex="1" value="&lt;p style=&quot;margin:0px;margin-top:4px;text-align:center;&quot;&gt;&lt;b&gt;LobbyCreationMessage&lt;/b&gt;&lt;/p&gt;&lt;hr size=&quot;1&quot;/&gt;&lt;p style=&quot;margin:0 0 0 4px;line-height:1.6;&quot;&gt;- numPlayers: Integer&lt;/p&gt;&lt;hr size=&quot;1&quot;/&gt;&lt;p style=&quot;margin:0 0 0 4px;line-height:1.6;&quot;&gt;+ getNumPlayers(): Integer&lt;br/&gt;+ setNumPlayers(Integer): void&lt;/p&gt;" style="verticalAlign=top;align=left;overflow=fill;fontSize=14;fontFamily=Helvetica;html=1;rounded=0;shadow=0;comic=0;labelBackgroundColor=none;strokeWidth=1;">
      <mxGeometry x="7743" y="1063" width="201" height="107" as="geometry" />
    </mxCell>
    <mxCell id="node123" parent="1" vertex="1" value="&lt;p style=&quot;margin:0px;margin-top:4px;text-align:center;&quot;&gt;&lt;b&gt;LobbyEntranceMessage&lt;/b&gt;&lt;/p&gt;&lt;hr size=&quot;1&quot;/&gt;" style="verticalAlign=top;align=left;overflow=fill;fontSize=14;fontFamily=Helvetica;html=1;rounded=0;shadow=0;comic=0;labelBackgroundColor=none;strokeWidth=1;">
      <mxGeometry x="6468" y="424" width="200" height="31" as="geometry" />
    </mxCell>
    <mxCell id="node107" parent="1" vertex="1" value="&lt;p style=&quot;margin:0px;margin-top:4px;text-align:center;&quot;&gt;&lt;b&gt;LobbyHandler&lt;/b&gt;&lt;/p&gt;&lt;hr size=&quot;1&quot;/&gt;&lt;p style=&quot;margin:0 0 0 4px;line-height:1.6;&quot;&gt;- receiver: CLIEvent&lt;br/&gt;- connectionClient: ConnectionClient&lt;br/&gt;- response: ServerMessage&lt;br/&gt;- lock: Boolean&lt;br/&gt;- CLS: String&lt;/p&gt;&lt;hr size=&quot;1&quot;/&gt;&lt;p style=&quot;margin:0 0 0 4px;line-height:1.6;&quot;&gt;+ start(): void&lt;br/&gt;+ setResponse(ServerMessage): void&lt;/p&gt;" style="verticalAlign=top;align=left;overflow=fill;fontSize=14;fontFamily=Helvetica;html=1;rounded=0;shadow=0;comic=0;labelBackgroundColor=none;strokeWidth=1;">
      <mxGeometry x="4835" y="1799" width="232" height="187" as="geometry" />
    </mxCell>
    <mxCell id="node87" parent="1" vertex="1" value="&lt;p style=&quot;margin:0px;margin-top:4px;text-align:center;&quot;&gt;&lt;b&gt;LobbyJoiningMessage&lt;/b&gt;&lt;/p&gt;&lt;hr size=&quot;1&quot;/&gt;&lt;p style=&quot;margin:0 0 0 4px;line-height:1.6;&quot;&gt;- idLobby: Integer&lt;/p&gt;&lt;hr size=&quot;1&quot;/&gt;&lt;p style=&quot;margin:0 0 0 4px;line-height:1.6;&quot;&gt;+ getIdLobby(): Integer&lt;/p&gt;" style="verticalAlign=top;align=left;overflow=fill;fontSize=14;fontFamily=Helvetica;html=1;rounded=0;shadow=0;comic=0;labelBackgroundColor=none;strokeWidth=1;">
      <mxGeometry x="2061" y="433" width="193" height="83" as="geometry" />
    </mxCell>
    <mxCell id="node82" parent="1" vertex="1" value="&lt;p style=&quot;margin:0px;margin-top:4px;text-align:center;&quot;&gt;&lt;b&gt;LobbyLogoutMessage&lt;/b&gt;&lt;/p&gt;&lt;hr size=&quot;1&quot;/&gt;&lt;p style=&quot;margin:0 0 0 4px;line-height:1.6;&quot;&gt;- nickname: String&lt;/p&gt;&lt;hr size=&quot;1&quot;/&gt;&lt;p style=&quot;margin:0 0 0 4px;line-height:1.6;&quot;&gt;+ setNickname(String): void&lt;br/&gt;+ getNickname(): String&lt;/p&gt;" style="verticalAlign=top;align=left;overflow=fill;fontSize=14;fontFamily=Helvetica;html=1;rounded=0;shadow=0;comic=0;labelBackgroundColor=none;strokeWidth=1;">
      <mxGeometry x="7329" y="53" width="194" height="107" as="geometry" />
    </mxCell>
    <mxCell id="node57" parent="1" vertex="1" value="&lt;p style=&quot;margin:0px;margin-top:4px;text-align:center;&quot;&gt;&lt;b&gt;LobbyWaitingController&lt;/b&gt;&lt;/p&gt;&lt;hr size=&quot;1&quot;/&gt;&lt;p style=&quot;margin:0 0 0 4px;line-height:1.6;&quot;&gt;- Display: Label&lt;br/&gt;- stage: Stage&lt;br/&gt;- scene: Scene&lt;/p&gt;&lt;hr size=&quot;1&quot;/&gt;&lt;p style=&quot;margin:0 0 0 4px;line-height:1.6;&quot;&gt;+ displayNickname(String): void&lt;br/&gt;+ returnToMenu(ActionEvent): void&lt;/p&gt;" style="verticalAlign=top;align=left;overflow=fill;fontSize=14;fontFamily=Helvetica;html=1;rounded=0;shadow=0;comic=0;labelBackgroundColor=none;strokeWidth=1;">
      <mxGeometry x="4075" y="1551" width="222" height="143" as="geometry" />
    </mxCell>
    <mxCell id="node75" parent="1" vertex="1" value="&lt;p style=&quot;margin:0px;margin-top:4px;text-align:center;&quot;&gt;&lt;b&gt;MenuController&lt;/b&gt;&lt;/p&gt;&lt;hr size=&quot;1&quot;/&gt;&lt;p style=&quot;margin:0 0 0 4px;line-height:1.6;&quot;&gt;- serverAddr: String&lt;br/&gt;- portNum: int&lt;br/&gt;- socket: Socket&lt;br/&gt;- scenePane: AnchorPane&lt;br/&gt;- connectionClient: ConnectionClient&lt;br/&gt;- textField: TextField&lt;br/&gt;- scene: Scene&lt;br/&gt;- stage: Stage&lt;br/&gt;- response: ServerMessage&lt;br/&gt;- nickname: String&lt;br/&gt;- receiver: GUIEvent&lt;/p&gt;&lt;hr size=&quot;1&quot;/&gt;&lt;p style=&quot;margin:0 0 0 4px;line-height:1.6;&quot;&gt;+ RMIon(ActionEvent): boolean&lt;br/&gt;+ goRMI(ActionEvent): void&lt;br/&gt;+ exit(): void&lt;br/&gt;+ setResponse(ServerMessage): void&lt;br/&gt;+ TCPon(ActionEvent): boolean&lt;br/&gt;+ goTCP(ActionEvent): void&lt;/p&gt;" style="verticalAlign=top;align=left;overflow=fill;fontSize=14;fontFamily=Helvetica;html=1;rounded=0;shadow=0;comic=0;labelBackgroundColor=none;strokeWidth=1;">
      <mxGeometry x="3424" y="1436" width="232" height="407" as="geometry" />
    </mxCell>
    <mxCell id="node18" parent="1" vertex="1" value="&lt;p style=&quot;margin:0px;margin-top:4px;text-align:center;&quot;&gt;&lt;b&gt;Message&lt;/b&gt;&lt;/p&gt;&lt;hr size=&quot;1&quot;/&gt;&lt;p style=&quot;margin:0 0 0 4px;line-height:1.6;&quot;&gt;+ messageCategory: MessageCategory&lt;br/&gt;- nickname: String&lt;br/&gt;- returnMessage: String&lt;/p&gt;&lt;hr size=&quot;1&quot;/&gt;&lt;p style=&quot;margin:0 0 0 4px;line-height:1.6;&quot;&gt;+ getMessageCategory(): MessageCategory&lt;br/&gt;+ setReturnMessage(String): void&lt;br/&gt;+ setNickname(String): void&lt;br/&gt;+ dumpPingMessage(): void&lt;br/&gt;+ getNickname(): String&lt;br/&gt;+ equals(Object): boolean&lt;br/&gt;+ toString(): String&lt;br/&gt;+ getReturnMessage(): String&lt;br/&gt;+ setMessageCategory(MessageCategory): void&lt;br/&gt;+ hashCode(): int&lt;br/&gt;+ getCategory(): MessageCategory&lt;/p&gt;" style="verticalAlign=top;align=left;overflow=fill;fontSize=14;fontFamily=Helvetica;html=1;rounded=0;shadow=0;comic=0;labelBackgroundColor=none;strokeWidth=1;">
      <mxGeometry x="5806" y="614" width="288" height="341" as="geometry" />
    </mxCell>
    <mxCell id="node73" parent="1" vertex="1" value="&lt;p style=&quot;margin:0px;margin-top:4px;text-align:center;&quot;&gt;&lt;b&gt;Move&lt;/b&gt;&lt;/p&gt;&lt;hr size=&quot;1&quot;/&gt;&lt;p style=&quot;margin:0 0 0 4px;line-height:1.6;&quot;&gt;+ getMove(): ArrayList&amp;lt;Integer&amp;gt;&lt;/p&gt;" style="verticalAlign=top;align=left;overflow=fill;fontSize=14;fontFamily=Helvetica;html=1;rounded=0;shadow=0;comic=0;labelBackgroundColor=none;strokeWidth=1;">
      <mxGeometry x="6204" y="629" width="210" height="58" as="geometry" />
    </mxCell>
    <mxCell id="node134" parent="1" vertex="1" value="&lt;p style=&quot;margin:0px;margin-top:4px;text-align:center;&quot;&gt;&lt;b&gt;MoveDeserializer&lt;/b&gt;&lt;/p&gt;&lt;hr size=&quot;1&quot;/&gt;&lt;p style=&quot;margin:0 0 0 4px;line-height:1.6;&quot;&gt;+ deserializeOutput(String): Message&lt;/p&gt;" style="verticalAlign=top;align=left;overflow=fill;fontSize=14;fontFamily=Helvetica;html=1;rounded=0;shadow=0;comic=0;labelBackgroundColor=none;strokeWidth=1;">
      <mxGeometry x="2656" y="1330" width="234" height="58" as="geometry" />
    </mxCell>
    <mxCell id="node76" parent="1" vertex="1" value="&lt;p style=&quot;margin:0px;margin-top:4px;text-align:center;&quot;&gt;&lt;b&gt;MoveDeserializerTest&lt;/b&gt;&lt;/p&gt;&lt;hr size=&quot;1&quot;/&gt;&lt;p style=&quot;margin:0 0 0 4px;line-height:1.6;&quot;&gt;~ deserializeOutput(): void&lt;/p&gt;" style="verticalAlign=top;align=left;overflow=fill;fontSize=14;fontFamily=Helvetica;html=1;rounded=0;shadow=0;comic=0;labelBackgroundColor=none;strokeWidth=1;">
      <mxGeometry x="8479" y="1954" width="185" height="58" as="geometry" />
    </mxCell>
    <mxCell id="node37" parent="1" vertex="1" value="&lt;p style=&quot;margin:0px;margin-top:4px;text-align:center;&quot;&gt;&lt;b&gt;MoveSerializer&lt;/b&gt;&lt;/p&gt;&lt;hr size=&quot;1&quot;/&gt;&lt;p style=&quot;margin:0 0 0 4px;line-height:1.6;&quot;&gt;- checkCommand(String): MoveCategory&lt;br/&gt;+ serializeInput(String): Message&lt;br/&gt;- convertCommandToMove(String[]): Message&lt;br/&gt;- convertCommandToMove(String): Message&lt;br/&gt;- invalidCommand(): Message&lt;br/&gt;+ showMessage(String): void&lt;/p&gt;" style="verticalAlign=top;align=left;overflow=fill;fontSize=14;fontFamily=Helvetica;html=1;rounded=0;shadow=0;comic=0;labelBackgroundColor=none;strokeWidth=1;">
      <mxGeometry x="1457" y="1011" width="287" height="164" as="geometry" />
    </mxCell>
    <mxCell id="node74" parent="1" vertex="1" value="&lt;p style=&quot;margin:0px;margin-top:4px;text-align:center;&quot;&gt;&lt;b&gt;MoveSerializerTest&lt;/b&gt;&lt;/p&gt;&lt;hr size=&quot;1&quot;/&gt;&lt;p style=&quot;margin:0 0 0 4px;line-height:1.6;&quot;&gt;~ getFromKeyboard(): void&lt;/p&gt;" style="verticalAlign=top;align=left;overflow=fill;fontSize=14;fontFamily=Helvetica;html=1;rounded=0;shadow=0;comic=0;labelBackgroundColor=none;strokeWidth=1;">
      <mxGeometry x="2" y="1283" width="180" height="58" as="geometry" />
    </mxCell>
    <mxCell id="node96" parent="1" vertex="1" value="&lt;p style=&quot;margin:0px;margin-top:4px;text-align:center;&quot;&gt;&lt;b&gt;Move_SelectColumn&lt;/b&gt;&lt;/p&gt;&lt;hr size=&quot;1&quot;/&gt;&lt;p style=&quot;margin:0 0 0 4px;line-height:1.6;&quot;&gt;- YBookshelf: Integer&lt;/p&gt;&lt;hr size=&quot;1&quot;/&gt;&lt;p style=&quot;margin:0 0 0 4px;line-height:1.6;&quot;&gt;+ setYBookshelf(Integer): void&lt;br/&gt;+ getMove(): ArrayList&amp;lt;Integer&amp;gt;&lt;/p&gt;" style="verticalAlign=top;align=left;overflow=fill;fontSize=14;fontFamily=Helvetica;html=1;rounded=0;shadow=0;comic=0;labelBackgroundColor=none;strokeWidth=1;">
      <mxGeometry x="6474" y="565" width="210" height="107" as="geometry" />
    </mxCell>
    <mxCell id="node51" parent="1" vertex="1" value="&lt;p style=&quot;margin:0px;margin-top:4px;text-align:center;&quot;&gt;&lt;b&gt;Move_SelectOrder&lt;/b&gt;&lt;/p&gt;&lt;hr size=&quot;1&quot;/&gt;&lt;p style=&quot;margin:0 0 0 4px;line-height:1.6;&quot;&gt;- order: ArrayList&amp;lt;Integer&amp;gt;&lt;/p&gt;&lt;hr size=&quot;1&quot;/&gt;&lt;p style=&quot;margin:0 0 0 4px;line-height:1.6;&quot;&gt;+ getMove(): ArrayList&amp;lt;Integer&amp;gt;&lt;br/&gt;+ setOrder(ArrayList&amp;lt;Integer&amp;gt;): void&lt;/p&gt;" style="verticalAlign=top;align=left;overflow=fill;fontSize=14;fontFamily=Helvetica;html=1;rounded=0;shadow=0;comic=0;labelBackgroundColor=none;strokeWidth=1;">
      <mxGeometry x="6207" y="763" width="231" height="107" as="geometry" />
    </mxCell>
    <mxCell id="node30" parent="1" vertex="1" value="&lt;p style=&quot;margin:0px;margin-top:4px;text-align:center;&quot;&gt;&lt;b&gt;Move_SelectTiles&lt;/b&gt;&lt;/p&gt;&lt;hr size=&quot;1&quot;/&gt;&lt;p style=&quot;margin:0 0 0 4px;line-height:1.6;&quot;&gt;- coordinates: ArrayList&amp;lt;Integer&amp;gt;&lt;/p&gt;&lt;hr size=&quot;1&quot;/&gt;&lt;p style=&quot;margin:0 0 0 4px;line-height:1.6;&quot;&gt;+ setCoordinates(ArrayList&amp;lt;Integer&amp;gt;): void&lt;br/&gt;+ getMove(): ArrayList&amp;lt;Integer&amp;gt;&lt;/p&gt;" style="verticalAlign=top;align=left;overflow=fill;fontSize=14;fontFamily=Helvetica;html=1;rounded=0;shadow=0;comic=0;labelBackgroundColor=none;strokeWidth=1;">
      <mxGeometry x="5936" y="443" width="264" height="107" as="geometry" />
    </mxCell>
    <mxCell id="node15" parent="1" vertex="1" value="&lt;p style=&quot;margin:0px;margin-top:4px;text-align:center;&quot;&gt;&lt;b&gt;NickNameMessage&lt;/b&gt;&lt;/p&gt;&lt;hr size=&quot;1&quot;/&gt;" style="verticalAlign=top;align=left;overflow=fill;fontSize=14;fontFamily=Helvetica;html=1;rounded=0;shadow=0;comic=0;labelBackgroundColor=none;strokeWidth=1;">
      <mxGeometry x="6726" y="278" width="171" height="31" as="geometry" />
    </mxCell>
    <mxCell id="node98" parent="1" vertex="1" value="&lt;p style=&quot;margin:0px;margin-top:4px;text-align:center;&quot;&gt;&lt;b&gt;OrderMessage&lt;/b&gt;&lt;/p&gt;&lt;hr size=&quot;1&quot;/&gt;" style="verticalAlign=top;align=left;overflow=fill;fontSize=14;fontFamily=Helvetica;html=1;rounded=0;shadow=0;comic=0;labelBackgroundColor=none;strokeWidth=1;">
      <mxGeometry x="7084" y="55" width="143" height="31" as="geometry" />
    </mxCell>
    <mxCell id="node131" parent="1" vertex="1" value="&lt;p style=&quot;margin:0px;margin-top:4px;text-align:center;&quot;&gt;&lt;b&gt;PGCkey&lt;/b&gt;&lt;/p&gt;&lt;hr size=&quot;1&quot;/&gt;&lt;p style=&quot;margin:0 0 0 4px;line-height:1.6;&quot;&gt;- id: Integer&lt;br/&gt;- goal: HashMap&amp;lt;Pair, ItemTile&amp;gt;&lt;/p&gt;&lt;hr size=&quot;1&quot;/&gt;&lt;p style=&quot;margin:0 0 0 4px;line-height:1.6;&quot;&gt;+ getId(): Integer&lt;br/&gt;+ getGoal(): HashMap&amp;lt;Pair, ItemTile&amp;gt;&lt;/p&gt;" style="verticalAlign=top;align=left;overflow=fill;fontSize=14;fontFamily=Helvetica;html=1;rounded=0;shadow=0;comic=0;labelBackgroundColor=none;strokeWidth=1;">
      <mxGeometry x="1506" y="1555" width="242" height="131" as="geometry" />
    </mxCell>
    <mxCell id="node117" parent="1" vertex="1" value="&lt;p style=&quot;margin:0px;margin-top:4px;text-align:center;&quot;&gt;&lt;b&gt;Pair&lt;/b&gt;&lt;/p&gt;&lt;hr size=&quot;1&quot;/&gt;&lt;p style=&quot;margin:0 0 0 4px;line-height:1.6;&quot;&gt;- x: int&lt;br/&gt;- y: int&lt;/p&gt;&lt;hr size=&quot;1&quot;/&gt;&lt;p style=&quot;margin:0 0 0 4px;line-height:1.6;&quot;&gt;+ setX(int): void&lt;br/&gt;+ setY(int): void&lt;br/&gt;+ getX(): int&lt;br/&gt;+ getY(): int&lt;/p&gt;" style="verticalAlign=top;align=left;overflow=fill;fontSize=14;fontFamily=Helvetica;html=1;rounded=0;shadow=0;comic=0;labelBackgroundColor=none;strokeWidth=1;">
      <mxGeometry x="2440" y="1332" width="120" height="165" as="geometry" />
    </mxCell>
    <mxCell id="node77" parent="1" vertex="1" value="&lt;p style=&quot;margin:0px;margin-top:4px;text-align:center;&quot;&gt;&lt;b&gt;PersonalGoalCard&lt;/b&gt;&lt;/p&gt;&lt;hr size=&quot;1&quot;/&gt;&lt;p style=&quot;margin:0 0 0 4px;line-height:1.6;&quot;&gt;- MAX_Column: int&lt;br/&gt;- completed: Integer&lt;br/&gt;- Goal: HashMap&amp;lt;Pair, ItemTile&amp;gt;&lt;br/&gt;- points: Integer&lt;br/&gt;- NumeroCarta: Integer&lt;br/&gt;- MAX_Row: int&lt;/p&gt;&lt;hr size=&quot;1&quot;/&gt;&lt;p style=&quot;margin:0 0 0 4px;line-height:1.6;&quot;&gt;+ equals(HashMap&amp;lt;Pair, ItemTile&amp;gt;): boolean&lt;br/&gt;+ getCompleted(): Integer&lt;br/&gt;+ setPoints(Integer): void&lt;br/&gt;+ CheckGoal(BookShelf): int&lt;br/&gt;+ getPoints(): Integer&lt;br/&gt;+ toJson(): String&lt;br/&gt;- GivePoints(): int&lt;br/&gt;+ getNumeroCarta(): Integer&lt;br/&gt;+ setCompleted(Integer): void&lt;br/&gt;+ getGoal(): HashMap&amp;lt;Pair, ItemTile&amp;gt;&lt;/p&gt;" style="verticalAlign=top;align=left;overflow=fill;fontSize=14;fontFamily=Helvetica;html=1;rounded=0;shadow=0;comic=0;labelBackgroundColor=none;strokeWidth=1;">
      <mxGeometry x="1144" y="1473" width="275" height="385" as="geometry" />
    </mxCell>
    <mxCell id="node86" parent="1" vertex="1" value="&lt;p style=&quot;margin:0px;margin-top:4px;text-align:center;&quot;&gt;&lt;b&gt;PersonalGoalCardGen&lt;/b&gt;&lt;/p&gt;&lt;hr size=&quot;1&quot;/&gt;&lt;p style=&quot;margin:0 0 0 4px;line-height:1.6;&quot;&gt;- generator: PersonalGoalCardGen&lt;br/&gt;- Goals: ArrayList&amp;lt;PGCkey&amp;gt;&lt;/p&gt;&lt;hr size=&quot;1&quot;/&gt;&lt;p style=&quot;margin:0 0 0 4px;line-height:1.6;&quot;&gt;- getGoals(int): PGCkey&lt;br/&gt;+ getInstance(): PersonalGoalCardGen&lt;br/&gt;+ GetGoal(): PGCkey&lt;/p&gt;" style="verticalAlign=top;align=left;overflow=fill;fontSize=14;fontFamily=Helvetica;html=1;rounded=0;shadow=0;comic=0;labelBackgroundColor=none;strokeWidth=1;">
      <mxGeometry x="7822" y="1490" width="239" height="143" as="geometry" />
    </mxCell>
    <mxCell id="node113" parent="1" vertex="1" value="&lt;p style=&quot;margin:0px;margin-top:4px;text-align:center;&quot;&gt;&lt;b&gt;PersonalGoalCardTest&lt;/b&gt;&lt;/p&gt;&lt;hr size=&quot;1&quot;/&gt;&lt;p style=&quot;margin:0 0 0 4px;line-height:1.6;&quot;&gt;+ testCheckGoalPGC2_FIRST(): void&lt;br/&gt;+ testCheckGoalPGC1_FIRST(): void&lt;br/&gt;+ testCheckGoalPGC7_FIRST(): void&lt;br/&gt;+ testCheckGoalPGC7_FIFTH(): void&lt;br/&gt;+ testCheckGoalPGC3_SECOND(): void&lt;br/&gt;+ testCheckGoalPGC9_FOURTH(): void&lt;br/&gt;+ testCheckGoalPGC7_THIRD(): void&lt;br/&gt;+ testCheckGoalPGC10_FOURTH(): void&lt;br/&gt;+ testCheckGoalPGC3_THIRD(): void&lt;br/&gt;+ testCheckGoalPGC4_THIRD(): void&lt;br/&gt;+ testCheckGoalPGC4_SIXTH(): void&lt;br/&gt;+ testCheckGoalPGC5_SECOND(): void&lt;br/&gt;+ testCheckGoalPGC1_FIFTH(): void&lt;br/&gt;+ testCheckGoalPGC11_SIXTH(): void&lt;br/&gt;+ testCheckGoalPGC6_0(): void&lt;br/&gt;+ testCheckGoalPGC6_SIXTH(): void&lt;br/&gt;+ testCheckGoalPGC9_FIRST(): void&lt;br/&gt;+ testCheckGoalPGC12_SECOND(): void&lt;br/&gt;+ testCheckGoalPGC6_SECOND(): void&lt;br/&gt;+ testCheckGoalPGC12_FOURTH(): void&lt;br/&gt;+ testCheckGoalPGC6_FIFTH(): void&lt;br/&gt;+ testCheckGoalPGC9_SECOND(): void&lt;br/&gt;+ testCheckGoalPGC10_SIXTH(): void&lt;br/&gt;+ testCheckGoalPGC7_0(): void&lt;br/&gt;+ testCheckGoalPGC5_FIRST(): void&lt;br/&gt;+ testCheckGoalPGC3_FOURTH(): void&lt;br/&gt;+ testCheckGoalPGC4_FIFTH(): void&lt;br/&gt;+ testCheckGoalPGC8_FIFTH(): void&lt;br/&gt;+ testCheckGoalPGC2_THIRD(): void&lt;br/&gt;+ testCheckGoalPGC5_SIXTH(): void&lt;br/&gt;+ testCheckGoalPGC7_SIXTH(): void&lt;br/&gt;+ testCheckGoalPGC12_SIXTH(): void&lt;br/&gt;+ testCheckGoalPGC2_0(): void&lt;br/&gt;+ testCheckGoalPGC10_SECOND(): void&lt;br/&gt;+ testCheckGoalPGC12_THIRD(): void&lt;br/&gt;+ testCheckGoalPGC3_SIXTH(): void&lt;br/&gt;+ testCheckGoalPGC6_FIRST(): void&lt;br/&gt;+ testCheckGoalPGC10_FIRST(): void&lt;br/&gt;+ testCheckGoalPGC5_THIRD(): void&lt;br/&gt;+ testCheckGoalPGC10_THIRD(): void&lt;br/&gt;+ testCheckGoalPGC7_FOURTH(): void&lt;br/&gt;+ testCheckGoalPGC8_SECOND(): void&lt;br/&gt;+ testCheckGoalPGC9_THIRD(): void&lt;br/&gt;+ testCheckGoalPGC2_SECOND(): void&lt;br/&gt;+ testCheckGoalPGC2_FOURTH(): void&lt;br/&gt;+ testCheckGoalPGC4_FIRST(): void&lt;br/&gt;+ testCheckGoalPGC2_FIFTH(): void&lt;br/&gt;+ testCheckGoalPGC5_FIFTH(): void&lt;br/&gt;+ testCheckGoalPGC4_0(): void&lt;br/&gt;+ testCheckGoalPGC8_0(): void&lt;br/&gt;+ testCheckGoalPGC12_FIRST(): void&lt;br/&gt;+ testCheckGoalPGC9_0(): void&lt;br/&gt;+ testCheckGoalPGC11_SECOND(): void&lt;br/&gt;+ testCheckGoalPGC10_FIFTH(): void&lt;br/&gt;+ testCheckGoalPGC1_SIXTH(): void&lt;br/&gt;+ testCheckGoalPGC7_SECOND(): void&lt;br/&gt;+ testCheckGoalPGC11_FIRST(): void&lt;br/&gt;+ testCheckGoalPGC12_FIFTH(): void&lt;br/&gt;+ testCheckGoalPGC1_FOURTH(): void&lt;br/&gt;+ testCheckGoalPGC11_FOURTH(): void&lt;br/&gt;+ testCheckGoalPGC3_FIRST(): void&lt;br/&gt;+ testCheckGoalPGC12_0(): void&lt;br/&gt;+ testCheckGoalPGC1_THIRD(): void&lt;br/&gt;+ testCheckGoalPGC6_THIRD(): void&lt;br/&gt;+ testCheckGoalPGC5_0(): void&lt;br/&gt;+ testCheckGoalPGC11_THIRD(): void&lt;br/&gt;+ testCheckGoalPGC11_0(): void&lt;br/&gt;+ testCheckGoalPGC3_0(): void&lt;br/&gt;+ testCheckGoalPGC8_FIRST(): void&lt;br/&gt;+ testCheckGoalPGC9_FIFTH(): void&lt;br/&gt;+ testCheckGoalPGC11_FIFTH(): void&lt;br/&gt;+ testCheckGoalPGC5_FOURTH(): void&lt;br/&gt;+ testCheckGoalPGC6_FOURTH(): void&lt;br/&gt;+ testCheckGoalPGC10_0(): void&lt;br/&gt;+ testCheckGoalPGC1_SECOND(): void&lt;br/&gt;+ testCheckGoalPGC9_SIXTH(): void&lt;br/&gt;+ testCheckGoalPGC1_0(): void&lt;br/&gt;+ testCheckGoalPGC4_FOURTH(): void&lt;br/&gt;+ testCheckGoalPGC2_SIXTH(): void&lt;br/&gt;+ testCheckGoalPGC8_SIXTH(): void&lt;br/&gt;+ testCheckGoalPGC4_SECOND(): void&lt;br/&gt;+ testCheckGoalPGC8_FOURTH(): void&lt;br/&gt;+ testCheckGoalPGC3_FIFTH(): void&lt;br/&gt;+ testCheckGoalPGC8_THIRD(): void&lt;/p&gt;" style="verticalAlign=top;align=left;overflow=fill;fontSize=14;fontFamily=Helvetica;html=1;rounded=0;shadow=0;comic=0;labelBackgroundColor=none;strokeWidth=1;">
      <mxGeometry x="7119" y="1551" width="245" height="1880" as="geometry" />
    </mxCell>
    <mxCell id="node12" parent="1" vertex="1" value="&lt;p style=&quot;margin:0px;margin-top:4px;text-align:center;&quot;&gt;&lt;b&gt;PingFromServer&lt;/b&gt;&lt;/p&gt;&lt;hr size=&quot;1&quot;/&gt;&lt;p style=&quot;margin:0 0 0 4px;line-height:1.6;&quot;&gt;- pingCount: int&lt;/p&gt;&lt;hr size=&quot;1&quot;/&gt;&lt;p style=&quot;margin:0 0 0 4px;line-height:1.6;&quot;&gt;+ toString(): String&lt;br/&gt;+ getPingCount(): int&lt;/p&gt;" style="verticalAlign=top;align=left;overflow=fill;fontSize=14;fontFamily=Helvetica;html=1;rounded=0;shadow=0;comic=0;labelBackgroundColor=none;strokeWidth=1;">
      <mxGeometry x="2690" y="1108" width="153" height="107" as="geometry" />
    </mxCell>
    <mxCell id="node0" parent="1" vertex="1" value="&lt;p style=&quot;margin:0px;margin-top:4px;text-align:center;&quot;&gt;&lt;b&gt;PingToServer&lt;/b&gt;&lt;/p&gt;&lt;hr size=&quot;1&quot;/&gt;" style="verticalAlign=top;align=left;overflow=fill;fontSize=14;fontFamily=Helvetica;html=1;rounded=0;shadow=0;comic=0;labelBackgroundColor=none;strokeWidth=1;">
      <mxGeometry x="6264" y="460" width="134" height="31" as="geometry" />
    </mxCell>
    <mxCell id="node116" parent="1" vertex="1" value="&lt;p style=&quot;margin:0px;margin-top:4px;text-align:center;&quot;&gt;&lt;b&gt;Player&lt;/b&gt;&lt;/p&gt;&lt;hr size=&quot;1&quot;/&gt;&lt;p style=&quot;margin:0 0 0 4px;line-height:1.6;&quot;&gt;- playerBookshelf: BookShelf&lt;br/&gt;- winner: boolean&lt;br/&gt;- personalGoalCard: PersonalGoalCard&lt;br/&gt;~ listener: PropertyChangeListener&lt;br/&gt;- NickName: String&lt;br/&gt;- score: int&lt;br/&gt;- nowPlaying: boolean&lt;br/&gt;- firstPlayerSeat: boolean&lt;br/&gt;- lastRound: boolean&lt;/p&gt;&lt;hr size=&quot;1&quot;/&gt;&lt;p style=&quot;margin:0 0 0 4px;line-height:1.6;&quot;&gt;+ getScore(): int&lt;br/&gt;+ getPlayerBookshelf(): BookShelf&lt;br/&gt;+ setListener(PropertyChangeListener): void&lt;br/&gt;+ getNowPlaying(): boolean&lt;br/&gt;+ isWinner(): boolean&lt;br/&gt;+ isNowPlaying(): boolean&lt;br/&gt;+ endGamePoints(): void&lt;br/&gt;+ getNickName(): String&lt;br/&gt;+ insertToken(ArrayList&amp;lt;ItemTile&amp;gt;, int): void&lt;br/&gt;- comparePersonalGoalCardwithBookshelf(): void&lt;br/&gt;+ setLastRound(boolean): void&lt;br/&gt;+ getListener(): PropertyChangeListener&lt;br/&gt;+ setWinner(boolean): void&lt;br/&gt;+ isLastRound(): boolean&lt;br/&gt;+ setPersonalGoalCard(PersonalGoalCard): void&lt;br/&gt;+ setScore(int): void&lt;br/&gt;+ getPersonalGoalCard(): PersonalGoalCard&lt;br/&gt;+ setFirstPlayerSeat(boolean): void&lt;br/&gt;+ isFirstPlayerSeat(): boolean&lt;/p&gt;" style="verticalAlign=top;align=left;overflow=fill;fontSize=14;fontFamily=Helvetica;html=1;rounded=0;shadow=0;comic=0;labelBackgroundColor=none;strokeWidth=1;">
      <mxGeometry x="2094" y="1566" width="300" height="649" as="geometry" />
    </mxCell>
    <mxCell id="node27" parent="1" vertex="1" value="&lt;p style=&quot;margin:0px;margin-top:4px;text-align:center;&quot;&gt;&lt;b&gt;PlayerTest&lt;/b&gt;&lt;/p&gt;&lt;hr size=&quot;1&quot;/&gt;&lt;p style=&quot;margin:0 0 0 4px;line-height:1.6;&quot;&gt;+ testInsertToken_FIRST(): void&lt;br/&gt;+ testInsertToken_SECOND(): void&lt;br/&gt;+ testEndGamePoints_SECOND(): void&lt;br/&gt;+ testInsertToken_THIRD(): void&lt;/p&gt;" style="verticalAlign=top;align=left;overflow=fill;fontSize=14;fontFamily=Helvetica;html=1;rounded=0;shadow=0;comic=0;labelBackgroundColor=none;strokeWidth=1;">
      <mxGeometry x="7071" y="766" width="238" height="130" as="geometry" />
    </mxCell>
    <mxCell id="node45" parent="1" vertex="1" value="&lt;p style=&quot;margin:0px;margin-top:4px;text-align:center;&quot;&gt;&lt;b&gt;PlayersMessage&lt;/b&gt;&lt;/p&gt;&lt;hr size=&quot;1&quot;/&gt;&lt;p style=&quot;margin:0 0 0 4px;line-height:1.6;&quot;&gt;- personalGoalCardHashMap: HashMap&amp;lt;String, PersonalGoalCard&amp;gt;&lt;/p&gt;&lt;hr size=&quot;1&quot;/&gt;&lt;p style=&quot;margin:0 0 0 4px;line-height:1.6;&quot;&gt;+ getPersonalGoalCardHashMap(): HashMap&amp;lt;String, PersonalGoalCard&amp;gt;&lt;/p&gt;" style="verticalAlign=top;align=left;overflow=fill;fontSize=14;fontFamily=Helvetica;html=1;rounded=0;shadow=0;comic=0;labelBackgroundColor=none;strokeWidth=1;">
      <mxGeometry x="4142" y="1365" width="424" height="83" as="geometry" />
    </mxCell>
    <mxCell id="node41" parent="1" vertex="1" value="&lt;p style=&quot;margin:0px;margin-top:4px;text-align:center;&quot;&gt;&lt;i&gt;&amp;lt;&amp;lt;interface&amp;gt;&amp;gt;&lt;/i&gt;&lt;br/&gt;&lt;b&gt;Printer&lt;/b&gt;&lt;/p&gt;&lt;hr size=&quot;1&quot;/&gt;&lt;p style=&quot;margin:0 0 0 4px;line-height:1.6;&quot;&gt;+ showMessage(String): void&lt;/p&gt;" style="verticalAlign=top;align=left;overflow=fill;fontSize=14;fontFamily=Helvetica;html=1;rounded=0;shadow=0;comic=0;labelBackgroundColor=none;strokeWidth=1;">
      <mxGeometry x="1207" y="1133" width="189" height="68" as="geometry" />
    </mxCell>
    <mxCell id="node48" parent="1" vertex="1" value="&lt;p style=&quot;margin:0px;margin-top:4px;text-align:center;&quot;&gt;&lt;b&gt;RMIServerMain&lt;/b&gt;&lt;/p&gt;&lt;hr size=&quot;1&quot;/&gt;&lt;p style=&quot;margin:0 0 0 4px;line-height:1.6;&quot;&gt;- port: int&lt;/p&gt;&lt;hr size=&quot;1&quot;/&gt;&lt;p style=&quot;margin:0 0 0 4px;line-height:1.6;&quot;&gt;+ main(String[]): void&lt;br/&gt;+ run(): void&lt;/p&gt;" style="verticalAlign=top;align=left;overflow=fill;fontSize=14;fontFamily=Helvetica;html=1;rounded=0;shadow=0;comic=0;labelBackgroundColor=none;strokeWidth=1;">
      <mxGeometry x="587" y="1373" width="151" height="107" as="geometry" />
    </mxCell>
    <mxCell id="node97" parent="1" vertex="1" value="&lt;p style=&quot;margin:0px;margin-top:4px;text-align:center;&quot;&gt;&lt;b&gt;RMIparams&lt;/b&gt;&lt;/p&gt;&lt;hr size=&quot;1&quot;/&gt;&lt;p style=&quot;margin:0 0 0 4px;line-height:1.6;&quot;&gt;+ PORT: int&lt;/p&gt;" style="verticalAlign=top;align=left;overflow=fill;fontSize=14;fontFamily=Helvetica;html=1;rounded=0;shadow=0;comic=0;labelBackgroundColor=none;strokeWidth=1;">
      <mxGeometry x="6313" y="1357" width="125" height="58" as="geometry" />
    </mxCell>
    <mxCell id="node79" parent="1" vertex="1" value="&lt;p style=&quot;margin:0px;margin-top:4px;text-align:center;&quot;&gt;&lt;i&gt;&amp;lt;&amp;lt;interface&amp;gt;&amp;gt;&lt;/i&gt;&lt;br/&gt;&lt;b&gt;RemoteInterface&lt;/b&gt;&lt;/p&gt;&lt;hr size=&quot;1&quot;/&gt;&lt;p style=&quot;margin:0 0 0 4px;line-height:1.6;&quot;&gt;+ receiveMessage(String, RemoteInterfaceClient): void&lt;br/&gt;+ getPing(): boolean&lt;/p&gt;" style="verticalAlign=top;align=left;overflow=fill;fontSize=14;fontFamily=Helvetica;html=1;rounded=0;shadow=0;comic=0;labelBackgroundColor=none;strokeWidth=1;">
      <mxGeometry x="7948" y="894" width="324" height="95" as="geometry" />
    </mxCell>
    <mxCell id="node69" parent="1" vertex="1" value="&lt;p style=&quot;margin:0px;margin-top:4px;text-align:center;&quot;&gt;&lt;i&gt;&amp;lt;&amp;lt;interface&amp;gt;&amp;gt;&lt;/i&gt;&lt;br/&gt;&lt;b&gt;RemoteInterfaceClient&lt;/b&gt;&lt;/p&gt;&lt;hr size=&quot;1&quot;/&gt;&lt;p style=&quot;margin:0 0 0 4px;line-height:1.6;&quot;&gt;+ sendMessage(ClientMessage): void&lt;br/&gt;+ getPing(): boolean&lt;br/&gt;+ receiveMessage(String): void&lt;/p&gt;" style="verticalAlign=top;align=left;overflow=fill;fontSize=14;fontFamily=Helvetica;html=1;rounded=0;shadow=0;comic=0;labelBackgroundColor=none;strokeWidth=1;">
      <mxGeometry x="7060" y="212" width="232" height="123" as="geometry" />
    </mxCell>
    <mxCell id="node40" parent="1" vertex="1" value="&lt;p style=&quot;margin:0px;margin-top:4px;text-align:center;&quot;&gt;&lt;b&gt;Savings&lt;/b&gt;&lt;/p&gt;&lt;hr size=&quot;1&quot;/&gt;&lt;p style=&quot;margin:0 0 0 4px;line-height:1.6;&quot;&gt;- lobby: Lobby&lt;br/&gt;- gameSavings: GameSavings&lt;br/&gt;- savingNumber: Integer&lt;/p&gt;&lt;hr size=&quot;1&quot;/&gt;&lt;p style=&quot;margin:0 0 0 4px;line-height:1.6;&quot;&gt;+ saveGame(GameSavings): void&lt;br/&gt;+ getSavingNumber(): Integer&lt;br/&gt;+ setGameSavings(GameSavings): void&lt;br/&gt;+ setSavingNumber(Integer): void&lt;br/&gt;+ getGameSavings(): GameSavings&lt;br/&gt;+ getLobby(): Lobby&lt;/p&gt;" style="verticalAlign=top;align=left;overflow=fill;fontSize=14;fontFamily=Helvetica;html=1;rounded=0;shadow=0;comic=0;labelBackgroundColor=none;strokeWidth=1;">
      <mxGeometry x="842" y="1771" width="242" height="231" as="geometry" />
    </mxCell>
    <mxCell id="node81" parent="1" vertex="1" value="&lt;p style=&quot;margin:0px;margin-top:4px;text-align:center;&quot;&gt;&lt;b&gt;ScoreMessage&lt;/b&gt;&lt;/p&gt;&lt;hr size=&quot;1&quot;/&gt;&lt;p style=&quot;margin:0 0 0 4px;line-height:1.6;&quot;&gt;- score: Integer&lt;/p&gt;&lt;hr size=&quot;1&quot;/&gt;&lt;p style=&quot;margin:0 0 0 4px;line-height:1.6;&quot;&gt;+ getScore(): Integer&lt;/p&gt;" style="verticalAlign=top;align=left;overflow=fill;fontSize=14;fontFamily=Helvetica;html=1;rounded=0;shadow=0;comic=0;labelBackgroundColor=none;strokeWidth=1;">
      <mxGeometry x="1237" y="993" width="147" height="83" as="geometry" />
    </mxCell>
    <mxCell id="node104" parent="1" vertex="1" value="&lt;p style=&quot;margin:0px;margin-top:4px;text-align:center;&quot;&gt;&lt;b&gt;ScoringToken&lt;/b&gt;&lt;/p&gt;&lt;hr size=&quot;1&quot;/&gt;&lt;p style=&quot;margin:0 0 0 4px;line-height:1.6;&quot;&gt;- GoalCard: int&lt;/p&gt;" style="verticalAlign=top;align=left;overflow=fill;fontSize=14;fontFamily=Helvetica;html=1;rounded=0;shadow=0;comic=0;labelBackgroundColor=none;strokeWidth=1;">
      <mxGeometry x="8168" y="1529" width="139" height="58" as="geometry" />
    </mxCell>
    <mxCell id="node63" parent="1" vertex="1" value="&lt;p style=&quot;margin:0px;margin-top:4px;text-align:center;&quot;&gt;&lt;b&gt;Server&lt;/b&gt;&lt;/p&gt;&lt;hr size=&quot;1&quot;/&gt;&lt;p style=&quot;margin:0 0 0 4px;line-height:1.6;&quot;&gt;+ lobbies: ArrayList&amp;lt;Lobby&amp;gt;&lt;br/&gt;+ rmiConnections: HashMap&amp;lt;String, RemoteInterfaceClient&amp;gt;&lt;br/&gt;+ idLobbies: Integer&lt;br/&gt;+ startedLobbies: ArrayList&amp;lt;Lobby&amp;gt;&lt;br/&gt;+ connectedPlayers: ArrayList&amp;lt;String&amp;gt;&lt;/p&gt;&lt;hr size=&quot;1&quot;/&gt;&lt;p style=&quot;margin:0 0 0 4px;line-height:1.6;&quot;&gt;+ showMessage(String): void&lt;br/&gt;- loadSaves(): void&lt;br/&gt;+ main(String[]): void&lt;/p&gt;" style="verticalAlign=top;align=left;overflow=fill;fontSize=14;fontFamily=Helvetica;html=1;rounded=0;shadow=0;comic=0;labelBackgroundColor=none;strokeWidth=1;">
      <mxGeometry x="498" y="969" width="360" height="209" as="geometry" />
    </mxCell>
    <mxCell id="node92" parent="1" vertex="1" value="&lt;p style=&quot;margin:0px;margin-top:4px;text-align:center;&quot;&gt;&lt;i&gt;&amp;lt;&amp;lt;interface&amp;gt;&amp;gt;&lt;/i&gt;&lt;br/&gt;&lt;b&gt;ServerConnection&lt;/b&gt;&lt;/p&gt;&lt;hr size=&quot;1&quot;/&gt;&lt;p style=&quot;margin:0 0 0 4px;line-height:1.6;&quot;&gt;+ removeVoidLobby(Lobby): void&lt;br/&gt;+ sendMessage(ServerMessage, String): void&lt;br/&gt;+ getNamePlayer(): String&lt;/p&gt;" style="verticalAlign=top;align=left;overflow=fill;fontSize=14;fontFamily=Helvetica;html=1;rounded=0;shadow=0;comic=0;labelBackgroundColor=none;strokeWidth=1;">
      <mxGeometry x="7438" y="1459" width="272" height="123" as="geometry" />
    </mxCell>
    <mxCell id="node95" parent="1" vertex="1" value="&lt;p style=&quot;margin:0px;margin-top:4px;text-align:center;&quot;&gt;&lt;b&gt;ServerConnectionRMI&lt;/b&gt;&lt;/p&gt;&lt;hr size=&quot;1&quot;/&gt;&lt;p style=&quot;margin:0 0 0 4px;line-height:1.6;&quot;&gt;- serverIsActive: boolean&lt;br/&gt;- namePlayer: String&lt;br/&gt;- disconnectionHandler: DisconnectionHandler&lt;br/&gt;- virtualViews: ArrayList&amp;lt;VirtualView&amp;gt;&lt;br/&gt;- lobby: Lobby&lt;/p&gt;&lt;hr size=&quot;1&quot;/&gt;&lt;p style=&quot;margin:0 0 0 4px;line-height:1.6;&quot;&gt;+ sendMessage(ServerMessage, String): void&lt;br/&gt;- gameAlreadyStarted(): void&lt;br/&gt;+ getNamePlayer(): String&lt;br/&gt;+ run(): void&lt;br/&gt;- checkReconnectedLobby(): boolean&lt;br/&gt;- alreadyExistentLobby(ClientMessage): void&lt;br/&gt;- lobbyIsFull(): void&lt;br/&gt;- checkLobbySpace(): boolean&lt;br/&gt;+ receiveMessage(String, RemoteInterfaceClient): void&lt;br/&gt;- lobbyResearch(String): Lobby&lt;br/&gt;- alreadyLoggedNickName(ClientMessage): void&lt;br/&gt;- reconnectedPlayer(ClientMessage): void&lt;br/&gt;- messageParser(ClientMessage, RemoteInterfaceClient): void&lt;br/&gt;+ sendPing(): void&lt;br/&gt;- noLobbyInServer(ClientMessage): void&lt;br/&gt;+ getPing(): boolean&lt;br/&gt;- closeConnection(String): void&lt;br/&gt;- checkCompletedLobby(): boolean&lt;/p&gt;" style="verticalAlign=top;align=left;overflow=fill;fontSize=14;fontFamily=Helvetica;html=1;rounded=0;shadow=0;comic=0;labelBackgroundColor=none;strokeWidth=1;">
      <mxGeometry x="8367" y="836" width="364" height="539" as="geometry" />
    </mxCell>
    <mxCell id="node2" parent="1" vertex="1" value="&lt;p style=&quot;margin:0px;margin-top:4px;text-align:center;&quot;&gt;&lt;b&gt;ServerConnectionTCP&lt;/b&gt;&lt;/p&gt;&lt;hr size=&quot;1&quot;/&gt;&lt;p style=&quot;margin:0 0 0 4px;line-height:1.6;&quot;&gt;- clientSocket: Socket&lt;br/&gt;- disconnectionHandler: DisconnectionHandler&lt;br/&gt;- output: PrintWriter&lt;br/&gt;- serverIsActive: boolean&lt;br/&gt;- ping: Thread&lt;br/&gt;- lobby: Lobby&lt;br/&gt;- virtualView: VirtualView&lt;br/&gt;- input: Scanner&lt;br/&gt;- namePlayer: String&lt;/p&gt;&lt;hr size=&quot;1&quot;/&gt;&lt;p style=&quot;margin:0 0 0 4px;line-height:1.6;&quot;&gt;+ receiveMessage(String): void&lt;br/&gt;+ sendPing(int): void&lt;br/&gt;+ run(): void&lt;br/&gt;- closeConnection(): void&lt;br/&gt;- closeClientConnection(): void&lt;br/&gt;- alreadyLoggedNickName(ClientMessage): void&lt;br/&gt;+ getNamePlayer(): String&lt;br/&gt;- noLobbyInServer(ClientMessage): void&lt;br/&gt;- lobbyIsFull(): void&lt;br/&gt;+ sendMessage(ServerMessage, String): void&lt;br/&gt;- checkReconnectedLobby(): boolean&lt;br/&gt;- gameAlreadyStarted(): void&lt;br/&gt;- checkLobbySpace(): boolean&lt;br/&gt;- alreadyExistentLobby(ClientMessage): void&lt;br/&gt;+ addVirtualView(VirtualView): void&lt;br/&gt;- checkCompletedLobby(): boolean&lt;br/&gt;- messageParser(ClientMessage): void&lt;br/&gt;- reconnectedPlayer(ClientMessage): void&lt;/p&gt;" style="verticalAlign=top;align=left;overflow=fill;fontSize=14;fontFamily=Helvetica;html=1;rounded=0;shadow=0;comic=0;labelBackgroundColor=none;strokeWidth=1;">
      <mxGeometry x="7369" y="750" width="296" height="627" as="geometry" />
    </mxCell>
    <mxCell id="node62" parent="1" vertex="1" value="&lt;p style=&quot;margin:0px;margin-top:4px;text-align:center;&quot;&gt;&lt;b&gt;ServerMessage&lt;/b&gt;&lt;/p&gt;&lt;hr size=&quot;1&quot;/&gt;&lt;p style=&quot;margin:0 0 0 4px;line-height:1.6;&quot;&gt;- sender: String&lt;/p&gt;" style="verticalAlign=top;align=left;overflow=fill;fontSize=14;fontFamily=Helvetica;html=1;rounded=0;shadow=0;comic=0;labelBackgroundColor=none;strokeWidth=1;">
      <mxGeometry x="3370" y="1198" width="148" height="58" as="geometry" />
    </mxCell>
    <mxCell id="node100" parent="1" vertex="1" value="&lt;p style=&quot;margin:0px;margin-top:4px;text-align:center;&quot;&gt;&lt;b&gt;Settings&lt;/b&gt;&lt;/p&gt;&lt;hr size=&quot;1&quot;/&gt;&lt;p style=&quot;margin:0 0 0 4px;line-height:1.6;&quot;&gt;+ SERVER_NAME: String&lt;br/&gt;+ PORT: int&lt;/p&gt;" style="verticalAlign=top;align=left;overflow=fill;fontSize=14;fontFamily=Helvetica;html=1;rounded=0;shadow=0;comic=0;labelBackgroundColor=none;strokeWidth=1;">
      <mxGeometry x="8733" y="1854" width="164" height="82" as="geometry" />
    </mxCell>
    <mxCell id="node119" parent="1" vertex="1" value="&lt;p style=&quot;margin:0px;margin-top:4px;text-align:center;&quot;&gt;&lt;b&gt;StartCLI&lt;/b&gt;&lt;/p&gt;&lt;hr size=&quot;1&quot;/&gt;&lt;p style=&quot;margin:0 0 0 4px;line-height:1.6;&quot;&gt;- serverAddr: String&lt;br/&gt;- portNum: int&lt;br/&gt;- socket: Socket&lt;br/&gt;- connectionClient: ConnectionClient&lt;br/&gt;- receiver: CLIEvent&lt;br/&gt;- nickname: String&lt;br/&gt;- response: ServerMessage&lt;br/&gt;- CLS: String&lt;/p&gt;&lt;hr size=&quot;1&quot;/&gt;&lt;p style=&quot;margin:0 0 0 4px;line-height:1.6;&quot;&gt;+ startClient(): void&lt;br/&gt;+ setResponse(ServerMessage): void&lt;/p&gt;" style="verticalAlign=top;align=left;overflow=fill;fontSize=14;fontFamily=Helvetica;html=1;rounded=0;shadow=0;comic=0;labelBackgroundColor=none;strokeWidth=1;">
      <mxGeometry x="1363" y="1919" width="232" height="253" as="geometry" />
    </mxCell>
    <mxCell id="node54" parent="1" vertex="1" value="&lt;p style=&quot;margin:0px;margin-top:4px;text-align:center;&quot;&gt;&lt;b&gt;StartGameMessage&lt;/b&gt;&lt;/p&gt;&lt;hr size=&quot;1&quot;/&gt;" style="verticalAlign=top;align=left;overflow=fill;fontSize=14;fontFamily=Helvetica;html=1;rounded=0;shadow=0;comic=0;labelBackgroundColor=none;strokeWidth=1;">
      <mxGeometry x="8794" y="1256" width="173" height="31" as="geometry" />
    </mxCell>
    <mxCell id="node70" parent="1" vertex="1" value="&lt;p style=&quot;margin:0px;margin-top:4px;text-align:center;&quot;&gt;&lt;b&gt;SuccessMessage&lt;/b&gt;&lt;/p&gt;&lt;hr size=&quot;1&quot;/&gt;&lt;p style=&quot;margin:0 0 0 4px;line-height:1.6;&quot;&gt;- player: Player&lt;/p&gt;&lt;hr size=&quot;1&quot;/&gt;&lt;p style=&quot;margin:0 0 0 4px;line-height:1.6;&quot;&gt;+ getScore(): Integer&lt;br/&gt;+ getNickName(): String&lt;br/&gt;+ getBookshelf(): BookShelf&lt;/p&gt;" style="verticalAlign=top;align=left;overflow=fill;fontSize=14;fontFamily=Helvetica;html=1;rounded=0;shadow=0;comic=0;labelBackgroundColor=none;strokeWidth=1;">
      <mxGeometry x="488" y="788" width="186" height="131" as="geometry" />
    </mxCell>
    <mxCell id="node4" parent="1" vertex="1" value="&lt;p style=&quot;margin:0px;margin-top:4px;text-align:center;&quot;&gt;&lt;b&gt;TCPParams&lt;/b&gt;&lt;/p&gt;&lt;hr size=&quot;1&quot;/&gt;&lt;p style=&quot;margin:0 0 0 4px;line-height:1.6;&quot;&gt;+ PORT: int&lt;/p&gt;" style="verticalAlign=top;align=left;overflow=fill;fontSize=14;fontFamily=Helvetica;html=1;rounded=0;shadow=0;comic=0;labelBackgroundColor=none;strokeWidth=1;">
      <mxGeometry x="6546" y="1439" width="123" height="58" as="geometry" />
    </mxCell>
    <mxCell id="node8" parent="1" vertex="1" value="&lt;p style=&quot;margin:0px;margin-top:4px;text-align:center;&quot;&gt;&lt;b&gt;TCPServerMain&lt;/b&gt;&lt;/p&gt;&lt;hr size=&quot;1&quot;/&gt;&lt;p style=&quot;margin:0 0 0 4px;line-height:1.6;&quot;&gt;- virtualViews: ArrayList&amp;lt;VirtualView&amp;gt;&lt;br/&gt;- port: int&lt;br/&gt;- serverSocket: ServerSocket&lt;/p&gt;&lt;hr size=&quot;1&quot;/&gt;&lt;p style=&quot;margin:0 0 0 4px;line-height:1.6;&quot;&gt;+ main(String[]): void&lt;br/&gt;+ run(): void&lt;/p&gt;" style="verticalAlign=top;align=left;overflow=fill;fontSize=14;fontFamily=Helvetica;html=1;rounded=0;shadow=0;comic=0;labelBackgroundColor=none;strokeWidth=1;">
      <mxGeometry x="179" y="1008" width="240" height="143" as="geometry" />
    </mxCell>
    <mxCell id="node19" parent="1" vertex="1" value="&lt;p style=&quot;margin:0px;margin-top:4px;text-align:center;&quot;&gt;&lt;b&gt;Token&lt;/b&gt;&lt;/p&gt;&lt;hr size=&quot;1&quot;/&gt;&lt;p style=&quot;margin:0 0 0 4px;line-height:1.6;&quot;&gt;- Points: int&lt;/p&gt;&lt;hr size=&quot;1&quot;/&gt;&lt;p style=&quot;margin:0 0 0 4px;line-height:1.6;&quot;&gt;+ getPoints(): int&lt;/p&gt;" style="verticalAlign=top;align=left;overflow=fill;fontSize=14;fontFamily=Helvetica;html=1;rounded=0;shadow=0;comic=0;labelBackgroundColor=none;strokeWidth=1;">
      <mxGeometry x="8387" y="1435" width="126" height="83" as="geometry" />
    </mxCell>
    <mxCell id="node105" parent="1" vertex="1" value="&lt;p style=&quot;margin:0px;margin-top:4px;text-align:center;&quot;&gt;&lt;b&gt;UpdateStateMessage&lt;/b&gt;&lt;/p&gt;&lt;hr size=&quot;1&quot;/&gt;&lt;p style=&quot;margin:0 0 0 4px;line-height:1.6;&quot;&gt;- game: Game&lt;/p&gt;&lt;hr size=&quot;1&quot;/&gt;&lt;p style=&quot;margin:0 0 0 4px;line-height:1.6;&quot;&gt;+ getGame(): Game&lt;/p&gt;" style="verticalAlign=top;align=left;overflow=fill;fontSize=14;fontFamily=Helvetica;html=1;rounded=0;shadow=0;comic=0;labelBackgroundColor=none;strokeWidth=1;">
      <mxGeometry x="5215" y="745" width="187" height="83" as="geometry" />
    </mxCell>
    <mxCell id="node29" parent="1" vertex="1" value="&lt;p style=&quot;margin:0px;margin-top:4px;text-align:center;&quot;&gt;&lt;b&gt;UsedNicknameController&lt;/b&gt;&lt;/p&gt;&lt;hr size=&quot;1&quot;/&gt;&lt;p style=&quot;margin:0 0 0 4px;line-height:1.6;&quot;&gt;- receiver: GUIEvent&lt;br/&gt;- serverAddr: String&lt;br/&gt;- scene: Scene&lt;br/&gt;- socket: Socket&lt;br/&gt;- connectionClient: ConnectionClient&lt;br/&gt;- portNum: int&lt;br/&gt;- stage: Stage&lt;br/&gt;~ name: TextField&lt;br/&gt;- response: ServerMessage&lt;br/&gt;- nickname: String&lt;/p&gt;&lt;hr size=&quot;1&quot;/&gt;&lt;p style=&quot;margin:0 0 0 4px;line-height:1.6;&quot;&gt;+ setResponse(ServerMessage): void&lt;br/&gt;+ goTCP(ActionEvent): void&lt;br/&gt;+ goRMI(ActionEvent): void&lt;br/&gt;+ TCPon(ActionEvent): boolean&lt;br/&gt;+ setReceiver(GUIEvent): void&lt;br/&gt;+ returnToMenu(ActionEvent): void&lt;br/&gt;+ RMIon(ActionEvent): boolean&lt;/p&gt;" style="verticalAlign=top;align=left;overflow=fill;fontSize=14;fontFamily=Helvetica;html=1;rounded=0;shadow=0;comic=0;labelBackgroundColor=none;strokeWidth=1;">
      <mxGeometry x="2125" y="1076" width="232" height="407" as="geometry" />
    </mxCell>
    <mxCell id="node91" parent="1" vertex="1" value="&lt;p style=&quot;margin:0px;margin-top:4px;text-align:center;&quot;&gt;&lt;b&gt;ValidMoveMessage&lt;/b&gt;&lt;/p&gt;&lt;hr size=&quot;1&quot;/&gt;&lt;p style=&quot;margin:0 0 0 4px;line-height:1.6;&quot;&gt;- savings: GameSavings&lt;/p&gt;&lt;hr size=&quot;1&quot;/&gt;&lt;p style=&quot;margin:0 0 0 4px;line-height:1.6;&quot;&gt;+ getSavings(): GameSavings&lt;br/&gt;+ setSavings(GameSavings): void&lt;/p&gt;" style="verticalAlign=top;align=left;overflow=fill;fontSize=14;fontFamily=Helvetica;html=1;rounded=0;shadow=0;comic=0;labelBackgroundColor=none;strokeWidth=1;">
      <mxGeometry x="1521" y="845" width="211" height="107" as="geometry" />
    </mxCell>
    <mxCell id="node130" parent="1" vertex="1" value="&lt;p style=&quot;margin:0px;margin-top:4px;text-align:center;&quot;&gt;&lt;b&gt;ValidNicknameMessage&lt;/b&gt;&lt;/p&gt;&lt;hr size=&quot;1&quot;/&gt;" style="verticalAlign=top;align=left;overflow=fill;fontSize=14;fontFamily=Helvetica;html=1;rounded=0;shadow=0;comic=0;labelBackgroundColor=none;strokeWidth=1;">
      <mxGeometry x="4485" y="776" width="200" height="31" as="geometry" />
    </mxCell>
    <mxCell id="node120" parent="1" vertex="1" value="&lt;p style=&quot;margin:0px;margin-top:4px;text-align:center;&quot;&gt;&lt;i&gt;&amp;lt;&amp;lt;interface&amp;gt;&amp;gt;&lt;/i&gt;&lt;br/&gt;&lt;b&gt;View&lt;/b&gt;&lt;/p&gt;&lt;hr size=&quot;1&quot;/&gt;&lt;p style=&quot;margin:0 0 0 4px;line-height:1.6;&quot;&gt;+ player: Player&lt;/p&gt;&lt;hr size=&quot;1&quot;/&gt;&lt;p style=&quot;margin:0 0 0 4px;line-height:1.6;&quot;&gt;+ getPlayer(): Player&lt;/p&gt;" style="verticalAlign=top;align=left;overflow=fill;fontSize=14;fontFamily=Helvetica;html=1;rounded=0;shadow=0;comic=0;labelBackgroundColor=none;strokeWidth=1;">
      <mxGeometry x="1836" y="796" width="144" height="96" as="geometry" />
    </mxCell>
    <mxCell id="node28" parent="1" vertex="1" value="&lt;p style=&quot;margin:0px;margin-top:4px;text-align:center;&quot;&gt;&lt;b&gt;VirtualView&lt;/b&gt;&lt;/p&gt;&lt;hr size=&quot;1&quot;/&gt;&lt;p style=&quot;margin:0 0 0 4px;line-height:1.6;&quot;&gt;- nickName: String&lt;br/&gt;- clientConnection: ServerConnection&lt;/p&gt;&lt;hr size=&quot;1&quot;/&gt;&lt;p style=&quot;margin:0 0 0 4px;line-height:1.6;&quot;&gt;- messageParser(PropertyChangeEvent): ServerMessage&lt;br/&gt;+ getName(): String&lt;br/&gt;+ setNickName(String): void&lt;br/&gt;+ getNickName(): String&lt;br/&gt;+ propertyChange(PropertyChangeEvent): void&lt;/p&gt;" style="verticalAlign=top;align=left;overflow=fill;fontSize=14;fontFamily=Helvetica;html=1;rounded=0;shadow=0;comic=0;labelBackgroundColor=none;strokeWidth=1;">
      <mxGeometry x="6725" y="1842" width="334" height="187" as="geometry" />
    </mxCell>
    <mxCell id="node90" parent="1" vertex="1" value="&lt;p style=&quot;margin:0px;margin-top:4px;text-align:center;&quot;&gt;&lt;b&gt;WinnerController&lt;/b&gt;&lt;/p&gt;&lt;hr size=&quot;1&quot;/&gt;&lt;p style=&quot;margin:0 0 0 4px;line-height:1.6;&quot;&gt;- stage: Stage&lt;br/&gt;- winner: String&lt;br/&gt;- scene: Scene&lt;br/&gt;- winnerLabel: Label&lt;br/&gt;~ menuButton: Button&lt;br/&gt;- leaderbord: GridPane&lt;/p&gt;&lt;hr size=&quot;1&quot;/&gt;&lt;p style=&quot;margin:0 0 0 4px;line-height:1.6;&quot;&gt;+ setWinner(String): void&lt;br/&gt;+ getWinner(): String&lt;br/&gt;+ returnToMenu(ActionEvent): void&lt;br/&gt;+ printWinner(): void&lt;br/&gt;- printLeaderbord(): void&lt;/p&gt;" style="verticalAlign=top;align=left;overflow=fill;fontSize=14;fontFamily=Helvetica;html=1;rounded=0;shadow=0;comic=0;labelBackgroundColor=none;strokeWidth=1;">
      <mxGeometry x="1811" y="1294" width="222" height="275" as="geometry" />
    </mxCell>
    <mxCell id="edge45" edge="1" value="" parent="1" source="node10" target="node62" style="html=1;rounded=1;edgeStyle=orthogonalEdgeStyle;dashed=0;startArrow=none;endArrow=block;endSize=12;strokeColor=#000082;exitX=0.500;exitY=0.000;exitDx=0;exitDy=0;entryX=0.000;entryY=0.500;entryDx=0;entryDy=0;">
      <mxGeometry width="50" height="50" relative="1" as="geometry">
        <Array as="points">
          <mxPoint x="4298" y="894" />
          <mxPoint x="3195" y="894" />
          <mxPoint x="3195" y="1225" />
        </Array>
      </mxGeometry>
    </mxCell>
    <mxCell id="edge51" edge="1" value="" parent="1" source="node111" target="node41" style="html=1;rounded=1;edgeStyle=orthogonalEdgeStyle;dashed=1;startArrow=none;endArrow=block;endSize=12;strokeColor=#008200;exitX=0.000;exitY=0.885;exitDx=0;exitDy=0;entryX=0.500;entryY=1.000;entryDx=0;entryDy=0;">
      <mxGeometry width="50" height="50" relative="1" as="geometry">
        <Array as="points">
          <mxPoint x="1761" y="1018" />
          <mxPoint x="1761" y="1213" />
          <mxPoint x="1302" y="1213" />
        </Array>
      </mxGeometry>
    </mxCell>
    <mxCell id="edge26" edge="1" value="" parent="1" source="node111" target="node120" style="html=1;rounded=1;edgeStyle=orthogonalEdgeStyle;dashed=1;startArrow=none;endArrow=block;endSize=12;strokeColor=#008200;exitX=1.000;exitY=0.500;exitDx=0;exitDy=0;entryX=1.000;entryY=0.500;entryDx=0;entryDy=0;">
      <mxGeometry width="50" height="50" relative="1" as="geometry">
        <Array as="points">
          <mxPoint x="2024" y="989" />
          <mxPoint x="2024" y="834" />
        </Array>
      </mxGeometry>
    </mxCell>
    <mxCell id="edge32" edge="1" value="" parent="1" source="node112" target="node49" style="html=1;rounded=1;edgeStyle=orthogonalEdgeStyle;dashed=0;startArrow=none;endArrow=block;endSize=12;strokeColor=#000082;exitX=0.500;exitY=0.000;exitDx=0;exitDy=0;entryX=0.000;entryY=0.500;entryDx=0;entryDy=0;">
      <mxGeometry width="50" height="50" relative="1" as="geometry">
        <Array as="points">
          <mxPoint x="7497" y="173" />
          <mxPoint x="7540" y="173" />
          <mxPoint x="7540" y="79" />
        </Array>
      </mxGeometry>
    </mxCell>
    <mxCell id="edge3" edge="1" value="" parent="1" source="node112" target="node69" style="html=1;rounded=1;edgeStyle=orthogonalEdgeStyle;dashed=1;startArrow=none;endArrow=block;endSize=12;strokeColor=#008200;exitX=0.000;exitY=0.023;exitDx=0;exitDy=0;entryX=1.000;entryY=0.500;entryDx=0;entryDy=0;">
      <mxGeometry width="50" height="50" relative="1" as="geometry">
        <Array as="points" />
      </mxGeometry>
    </mxCell>
    <mxCell id="edge47" edge="1" value="" parent="1" source="node36" target="node49" style="html=1;rounded=1;edgeStyle=orthogonalEdgeStyle;dashed=0;startArrow=none;endArrow=block;endSize=12;strokeColor=#000082;exitX=0.641;exitY=0.000;exitDx=0;exitDy=0;entryX=0.000;entryY=0.500;entryDx=0;entryDy=0;">
      <mxGeometry width="50" height="50" relative="1" as="geometry">
        <Array as="points">
          <mxPoint x="6915" y="173" />
          <mxPoint x="7540" y="173" />
          <mxPoint x="7540" y="79" />
        </Array>
      </mxGeometry>
    </mxCell>
    <mxCell id="edge72" edge="1" value="" parent="1" source="node14" target="node67" style="html=1;rounded=1;edgeStyle=orthogonalEdgeStyle;dashed=0;startArrow=none;endArrow=block;endSize=12;strokeColor=#000082;exitX=0.500;exitY=0.002;exitDx=0;exitDy=0;entryX=0.000;entryY=0.500;entryDx=0;entryDy=0;">
      <mxGeometry width="50" height="50" relative="1" as="geometry">
        <Array as="points">
          <mxPoint x="9049" y="720" />
          <mxPoint x="8305" y="720" />
          <mxPoint x="8305" y="193" />
          <mxPoint x="7695" y="193" />
          <mxPoint x="7695" y="640" />
        </Array>
      </mxGeometry>
    </mxCell>
    <mxCell id="edge12" edge="1" value="" parent="1" source="node72" target="node41" style="html=1;rounded=1;edgeStyle=orthogonalEdgeStyle;dashed=1;startArrow=none;endArrow=block;endSize=12;strokeColor=#008200;exitX=1.000;exitY=0.500;exitDx=0;exitDy=0;entryX=0.500;entryY=1.000;entryDx=0;entryDy=0;">
      <mxGeometry width="50" height="50" relative="1" as="geometry">
        <Array as="points">
          <mxPoint x="1126" y="1309" />
          <mxPoint x="1126" y="1213" />
          <mxPoint x="1302" y="1213" />
        </Array>
      </mxGeometry>
    </mxCell>
    <mxCell id="edge66" edge="1" value="" parent="1" source="node67" target="node18" style="html=1;rounded=1;edgeStyle=orthogonalEdgeStyle;dashed=0;startArrow=none;endArrow=block;endSize=12;strokeColor=#000082;exitX=0.000;exitY=0.652;exitDx=0;exitDy=0;entryX=1.000;entryY=0.777;entryDx=0;entryDy=0;">
      <mxGeometry width="50" height="50" relative="1" as="geometry">
        <Array as="points">
          <mxPoint x="7028" y="655" />
          <mxPoint x="7028" y="750" />
          <mxPoint x="6480" y="750" />
          <mxPoint x="6480" y="879" />
        </Array>
      </mxGeometry>
    </mxCell>
    <mxCell id="edge50" edge="1" value="" parent="1" source="node110" target="node67" style="html=1;rounded=1;edgeStyle=orthogonalEdgeStyle;dashed=0;startArrow=none;endArrow=block;endSize=12;strokeColor=#000082;exitX=1.000;exitY=0.500;exitDx=0;exitDy=0;entryX=0.000;entryY=0.500;entryDx=0;entryDy=0;">
      <mxGeometry width="50" height="50" relative="1" as="geometry">
        <Array as="points">
          <mxPoint x="8305" y="1145" />
          <mxPoint x="8305" y="193" />
          <mxPoint x="7695" y="193" />
          <mxPoint x="7695" y="640" />
        </Array>
      </mxGeometry>
    </mxCell>
    <mxCell id="edge54" edge="1" value="" parent="1" source="node132" target="node67" style="html=1;rounded=1;edgeStyle=orthogonalEdgeStyle;dashed=0;startArrow=none;endArrow=block;endSize=12;strokeColor=#000082;exitX=1.000;exitY=0.500;exitDx=0;exitDy=0;entryX=0.000;entryY=0.500;entryDx=0;entryDy=0;">
      <mxGeometry width="50" height="50" relative="1" as="geometry">
        <Array as="points">
          <mxPoint x="8305" y="1415" />
          <mxPoint x="8305" y="193" />
          <mxPoint x="7695" y="193" />
          <mxPoint x="7695" y="640" />
        </Array>
      </mxGeometry>
    </mxCell>
    <mxCell id="edge40" edge="1" value="" parent="1" source="node129" target="node62" style="html=1;rounded=1;edgeStyle=orthogonalEdgeStyle;dashed=0;startArrow=none;endArrow=block;endSize=12;strokeColor=#000082;exitX=0.000;exitY=0.500;exitDx=0;exitDy=0;entryX=0.000;entryY=0.500;entryDx=0;entryDy=0;">
      <mxGeometry width="50" height="50" relative="1" as="geometry">
        <Array as="points">
          <mxPoint x="3195" y="1090" />
          <mxPoint x="3195" y="1225" />
        </Array>
      </mxGeometry>
    </mxCell>
    <mxCell id="edge35" edge="1" value="" parent="1" source="node47" target="node124" style="html=1;rounded=1;edgeStyle=orthogonalEdgeStyle;dashed=1;startArrow=none;endArrow=block;endSize=12;strokeColor=#008200;exitX=0.500;exitY=0.000;exitDx=0;exitDy=0;entryX=0.432;entryY=0.000;entryDx=0;entryDy=0;">
      <mxGeometry width="50" height="50" relative="1" as="geometry">
        <Array as="points">
          <mxPoint x="2516" y="957" />
          <mxPoint x="2706" y="957" />
          <mxPoint x="2706" y="562" />
          <mxPoint x="3729" y="562" />
          <mxPoint x="3729" y="639" />
          <mxPoint x="4425" y="639" />
          <mxPoint x="4425" y="1094" />
          <mxPoint x="4657" y="1094" />
          <mxPoint x="4657" y="1312" />
          <mxPoint x="4716" y="1312" />
        </Array>
      </mxGeometry>
    </mxCell>
    <mxCell id="edge0" edge="1" value="" parent="1" source="node47" target="node126" style="html=1;rounded=1;edgeStyle=orthogonalEdgeStyle;dashed=0;startArrow=none;endArrow=block;endSize=12;strokeColor=#000082;exitX=1.000;exitY=0.969;exitDx=0;exitDy=0;entryX=1.000;entryY=0.500;entryDx=0;entryDy=0;">
      <mxGeometry width="50" height="50" relative="1" as="geometry">
        <Array as="points">
          <mxPoint x="3162" y="1230" />
          <mxPoint x="3162" y="879" />
          <mxPoint x="3821" y="879" />
          <mxPoint x="3821" y="1149" />
        </Array>
      </mxGeometry>
    </mxCell>
    <mxCell id="edge73" edge="1" value="" parent="1" source="node64" target="node124" style="html=1;rounded=1;edgeStyle=orthogonalEdgeStyle;dashed=1;startArrow=none;endArrow=block;endSize=12;strokeColor=#008200;exitX=0.500;exitY=0.000;exitDx=0;exitDy=0;entryX=0.432;entryY=0.000;entryDx=0;entryDy=0;">
      <mxGeometry width="50" height="50" relative="1" as="geometry">
        <Array as="points">
          <mxPoint x="4985" y="496" />
          <mxPoint x="3729" y="496" />
          <mxPoint x="3729" y="639" />
          <mxPoint x="4425" y="639" />
          <mxPoint x="4425" y="1094" />
          <mxPoint x="4657" y="1094" />
          <mxPoint x="4657" y="1312" />
          <mxPoint x="4716" y="1312" />
        </Array>
      </mxGeometry>
    </mxCell>
    <mxCell id="edge71" edge="1" value="" parent="1" source="node64" target="node126" style="html=1;rounded=1;edgeStyle=orthogonalEdgeStyle;dashed=0;startArrow=none;endArrow=block;endSize=12;strokeColor=#000082;exitX=0.000;exitY=0.500;exitDx=0;exitDy=0;entryX=1.000;entryY=0.500;entryDx=0;entryDy=0;">
      <mxGeometry width="50" height="50" relative="1" as="geometry">
        <Array as="points">
          <mxPoint x="4716" y="600" />
          <mxPoint x="4716" y="879" />
          <mxPoint x="3821" y="879" />
          <mxPoint x="3821" y="1149" />
        </Array>
      </mxGeometry>
    </mxCell>
    <mxCell id="edge38" edge="1" value="" parent="1" source="node20" target="node124" style="html=1;rounded=1;edgeStyle=orthogonalEdgeStyle;dashed=1;startArrow=none;endArrow=block;endSize=12;strokeColor=#008200;exitX=0.000;exitY=0.394;exitDx=0;exitDy=0;entryX=0.432;entryY=0.000;entryDx=0;entryDy=0;">
      <mxGeometry width="50" height="50" relative="1" as="geometry">
        <Array as="points">
          <mxPoint x="4733" y="1282" />
          <mxPoint x="4733" y="1312" />
          <mxPoint x="4716" y="1312" />
        </Array>
      </mxGeometry>
    </mxCell>
    <mxCell id="edge36" edge="1" value="" parent="1" source="node20" target="node126" style="html=1;rounded=1;edgeStyle=orthogonalEdgeStyle;dashed=0;startArrow=none;endArrow=block;endSize=12;strokeColor=#000082;exitX=0.000;exitY=0.500;exitDx=0;exitDy=0;entryX=1.000;entryY=0.500;entryDx=0;entryDy=0;">
      <mxGeometry width="50" height="50" relative="1" as="geometry">
        <Array as="points">
          <mxPoint x="4716" y="1297" />
          <mxPoint x="4716" y="879" />
          <mxPoint x="3821" y="879" />
          <mxPoint x="3821" y="1149" />
        </Array>
      </mxGeometry>
    </mxCell>
    <mxCell id="edge9" edge="1" value="" parent="1" source="node34" target="node124" style="html=1;rounded=1;edgeStyle=orthogonalEdgeStyle;dashed=1;startArrow=none;endArrow=block;endSize=12;strokeColor=#008200;exitX=0.718;exitY=0.000;exitDx=0;exitDy=0;entryX=0.432;entryY=0.000;entryDx=0;entryDy=0;">
      <mxGeometry width="50" height="50" relative="1" as="geometry">
        <Array as="points">
          <mxPoint x="3079" y="639" />
          <mxPoint x="4425" y="639" />
          <mxPoint x="4425" y="1094" />
          <mxPoint x="4657" y="1094" />
          <mxPoint x="4657" y="1312" />
          <mxPoint x="4716" y="1312" />
        </Array>
      </mxGeometry>
    </mxCell>
    <mxCell id="edge24" edge="1" value="" parent="1" source="node34" target="node126" style="html=1;rounded=1;edgeStyle=orthogonalEdgeStyle;dashed=0;startArrow=none;endArrow=block;endSize=12;strokeColor=#000082;exitX=0.656;exitY=0.000;exitDx=0;exitDy=0;entryX=1.000;entryY=0.500;entryDx=0;entryDy=0;">
      <mxGeometry width="50" height="50" relative="1" as="geometry">
        <Array as="points">
          <mxPoint x="3064" y="879" />
          <mxPoint x="3821" y="879" />
          <mxPoint x="3821" y="1149" />
        </Array>
      </mxGeometry>
    </mxCell>
    <mxCell id="edge69" edge="1" value="" parent="1" source="node60" target="node124" style="html=1;rounded=1;edgeStyle=orthogonalEdgeStyle;dashed=1;startArrow=none;endArrow=block;endSize=12;strokeColor=#008200;exitX=0.479;exitY=0.000;exitDx=0;exitDy=0;entryX=0.432;entryY=0.000;entryDx=0;entryDy=0;">
      <mxGeometry width="50" height="50" relative="1" as="geometry">
        <Array as="points">
          <mxPoint x="5789" y="641" />
          <mxPoint x="5323" y="641" />
          <mxPoint x="5323" y="496" />
          <mxPoint x="3729" y="496" />
          <mxPoint x="3729" y="639" />
          <mxPoint x="4425" y="639" />
          <mxPoint x="4425" y="1094" />
          <mxPoint x="4657" y="1094" />
          <mxPoint x="4657" y="1312" />
          <mxPoint x="4716" y="1312" />
        </Array>
      </mxGeometry>
    </mxCell>
    <mxCell id="edge65" edge="1" value="" parent="1" source="node60" target="node126" style="html=1;rounded=1;edgeStyle=orthogonalEdgeStyle;dashed=0;startArrow=none;endArrow=block;endSize=12;strokeColor=#000082;exitX=0.000;exitY=0.606;exitDx=0;exitDy=0;entryX=1.000;entryY=0.500;entryDx=0;entryDy=0;">
      <mxGeometry width="50" height="50" relative="1" as="geometry">
        <Array as="points">
          <mxPoint x="5316" y="1077" />
          <mxPoint x="5316" y="1027" />
          <mxPoint x="4716" y="1027" />
          <mxPoint x="4716" y="879" />
          <mxPoint x="3821" y="879" />
          <mxPoint x="3821" y="1149" />
        </Array>
      </mxGeometry>
    </mxCell>
    <mxCell id="edge48" edge="1" value="" parent="1" source="node26" target="node124" style="html=1;rounded=1;edgeStyle=orthogonalEdgeStyle;dashed=1;startArrow=none;endArrow=block;endSize=12;strokeColor=#008200;exitX=0.557;exitY=0.000;exitDx=0;exitDy=0;entryX=0.432;entryY=0.000;entryDx=0;entryDy=0;">
      <mxGeometry width="50" height="50" relative="1" as="geometry">
        <Array as="points">
          <mxPoint x="3858" y="1507" />
          <mxPoint x="4852" y="1507" />
          <mxPoint x="4852" y="1312" />
          <mxPoint x="4716" y="1312" />
        </Array>
      </mxGeometry>
    </mxCell>
    <mxCell id="edge27" edge="1" value="" parent="1" source="node26" target="node126" style="html=1;rounded=1;edgeStyle=orthogonalEdgeStyle;dashed=0;startArrow=none;endArrow=block;endSize=12;strokeColor=#000082;exitX=0.172;exitY=0.000;exitDx=0;exitDy=0;entryX=1.000;entryY=0.500;entryDx=0;entryDy=0;">
      <mxGeometry width="50" height="50" relative="1" as="geometry">
        <Array as="points">
          <mxPoint x="3783" y="1444" />
          <mxPoint x="3821" y="1444" />
          <mxPoint x="3821" y="1149" />
        </Array>
      </mxGeometry>
    </mxCell>
    <mxCell id="edge37" edge="1" value="" parent="1" source="node3" target="node124" style="html=1;rounded=1;edgeStyle=orthogonalEdgeStyle;dashed=1;startArrow=none;endArrow=block;endSize=12;strokeColor=#008200;exitX=1.000;exitY=0.572;exitDx=0;exitDy=0;entryX=0.432;entryY=0.000;entryDx=0;entryDy=0;">
      <mxGeometry width="50" height="50" relative="1" as="geometry">
        <Array as="points">
          <mxPoint x="2706" y="537" />
          <mxPoint x="2706" y="562" />
          <mxPoint x="3729" y="562" />
          <mxPoint x="3729" y="639" />
          <mxPoint x="4425" y="639" />
          <mxPoint x="4425" y="1094" />
          <mxPoint x="4657" y="1094" />
          <mxPoint x="4657" y="1312" />
          <mxPoint x="4716" y="1312" />
        </Array>
      </mxGeometry>
    </mxCell>
    <mxCell id="edge5" edge="1" value="" parent="1" source="node3" target="node126" style="html=1;rounded=1;edgeStyle=orthogonalEdgeStyle;dashed=0;startArrow=none;endArrow=block;endSize=12;strokeColor=#000082;exitX=1.000;exitY=0.500;exitDx=0;exitDy=0;entryX=1.000;entryY=0.500;entryDx=0;entryDy=0;">
      <mxGeometry width="50" height="50" relative="1" as="geometry">
        <Array as="points">
          <mxPoint x="3180" y="475" />
          <mxPoint x="3180" y="879" />
          <mxPoint x="3821" y="879" />
          <mxPoint x="3821" y="1149" />
        </Array>
      </mxGeometry>
    </mxCell>
    <mxCell id="edge22" edge="1" value="" parent="1" source="node94" target="node124" style="html=1;rounded=1;edgeStyle=orthogonalEdgeStyle;dashed=1;startArrow=none;endArrow=block;endSize=12;strokeColor=#008200;exitX=0.025;exitY=0.000;exitDx=0;exitDy=0;entryX=0.432;entryY=0.000;entryDx=0;entryDy=0;">
      <mxGeometry width="50" height="50" relative="1" as="geometry">
        <Array as="points">
          <mxPoint x="4756" y="639" />
          <mxPoint x="4425" y="639" />
          <mxPoint x="4425" y="1094" />
          <mxPoint x="4657" y="1094" />
          <mxPoint x="4657" y="1312" />
          <mxPoint x="4716" y="1312" />
        </Array>
      </mxGeometry>
    </mxCell>
    <mxCell id="edge63" edge="1" value="" parent="1" source="node94" target="node126" style="html=1;rounded=1;edgeStyle=orthogonalEdgeStyle;dashed=0;startArrow=none;endArrow=block;endSize=12;strokeColor=#000082;exitX=0.000;exitY=0.500;exitDx=0;exitDy=0;entryX=1.000;entryY=0.500;entryDx=0;entryDy=0;">
      <mxGeometry width="50" height="50" relative="1" as="geometry">
        <Array as="points">
          <mxPoint x="4716" y="916" />
          <mxPoint x="4716" y="879" />
          <mxPoint x="3821" y="879" />
          <mxPoint x="3821" y="1149" />
        </Array>
      </mxGeometry>
    </mxCell>
    <mxCell id="edge30" edge="1" value="" parent="1" source="node43" target="node124" style="html=1;rounded=1;edgeStyle=orthogonalEdgeStyle;dashed=1;startArrow=none;endArrow=block;endSize=12;strokeColor=#008200;exitX=0.000;exitY=0.303;exitDx=0;exitDy=0;entryX=0.432;entryY=0.000;entryDx=0;entryDy=0;">
      <mxGeometry width="50" height="50" relative="1" as="geometry">
        <Array as="points">
          <mxPoint x="4733" y="1113" />
          <mxPoint x="4733" y="1312" />
          <mxPoint x="4716" y="1312" />
        </Array>
      </mxGeometry>
    </mxCell>
    <mxCell id="edge56" edge="1" value="" parent="1" source="node43" target="node126" style="html=1;rounded=1;edgeStyle=orthogonalEdgeStyle;dashed=0;startArrow=none;endArrow=block;endSize=12;strokeColor=#000082;exitX=0.000;exitY=0.500;exitDx=0;exitDy=0;entryX=1.000;entryY=0.500;entryDx=0;entryDy=0;">
      <mxGeometry width="50" height="50" relative="1" as="geometry">
        <Array as="points">
          <mxPoint x="4716" y="1128" />
          <mxPoint x="4716" y="879" />
          <mxPoint x="3821" y="879" />
          <mxPoint x="3821" y="1149" />
        </Array>
      </mxGeometry>
    </mxCell>
    <mxCell id="edge62" edge="1" value="" parent="1" source="node99" target="node124" style="html=1;rounded=1;edgeStyle=orthogonalEdgeStyle;dashed=1;startArrow=none;endArrow=block;endSize=12;strokeColor=#008200;exitX=1.000;exitY=0.340;exitDx=0;exitDy=0;entryX=0.432;entryY=0.000;entryDx=0;entryDy=0;">
      <mxGeometry width="50" height="50" relative="1" as="geometry">
        <Array as="points">
          <mxPoint x="4657" y="1203" />
          <mxPoint x="4657" y="1312" />
          <mxPoint x="4716" y="1312" />
        </Array>
      </mxGeometry>
    </mxCell>
    <mxCell id="edge49" edge="1" value="" parent="1" source="node99" target="node126" style="html=1;rounded=1;edgeStyle=orthogonalEdgeStyle;dashed=0;startArrow=none;endArrow=block;endSize=12;strokeColor=#000082;exitX=1.000;exitY=0.500;exitDx=0;exitDy=0;entryX=1.000;entryY=0.500;entryDx=0;entryDy=0;">
      <mxGeometry width="50" height="50" relative="1" as="geometry">
        <Array as="points">
          <mxPoint x="4716" y="1222" />
          <mxPoint x="4716" y="879" />
          <mxPoint x="3821" y="879" />
          <mxPoint x="3821" y="1149" />
        </Array>
      </mxGeometry>
    </mxCell>
    <mxCell id="edge11" edge="1" value="" parent="1" source="node17" target="node124" style="html=1;rounded=1;edgeStyle=orthogonalEdgeStyle;dashed=1;startArrow=none;endArrow=block;endSize=12;strokeColor=#008200;exitX=0.500;exitY=0.000;exitDx=0;exitDy=0;entryX=0.432;entryY=0.000;entryDx=0;entryDy=0;">
      <mxGeometry width="50" height="50" relative="1" as="geometry">
        <Array as="points">
          <mxPoint x="3999" y="639" />
          <mxPoint x="4425" y="639" />
          <mxPoint x="4425" y="1094" />
          <mxPoint x="4657" y="1094" />
          <mxPoint x="4657" y="1312" />
          <mxPoint x="4716" y="1312" />
        </Array>
      </mxGeometry>
    </mxCell>
    <mxCell id="edge19" edge="1" value="" parent="1" source="node17" target="node126" style="html=1;rounded=1;edgeStyle=orthogonalEdgeStyle;dashed=0;startArrow=none;endArrow=block;endSize=12;strokeColor=#000082;exitX=0.500;exitY=1.000;exitDx=0;exitDy=0;entryX=1.000;entryY=0.500;entryDx=0;entryDy=0;">
      <mxGeometry width="50" height="50" relative="1" as="geometry">
        <Array as="points">
          <mxPoint x="3999" y="879" />
          <mxPoint x="3821" y="879" />
          <mxPoint x="3821" y="1149" />
        </Array>
      </mxGeometry>
    </mxCell>
    <mxCell id="edge10" edge="1" value="" parent="1" source="node22" target="node124" style="html=1;rounded=1;edgeStyle=orthogonalEdgeStyle;dashed=1;startArrow=none;endArrow=block;endSize=12;strokeColor=#008200;exitX=1.000;exitY=0.178;exitDx=0;exitDy=0;entryX=0.432;entryY=0.000;entryDx=0;entryDy=0;">
      <mxGeometry width="50" height="50" relative="1" as="geometry">
        <Array as="points">
          <mxPoint x="3536" y="1404" />
          <mxPoint x="3536" y="961" />
          <mxPoint x="3431" y="961" />
          <mxPoint x="3431" y="639" />
          <mxPoint x="4425" y="639" />
          <mxPoint x="4425" y="1094" />
          <mxPoint x="4657" y="1094" />
          <mxPoint x="4657" y="1312" />
          <mxPoint x="4716" y="1312" />
        </Array>
      </mxGeometry>
    </mxCell>
    <mxCell id="edge15" edge="1" value="" parent="1" source="node22" target="node126" style="html=1;rounded=1;edgeStyle=orthogonalEdgeStyle;dashed=0;startArrow=none;endArrow=block;endSize=12;strokeColor=#000082;exitX=1.000;exitY=0.269;exitDx=0;exitDy=0;entryX=1.000;entryY=0.500;entryDx=0;entryDy=0;">
      <mxGeometry width="50" height="50" relative="1" as="geometry">
        <Array as="points">
          <mxPoint x="3821" y="1419" />
          <mxPoint x="3821" y="1149" />
        </Array>
      </mxGeometry>
    </mxCell>
    <mxCell id="edge59" edge="1" value="" parent="1" source="node133" target="node67" style="html=1;rounded=1;edgeStyle=orthogonalEdgeStyle;dashed=0;startArrow=none;endArrow=block;endSize=12;strokeColor=#000082;exitX=0.500;exitY=0.001;exitDx=0;exitDy=0;entryX=0.000;entryY=0.500;entryDx=0;entryDy=0;">
      <mxGeometry width="50" height="50" relative="1" as="geometry">
        <Array as="points">
          <mxPoint x="8769" y="720" />
          <mxPoint x="8305" y="720" />
          <mxPoint x="8305" y="193" />
          <mxPoint x="7695" y="193" />
          <mxPoint x="7695" y="640" />
        </Array>
      </mxGeometry>
    </mxCell>
    <mxCell id="edge14" edge="1" value="" parent="1" source="node25" target="node62" style="html=1;rounded=1;edgeStyle=orthogonalEdgeStyle;dashed=0;startArrow=none;endArrow=block;endSize=12;strokeColor=#000082;exitX=0.500;exitY=0.001;exitDx=0;exitDy=0;entryX=0.000;entryY=0.500;entryDx=0;entryDy=0;">
      <mxGeometry width="50" height="50" relative="1" as="geometry">
        <Array as="points">
          <mxPoint x="1894" y="23" />
          <mxPoint x="3250" y="23" />
          <mxPoint x="3250" y="389" />
          <mxPoint x="3195" y="389" />
          <mxPoint x="3195" y="1225" />
        </Array>
      </mxGeometry>
    </mxCell>
    <mxCell id="edge34" edge="1" value="" parent="1" source="node33" target="node62" style="html=1;rounded=1;edgeStyle=orthogonalEdgeStyle;dashed=0;startArrow=none;endArrow=block;endSize=12;strokeColor=#000082;exitX=0.500;exitY=0.002;exitDx=0;exitDy=0;entryX=0.000;entryY=0.500;entryDx=0;entryDy=0;">
      <mxGeometry width="50" height="50" relative="1" as="geometry">
        <Array as="points">
          <mxPoint x="3172" y="894" />
          <mxPoint x="3195" y="894" />
          <mxPoint x="3195" y="1225" />
        </Array>
      </mxGeometry>
    </mxCell>
    <mxCell id="edge74" edge="1" value="" parent="1" source="node106" target="node62" style="html=1;rounded=1;edgeStyle=orthogonalEdgeStyle;dashed=0;startArrow=none;endArrow=block;endSize=12;strokeColor=#000082;exitX=0.500;exitY=0.001;exitDx=0;exitDy=0;entryX=0.000;entryY=0.500;entryDx=0;entryDy=0;">
      <mxGeometry width="50" height="50" relative="1" as="geometry">
        <Array as="points">
          <mxPoint x="5895" y="-32" />
          <mxPoint x="4012" y="-32" />
          <mxPoint x="4012" y="389" />
          <mxPoint x="3195" y="389" />
          <mxPoint x="3195" y="1225" />
        </Array>
      </mxGeometry>
    </mxCell>
    <mxCell id="edge39" edge="1" value="" parent="1" source="node68" target="node41" style="html=1;rounded=1;edgeStyle=orthogonalEdgeStyle;dashed=1;startArrow=none;endArrow=block;endSize=12;strokeColor=#008200;exitX=0.000;exitY=0.500;exitDx=0;exitDy=0;entryX=0.500;entryY=1.000;entryDx=0;entryDy=0;">
      <mxGeometry width="50" height="50" relative="1" as="geometry">
        <Array as="points">
          <mxPoint x="1126" y="1330" />
          <mxPoint x="1126" y="1213" />
          <mxPoint x="1302" y="1213" />
        </Array>
      </mxGeometry>
    </mxCell>
    <mxCell id="edge53" edge="1" value="" parent="1" source="node55" target="node62" style="html=1;rounded=1;edgeStyle=orthogonalEdgeStyle;dashed=0;startArrow=none;endArrow=block;endSize=12;strokeColor=#000082;exitX=0.500;exitY=0.001;exitDx=0;exitDy=0;entryX=0.000;entryY=0.500;entryDx=0;entryDy=0;">
      <mxGeometry width="50" height="50" relative="1" as="geometry">
        <Array as="points">
          <mxPoint x="4579" y="894" />
          <mxPoint x="3195" y="894" />
          <mxPoint x="3195" y="1225" />
        </Array>
      </mxGeometry>
    </mxCell>
    <mxCell id="edge17" edge="1" value="" parent="1" source="node108" target="node19" style="html=1;rounded=1;edgeStyle=orthogonalEdgeStyle;dashed=0;startArrow=none;endArrow=block;endSize=12;strokeColor=#000082;exitX=0.500;exitY=0.001;exitDx=0;exitDy=0;entryX=0.000;entryY=0.500;entryDx=0;entryDy=0;">
      <mxGeometry width="50" height="50" relative="1" as="geometry">
        <Array as="points">
          <mxPoint x="8844" y="1544" />
          <mxPoint x="8359" y="1544" />
          <mxPoint x="8359" y="1474" />
        </Array>
      </mxGeometry>
    </mxCell>
    <mxCell id="edge41" edge="1" value="" parent="1" source="node31" target="node62" style="html=1;rounded=1;edgeStyle=orthogonalEdgeStyle;dashed=0;startArrow=none;endArrow=block;endSize=12;strokeColor=#000082;exitX=0.500;exitY=1.001;exitDx=0;exitDy=0;entryX=0.000;entryY=0.500;entryDx=0;entryDy=0;">
      <mxGeometry width="50" height="50" relative="1" as="geometry">
        <Array as="points">
          <mxPoint x="3517" y="894" />
          <mxPoint x="3195" y="894" />
          <mxPoint x="3195" y="1225" />
        </Array>
      </mxGeometry>
    </mxCell>
    <mxCell id="edge60" edge="1" value="" parent="1" source="node59" target="node120" style="html=1;rounded=1;edgeStyle=orthogonalEdgeStyle;dashed=1;startArrow=none;endArrow=block;endSize=12;strokeColor=#008200;exitX=0.000;exitY=0.500;exitDx=0;exitDy=0;entryX=1.000;entryY=0.500;entryDx=0;entryDy=0;">
      <mxGeometry width="50" height="50" relative="1" as="geometry">
        <Array as="points">
          <mxPoint x="2024" y="723" />
          <mxPoint x="2024" y="834" />
        </Array>
      </mxGeometry>
    </mxCell>
    <mxCell id="edge28" edge="1" value="" parent="1" source="node11" target="node62" style="html=1;rounded=1;edgeStyle=orthogonalEdgeStyle;dashed=0;startArrow=none;endArrow=block;endSize=12;strokeColor=#000082;exitX=0.500;exitY=0.000;exitDx=0;exitDy=0;entryX=0.000;entryY=0.500;entryDx=0;entryDy=0;">
      <mxGeometry width="50" height="50" relative="1" as="geometry">
        <Array as="points">
          <mxPoint x="2890" y="537" />
          <mxPoint x="3103" y="537" />
          <mxPoint x="3103" y="23" />
          <mxPoint x="3250" y="23" />
          <mxPoint x="3250" y="389" />
          <mxPoint x="3195" y="389" />
          <mxPoint x="3195" y="1225" />
        </Array>
      </mxGeometry>
    </mxCell>
    <mxCell id="edge67" edge="1" value="" parent="1" source="node80" target="node62" style="html=1;rounded=1;edgeStyle=orthogonalEdgeStyle;dashed=0;startArrow=none;endArrow=block;endSize=12;strokeColor=#000082;exitX=0.500;exitY=0.001;exitDx=0;exitDy=0;entryX=0.000;entryY=0.500;entryDx=0;entryDy=0;">
      <mxGeometry width="50" height="50" relative="1" as="geometry">
        <Array as="points">
          <mxPoint x="5787" y="-32" />
          <mxPoint x="4012" y="-32" />
          <mxPoint x="4012" y="389" />
          <mxPoint x="3195" y="389" />
          <mxPoint x="3195" y="1225" />
        </Array>
      </mxGeometry>
    </mxCell>
    <mxCell id="edge2" edge="1" value="" parent="1" source="node44" target="node62" style="html=1;rounded=1;edgeStyle=orthogonalEdgeStyle;dashed=0;startArrow=none;endArrow=block;endSize=12;strokeColor=#000082;exitX=0.500;exitY=0.000;exitDx=0;exitDy=0;entryX=0.000;entryY=0.500;entryDx=0;entryDy=0;">
      <mxGeometry width="50" height="50" relative="1" as="geometry">
        <Array as="points">
          <mxPoint x="1033" y="-32" />
          <mxPoint x="3103" y="-32" />
          <mxPoint x="3103" y="23" />
          <mxPoint x="3250" y="23" />
          <mxPoint x="3250" y="389" />
          <mxPoint x="3195" y="389" />
          <mxPoint x="3195" y="1225" />
        </Array>
      </mxGeometry>
    </mxCell>
    <mxCell id="edge46" edge="1" value="" parent="1" source="node39" target="node67" style="html=1;rounded=1;edgeStyle=orthogonalEdgeStyle;dashed=0;startArrow=none;endArrow=block;endSize=12;strokeColor=#000082;exitX=0.000;exitY=0.500;exitDx=0;exitDy=0;entryX=0.000;entryY=0.500;entryDx=0;entryDy=0;">
      <mxGeometry width="50" height="50" relative="1" as="geometry">
        <Array as="points">
          <mxPoint x="7695" y="1113" />
          <mxPoint x="7695" y="720" />
          <mxPoint x="8305" y="720" />
          <mxPoint x="8305" y="193" />
          <mxPoint x="7695" y="193" />
          <mxPoint x="7695" y="640" />
        </Array>
      </mxGeometry>
    </mxCell>
    <mxCell id="edge8" edge="1" value="" parent="1" source="node123" target="node67" style="html=1;rounded=1;edgeStyle=orthogonalEdgeStyle;dashed=0;startArrow=none;endArrow=block;endSize=12;strokeColor=#000082;exitX=0.500;exitY=0.001;exitDx=0;exitDy=0;entryX=0.000;entryY=0.500;entryDx=0;entryDy=0;">
      <mxGeometry width="50" height="50" relative="1" as="geometry">
        <Array as="points">
          <mxPoint x="6568" y="193" />
          <mxPoint x="7695" y="193" />
          <mxPoint x="7695" y="640" />
        </Array>
      </mxGeometry>
    </mxCell>
    <mxCell id="edge16" edge="1" value="" parent="1" source="node87" target="node62" style="html=1;rounded=1;edgeStyle=orthogonalEdgeStyle;dashed=0;startArrow=none;endArrow=block;endSize=12;strokeColor=#000082;exitX=0.500;exitY=0.000;exitDx=0;exitDy=0;entryX=0.000;entryY=0.500;entryDx=0;entryDy=0;">
      <mxGeometry width="50" height="50" relative="1" as="geometry">
        <Array as="points">
          <mxPoint x="2157" y="23" />
          <mxPoint x="3250" y="23" />
          <mxPoint x="3250" y="389" />
          <mxPoint x="3195" y="389" />
          <mxPoint x="3195" y="1225" />
        </Array>
      </mxGeometry>
    </mxCell>
    <mxCell id="edge43" edge="1" value="" parent="1" source="node82" target="node67" style="html=1;rounded=1;edgeStyle=orthogonalEdgeStyle;dashed=0;startArrow=none;endArrow=block;endSize=12;strokeColor=#000082;exitX=0.500;exitY=1.000;exitDx=0;exitDy=0;entryX=0.000;entryY=0.500;entryDx=0;entryDy=0;">
      <mxGeometry width="50" height="50" relative="1" as="geometry">
        <Array as="points">
          <mxPoint x="7426" y="193" />
          <mxPoint x="7695" y="193" />
          <mxPoint x="7695" y="640" />
        </Array>
      </mxGeometry>
    </mxCell>
    <mxCell id="edge64" edge="1" value="" parent="1" source="node37" target="node41" style="html=1;rounded=1;edgeStyle=orthogonalEdgeStyle;dashed=1;startArrow=none;endArrow=block;endSize=12;strokeColor=#008200;exitX=0.500;exitY=1.000;exitDx=0;exitDy=0;entryX=0.500;entryY=1.000;entryDx=0;entryDy=0;">
      <mxGeometry width="50" height="50" relative="1" as="geometry">
        <Array as="points">
          <mxPoint x="1600" y="1213" />
          <mxPoint x="1302" y="1213" />
        </Array>
      </mxGeometry>
    </mxCell>
    <mxCell id="edge44" edge="1" value="" parent="1" source="node96" target="node73" style="html=1;rounded=1;edgeStyle=orthogonalEdgeStyle;dashed=0;startArrow=none;endArrow=block;endSize=12;strokeColor=#000082;exitX=0.000;exitY=0.500;exitDx=0;exitDy=0;entryX=1.000;entryY=0.500;entryDx=0;entryDy=0;">
      <mxGeometry width="50" height="50" relative="1" as="geometry">
        <Array as="points">
          <mxPoint x="6441" y="615" />
          <mxPoint x="6441" y="656" />
        </Array>
      </mxGeometry>
    </mxCell>
    <mxCell id="edge25" edge="1" value="" parent="1" source="node51" target="node73" style="html=1;rounded=1;edgeStyle=orthogonalEdgeStyle;dashed=0;startArrow=none;endArrow=block;endSize=12;strokeColor=#000082;exitX=0.500;exitY=0.000;exitDx=0;exitDy=0;entryX=1.000;entryY=0.500;entryDx=0;entryDy=0;">
      <mxGeometry width="50" height="50" relative="1" as="geometry">
        <Array as="points">
          <mxPoint x="6322" y="701" />
          <mxPoint x="6441" y="701" />
          <mxPoint x="6441" y="656" />
        </Array>
      </mxGeometry>
    </mxCell>
    <mxCell id="edge33" edge="1" value="" parent="1" source="node30" target="node73" style="html=1;rounded=1;edgeStyle=orthogonalEdgeStyle;dashed=0;startArrow=none;endArrow=block;endSize=12;strokeColor=#000082;exitX=1.000;exitY=0.648;exitDx=0;exitDy=0;entryX=1.000;entryY=0.500;entryDx=0;entryDy=0;">
      <mxGeometry width="50" height="50" relative="1" as="geometry">
        <Array as="points">
          <mxPoint x="6441" y="507" />
          <mxPoint x="6441" y="656" />
        </Array>
      </mxGeometry>
    </mxCell>
    <mxCell id="edge21" edge="1" value="" parent="1" source="node15" target="node67" style="html=1;rounded=1;edgeStyle=orthogonalEdgeStyle;dashed=0;startArrow=none;endArrow=block;endSize=12;strokeColor=#000082;exitX=0.500;exitY=0.001;exitDx=0;exitDy=0;entryX=0.000;entryY=0.500;entryDx=0;entryDy=0;">
      <mxGeometry width="50" height="50" relative="1" as="geometry">
        <Array as="points">
          <mxPoint x="6812" y="193" />
          <mxPoint x="7695" y="193" />
          <mxPoint x="7695" y="640" />
        </Array>
      </mxGeometry>
    </mxCell>
    <mxCell id="edge31" edge="1" value="" parent="1" source="node98" target="node67" style="html=1;rounded=1;edgeStyle=orthogonalEdgeStyle;dashed=0;startArrow=none;endArrow=block;endSize=12;strokeColor=#000082;exitX=0.500;exitY=1.001;exitDx=0;exitDy=0;entryX=0.000;entryY=0.500;entryDx=0;entryDy=0;">
      <mxGeometry width="50" height="50" relative="1" as="geometry">
        <Array as="points">
          <mxPoint x="7155" y="193" />
          <mxPoint x="7695" y="193" />
          <mxPoint x="7695" y="640" />
        </Array>
      </mxGeometry>
    </mxCell>
    <mxCell id="edge29" edge="1" value="" parent="1" source="node12" target="node62" style="html=1;rounded=1;edgeStyle=orthogonalEdgeStyle;dashed=0;startArrow=none;endArrow=block;endSize=12;strokeColor=#000082;exitX=0.206;exitY=0.000;exitDx=0;exitDy=0;entryX=0.000;entryY=0.500;entryDx=0;entryDy=0;">
      <mxGeometry width="50" height="50" relative="1" as="geometry">
        <Array as="points">
          <mxPoint x="2721" y="537" />
          <mxPoint x="3103" y="537" />
          <mxPoint x="3103" y="23" />
          <mxPoint x="3250" y="23" />
          <mxPoint x="3250" y="389" />
          <mxPoint x="3195" y="389" />
          <mxPoint x="3195" y="1225" />
        </Array>
      </mxGeometry>
    </mxCell>
    <mxCell id="edge20" edge="1" value="" parent="1" source="node0" target="node67" style="html=1;rounded=1;edgeStyle=orthogonalEdgeStyle;dashed=0;startArrow=none;endArrow=block;endSize=12;strokeColor=#000082;exitX=0.500;exitY=0.001;exitDx=0;exitDy=0;entryX=0.000;entryY=0.500;entryDx=0;entryDy=0;">
      <mxGeometry width="50" height="50" relative="1" as="geometry">
        <Array as="points">
          <mxPoint x="6331" y="193" />
          <mxPoint x="7695" y="193" />
          <mxPoint x="7695" y="640" />
        </Array>
      </mxGeometry>
    </mxCell>
    <mxCell id="edge42" edge="1" value="" parent="1" source="node45" target="node62" style="html=1;rounded=1;edgeStyle=orthogonalEdgeStyle;dashed=0;startArrow=none;endArrow=block;endSize=12;strokeColor=#000082;exitX=0.071;exitY=0.000;exitDx=0;exitDy=0;entryX=0.000;entryY=0.500;entryDx=0;entryDy=0;">
      <mxGeometry width="50" height="50" relative="1" as="geometry">
        <Array as="points">
          <mxPoint x="4172" y="894" />
          <mxPoint x="3195" y="894" />
          <mxPoint x="3195" y="1225" />
        </Array>
      </mxGeometry>
    </mxCell>
    <mxCell id="edge4" edge="1" value="" parent="1" source="node48" target="node63" style="html=1;rounded=1;edgeStyle=orthogonalEdgeStyle;dashed=0;startArrow=none;endArrow=block;endSize=12;strokeColor=#000082;exitX=0.000;exitY=0.500;exitDx=0;exitDy=0;entryX=0.458;entryY=1.000;entryDx=0;entryDy=0;">
      <mxGeometry width="50" height="50" relative="1" as="geometry">
        <Array as="points">
          <mxPoint x="529" y="1423" />
          <mxPoint x="529" y="1349" />
          <mxPoint x="663" y="1349" />
        </Array>
      </mxGeometry>
    </mxCell>
    <mxCell id="edge6" edge="1" value="" parent="1" source="node81" target="node62" style="html=1;rounded=1;edgeStyle=orthogonalEdgeStyle;dashed=0;startArrow=none;endArrow=block;endSize=12;strokeColor=#000082;exitX=0.500;exitY=0.000;exitDx=0;exitDy=0;entryX=0.000;entryY=0.500;entryDx=0;entryDy=0;">
      <mxGeometry width="50" height="50" relative="1" as="geometry">
        <Array as="points">
          <mxPoint x="1311" y="-32" />
          <mxPoint x="3103" y="-32" />
          <mxPoint x="3103" y="23" />
          <mxPoint x="3250" y="23" />
          <mxPoint x="3250" y="389" />
          <mxPoint x="3195" y="389" />
          <mxPoint x="3195" y="1225" />
        </Array>
      </mxGeometry>
    </mxCell>
    <mxCell id="edge61" edge="1" value="" parent="1" source="node104" target="node19" style="html=1;rounded=1;edgeStyle=orthogonalEdgeStyle;dashed=0;startArrow=none;endArrow=block;endSize=12;strokeColor=#000082;exitX=1.000;exitY=0.500;exitDx=0;exitDy=0;entryX=0.000;entryY=0.500;entryDx=0;entryDy=0;">
      <mxGeometry width="50" height="50" relative="1" as="geometry">
        <Array as="points">
          <mxPoint x="8359" y="1556" />
          <mxPoint x="8359" y="1474" />
        </Array>
      </mxGeometry>
    </mxCell>
    <mxCell id="edge18" edge="1" value="" parent="1" source="node63" target="node41" style="html=1;rounded=1;edgeStyle=orthogonalEdgeStyle;dashed=1;startArrow=none;endArrow=block;endSize=12;strokeColor=#008200;exitX=0.500;exitY=1.000;exitDx=0;exitDy=0;entryX=0.500;entryY=1.000;entryDx=0;entryDy=0;">
      <mxGeometry width="50" height="50" relative="1" as="geometry">
        <Array as="points">
          <mxPoint x="678" y="1213" />
          <mxPoint x="1302" y="1213" />
        </Array>
      </mxGeometry>
    </mxCell>
    <mxCell id="edge55" edge="1" value="" parent="1" source="node95" target="node79" style="html=1;rounded=1;edgeStyle=orthogonalEdgeStyle;dashed=1;startArrow=none;endArrow=block;endSize=12;strokeColor=#008200;exitX=0.000;exitY=0.178;exitDx=0;exitDy=0;entryX=1.000;entryY=0.500;entryDx=0;entryDy=0;">
      <mxGeometry width="50" height="50" relative="1" as="geometry">
        <Array as="points" />
      </mxGeometry>
    </mxCell>
    <mxCell id="edge70" edge="1" value="" parent="1" source="node95" target="node92" style="html=1;rounded=1;edgeStyle=orthogonalEdgeStyle;dashed=1;startArrow=none;endArrow=block;endSize=12;strokeColor=#008200;exitX=0.000;exitY=0.500;exitDx=0;exitDy=0;entryX=0.921;entryY=0.000;entryDx=0;entryDy=0;">
      <mxGeometry width="50" height="50" relative="1" as="geometry">
        <Array as="points">
          <mxPoint x="8320" y="1105" />
          <mxPoint x="8320" y="1282" />
          <mxPoint x="7689" y="1282" />
        </Array>
      </mxGeometry>
    </mxCell>
    <mxCell id="edge23" edge="1" value="" parent="1" source="node2" target="node92" style="html=1;rounded=1;edgeStyle=orthogonalEdgeStyle;dashed=1;startArrow=none;endArrow=block;endSize=12;strokeColor=#008200;exitX=1.000;exitY=0.879;exitDx=0;exitDy=0;entryX=0.921;entryY=0.000;entryDx=0;entryDy=0;">
      <mxGeometry width="50" height="50" relative="1" as="geometry">
        <Array as="points">
          <mxPoint x="7689" y="1302" />
        </Array>
      </mxGeometry>
    </mxCell>
    <mxCell id="edge52" edge="1" value="" parent="1" source="node62" target="node18" style="html=1;rounded=1;edgeStyle=orthogonalEdgeStyle;dashed=0;startArrow=none;endArrow=block;endSize=12;strokeColor=#000082;exitX=0.989;exitY=0.001;exitDx=0;exitDy=0;entryX=1.000;entryY=0.777;entryDx=0;entryDy=0;">
      <mxGeometry width="50" height="50" relative="1" as="geometry">
        <Array as="points">
          <mxPoint x="3517" y="1021" />
          <mxPoint x="3416" y="1021" />
          <mxPoint x="3416" y="624" />
          <mxPoint x="4583" y="624" />
          <mxPoint x="4583" y="715" />
          <mxPoint x="5172" y="715" />
          <mxPoint x="5172" y="888" />
          <mxPoint x="5720" y="888" />
          <mxPoint x="5720" y="973" />
          <mxPoint x="6480" y="973" />
          <mxPoint x="6480" y="879" />
        </Array>
      </mxGeometry>
    </mxCell>
    <mxCell id="edge68" edge="1" value="" parent="1" source="node54" target="node67" style="html=1;rounded=1;edgeStyle=orthogonalEdgeStyle;dashed=0;startArrow=none;endArrow=block;endSize=12;strokeColor=#000082;exitX=0.500;exitY=0.001;exitDx=0;exitDy=0;entryX=0.000;entryY=0.500;entryDx=0;entryDy=0;">
      <mxGeometry width="50" height="50" relative="1" as="geometry">
        <Array as="points">
          <mxPoint x="8880" y="720" />
          <mxPoint x="8305" y="720" />
          <mxPoint x="8305" y="193" />
          <mxPoint x="7695" y="193" />
          <mxPoint x="7695" y="640" />
        </Array>
      </mxGeometry>
    </mxCell>
    <mxCell id="edge1" edge="1" value="" parent="1" source="node70" target="node62" style="html=1;rounded=1;edgeStyle=orthogonalEdgeStyle;dashed=0;startArrow=none;endArrow=block;endSize=12;strokeColor=#000082;exitX=0.500;exitY=0.000;exitDx=0;exitDy=0;entryX=0.000;entryY=0.500;entryDx=0;entryDy=0;">
      <mxGeometry width="50" height="50" relative="1" as="geometry">
        <Array as="points">
          <mxPoint x="581" y="-32" />
          <mxPoint x="3103" y="-32" />
          <mxPoint x="3103" y="23" />
          <mxPoint x="3250" y="23" />
          <mxPoint x="3250" y="389" />
          <mxPoint x="3195" y="389" />
          <mxPoint x="3195" y="1225" />
        </Array>
      </mxGeometry>
    </mxCell>
    <mxCell id="edge13" edge="1" value="" parent="1" source="node8" target="node63" style="html=1;rounded=1;edgeStyle=orthogonalEdgeStyle;dashed=0;startArrow=none;endArrow=block;endSize=12;strokeColor=#000082;exitX=0.500;exitY=1.000;exitDx=0;exitDy=0;entryX=0.458;entryY=1.000;entryDx=0;entryDy=0;">
      <mxGeometry width="50" height="50" relative="1" as="geometry">
        <Array as="points">
          <mxPoint x="299" y="1221" />
          <mxPoint x="529" y="1221" />
          <mxPoint x="529" y="1349" />
          <mxPoint x="663" y="1349" />
        </Array>
      </mxGeometry>
    </mxCell>
    <mxCell id="edge58" edge="1" value="" parent="1" source="node105" target="node62" style="html=1;rounded=1;edgeStyle=orthogonalEdgeStyle;dashed=0;startArrow=none;endArrow=block;endSize=12;strokeColor=#000082;exitX=0.500;exitY=0.001;exitDx=0;exitDy=0;entryX=0.000;entryY=0.500;entryDx=0;entryDy=0;">
      <mxGeometry width="50" height="50" relative="1" as="geometry">
        <Array as="points">
          <mxPoint x="5308" y="389" />
          <mxPoint x="3195" y="389" />
          <mxPoint x="3195" y="1225" />
        </Array>
      </mxGeometry>
    </mxCell>
    <mxCell id="edge7" edge="1" value="" parent="1" source="node91" target="node62" style="html=1;rounded=1;edgeStyle=orthogonalEdgeStyle;dashed=0;startArrow=none;endArrow=block;endSize=12;strokeColor=#000082;exitX=0.500;exitY=0.000;exitDx=0;exitDy=0;entryX=0.000;entryY=0.500;entryDx=0;entryDy=0;">
      <mxGeometry width="50" height="50" relative="1" as="geometry">
        <Array as="points">
          <mxPoint x="1626" y="-32" />
          <mxPoint x="3103" y="-32" />
          <mxPoint x="3103" y="23" />
          <mxPoint x="3250" y="23" />
          <mxPoint x="3250" y="389" />
          <mxPoint x="3195" y="389" />
          <mxPoint x="3195" y="1225" />
        </Array>
      </mxGeometry>
    </mxCell>
    <mxCell id="edge57" edge="1" value="" parent="1" source="node130" target="node62" style="html=1;rounded=1;edgeStyle=orthogonalEdgeStyle;dashed=0;startArrow=none;endArrow=block;endSize=12;strokeColor=#000082;exitX=0.500;exitY=1.001;exitDx=0;exitDy=0;entryX=0.000;entryY=0.500;entryDx=0;entryDy=0;">
      <mxGeometry width="50" height="50" relative="1" as="geometry">
        <Array as="points">
          <mxPoint x="4585" y="894" />
          <mxPoint x="3195" y="894" />
          <mxPoint x="3195" y="1225" />
        </Array>
      </mxGeometry>
    </mxCell>
  </root>
</mxGraphModel>